<?xml version="1.0" encoding="utf-8"?>
<!-- Generator: Adobe Illustrator 12.0.1, SVG Export Plug-In . SVG Version: 6.00 Build 51448)  -->
<!DOCTYPE svg PUBLIC "-//W3C//DTD SVG 1.1//EN" "http://www.w3.org/Graphics/SVG/1.1/DTD/svg11.dtd" [
		<!ENTITY ns_svg "http://www.w3.org/2000/svg">
		<!ENTITY ns_xlink "http://www.w3.org/1999/xlink">
		]>
<svg  version="1.1" id="Layer_1" xmlns="&ns_svg;" xmlns:xlink="&ns_xlink;" width="643.684" height="558.835" fill="#9dcaf3"
	 viewBox="43 18 643.684 558.835" overflow="visible" enable-background="new 43 18 643.684 558.835" xml:space="preserve">
<g>
	<g>
		<path d="M94.508,2.521C84.08,6.198,75.337,16.552,70.521,30.927c-1.459,4.356-2.438,8.836-3.047,13.3
			c-7.445-3.546-15.266-5.404-22.597-4.253C29.75,42.349,15.167,52.175,9.413,63.868c-1.892,3.844-2.835,7.812-2.835,11.806
			c0,4.555,1.228,9.144,3.678,13.625c4.964,9.08,12.127,15.81,19.875,20.834C14.918,116.53-0.001,127.868-0.001,145.64
			c0,0.544,0.015,1.095,0.042,1.652c0.431,8.439,3.87,15.42,10.224,20.749c11.772,9.874,30.637,11.545,43.215,9.978
			c2.458-0.307,6.021-1.113,10.132-2.322c-0.223,1.831-0.361,3.663-0.361,5.49c0,8.628,2.475,17.127,7.273,24.642
			c6.912,10.827,18.187,18.631,30.933,21.412c12.34,2.692,23.639-0.223,32.676-8.425c7.525-6.833,12.537-16.216,15.59-26.09
			c11.341,6.834,24.337,11.602,36.487,11.833c15.013,0.288,26.456-6.341,33.092-19.17c4.366-8.439,6.565-16.995,6.565-25.319
			c0-5.357-0.911-10.619-2.741-15.694c-4.598-12.749-15.027-24.126-29.162-32.338c3.688-3.503,7.364-7.524,10.896-12.109
			c9.116-11.842,18.004-28.717,18.004-42.851c0-3.62-0.583-7.061-1.896-10.19c-3.826-9.132-10.443-14.525-19.669-16.028
			c-12.536-2.042-27.924,3.542-40.406,10.644c-2.392-8.691-6.806-16.397-11.941-22.335C134.525,2.482,113.154-4.051,94.508,2.521z
			 M72.228,31.499c4.638-13.847,12.977-23.79,22.879-27.28c17.942-6.326,38.544,0.003,52.486,16.126
			c5.065,5.856,9.404,13.49,11.685,22.095c-8.118,4.8-14.85,10.151-18.466,14.278c-12.02,13.713-18.06,24.119-18.06,31.076
			c0,2.45,0.749,4.473,2.25,6.062c4.231,4.481,8.477,6.464,12.618,5.896c8.042-1.104,14.141-11.525,19.226-21.206
			c4.206-8.006,5.957-15.975,5.957-23.536c0-4.032-0.542-7.927-1.43-11.67c12.417-7.083,27.739-12.643,39.64-10.704
			c8.572,1.396,14.729,6.425,18.299,14.947c1.229,2.931,1.776,6.162,1.776,9.572c0,13.62-8.728,30.086-17.651,41.676
			c-3.579,4.648-7.342,8.717-11.117,12.244c-2.674-1.474-5.431-2.874-8.345-4.11c-6.931-2.94-22.055-2.038-27.453,2.876
			c-1.909,1.737-2.53,3.875-1.797,6.182c2.341,5.873,6.092,9.178,11.17,9.884c7.29,1.014,16.978-3.771,26.686-12.599
			c14.021,8.018,24.349,19.18,28.856,31.679c1.792,4.968,2.686,10.039,2.686,15.189c0,7.966-2.141,16.124-6.417,24.387
			c-6.3,12.179-17.18,18.472-31.46,18.199c-12.001-0.23-24.845-4.984-36-11.773c2.137-7.533,3.188-15.274,3.188-22.37
			c0-2.867-0.161-5.625-0.468-8.217c-1.379-11.595-9.01-17.922-15.69-19.976c-6.375-1.961-12.791-0.584-16.341,3.507
			c-1.36,1.565-2.985,4.353-2.985,8.719c0,3.026,0.781,6.813,2.972,11.479c4.428,9.426,14.668,19.723,27.139,27.578
			c-3.014,9.921-7.953,19.254-15.135,25.774c-8.71,7.908-19.167,10.599-31.082,8c-12.283-2.68-23.146-10.196-29.801-20.622
			c-4.611-7.223-6.99-15.389-6.99-23.678c0-2.022,0.194-4.05,0.48-6.075c12.959-4.05,30.37-11.814,37.708-21.376
			c2.309-3.007,3.472-6.022,3.472-8.985c0-0.517-0.036-1.033-0.107-1.547c-0.497-3.593-2.429-6.156-5.587-7.411
			c-6.644-2.64-17.174,0.921-21.799,4.637c-8.552,6.873-12.199,18.878-14.866,30.826c-0.182,0.813-0.271,1.63-0.407,2.445
			c-4.396,1.341-8.182,2.224-10.688,2.536c-12.219,1.524-30.507-0.068-41.837-9.57c-5.955-4.995-9.18-11.544-9.583-19.463
			c-0.026-0.522-0.04-1.039-0.04-1.551c0-17.317,15.084-28.292,30.157-34.361c11.384,6.917,23.753,10.288,32.217,11.886
			c3.917,0.74,17.031,2.762,21.394-2.25c1.578-1.812,1.858-4.274,0.833-7.318c-4.759-14.128-34.175-9.689-35.425-9.493
			c-5.336,0.836-12.034,2.537-18.802,5.186c-7.933-4.95-15.31-11.669-20.338-20.863c-2.297-4.202-3.448-8.502-3.448-12.766
			c0-3.728,0.88-7.428,2.643-11.01c5.511-11.199,19.545-20.621,34.129-22.911c7.156-1.124,14.815,0.749,22.096,4.301
			c-0.295,2.655-0.496,5.3-0.496,7.896c0,10.471,2.384,20.218,7.02,27.212c4.041,6.093,10.811,12.695,17.695,12.956
			c3.805,0.145,7.174-1.631,10.011-5.277c0.993-1.277,1.486-2.9,1.486-4.812c0-3.141-1.329-7.061-3.947-11.501
			c-5.583-9.474-17.051-20.848-29.848-27.437C69.758,40.535,70.735,35.954,72.228,31.499z M66.108,171.645
			c2.595-11.63,6.117-23.291,14.237-29.817c4.084-3.281,14.147-6.696,20.009-4.368c2.557,1.017,4.061,3.03,4.47,5.987
			c0.059,0.428,0.088,0.857,0.088,1.291c0,2.565-1.039,5.216-3.099,7.9c-6.838,8.91-23.376,16.39-35.945,20.45
			C65.959,172.607,66,172.125,66.108,171.645z M122.548,163.366c-1.869-3.976-2.803-7.616-2.803-10.761
			c0-2.994,0.848-5.538,2.545-7.492c3.085-3.554,8.759-4.718,14.455-2.968c7.953,2.445,13.348,9.349,14.433,18.469
			c0.295,2.479,0.444,5.095,0.444,7.799c0,6.898-1.028,14.35-3.037,21.563C136.611,182.357,126.812,172.444,122.548,163.366z
			 M166.142,124.125c-4.391-0.611-7.663-3.541-9.726-8.709c-0.497-1.572-0.074-2.979,1.316-4.245
			c4.842-4.409,19.133-5.27,25.541-2.552c2.667,1.132,5.204,2.395,7.664,3.729C181.8,120.514,172.72,125.04,166.142,124.125z
			 M51.251,105.89c10.07-1.578,30.017-1.876,33.442,8.291c0.818,2.43,0.659,4.249-0.485,5.563
			c-2.967,3.408-12.124,3.095-19.703,1.663c-8.011-1.512-19.595-4.634-30.407-10.925C40.289,108.174,46.36,106.657,51.251,105.89z
			 M91.54,92.319c-6.212-0.236-12.644-6.694-16.265-12.152c-4.448-6.711-6.732-16.084-6.732-26.185c0-2.313,0.163-4.669,0.404-7.035
			C81.159,53.39,92.098,64.32,97.472,73.438c2.441,4.142,3.694,7.792,3.694,10.585c0,1.505-0.364,2.761-1.104,3.712
			C97.601,90.897,94.733,92.44,91.54,92.319z M126.308,92.62c-1.027-1.089-1.752-2.651-1.752-4.894
			c0-5.279,4.024-14.327,17.608-29.824c3.545-4.043,9.951-9.069,17.597-13.605c0.776,3.444,1.235,7.023,1.235,10.712
			c0,7.296-1.688,14.981-5.743,22.701c-4.877,9.283-10.683,19.271-17.878,20.26C133.841,98.454,130.118,96.655,126.308,92.62z"/>
	</g>
	<path d="M116.617,101.434c-8.85,1.975-14.442,10.055-14.346,18.124c0.061,5.222,13.923,13.007,18.902,13.108
		C136.833,132.989,125.466,99.458,116.617,101.434z"/>
</g>
<g>
	<g>
		<path d="M255.057,120.395c-9.196,6.143-15.106,18.338-16.217,33.458c-0.128,1.755-0.191,3.513-0.191,5.266
			c0,2.853,0.226,5.673,0.549,8.465c-8.097-1.6-16.144-1.555-22.969,1.376c-14.068,6.042-25.767,19.167-28.451,31.919
			c-0.413,1.963-0.617,3.9-0.617,5.804c0,6.797,2.617,13.152,7.724,18.63c7.051,7.564,15.648,12.318,24.392,15.272
			c-11.221,8.497-21.341,20.429-21.341,34.444c0,2.912,0.438,5.918,1.395,9.002c2.504,8.07,7.564,13.984,15.04,17.576
			c13.847,6.654,32.541,3.609,44.34-1.021c2.301-0.902,5.546-2.562,9.22-4.742c1.354,10.463,6.29,20.088,14.172,27.473
			c9.374,8.781,22.229,13.553,35.269,13.096c12.621-0.445,22.85-6.059,29.577-16.246c5.595-8.471,8.196-18.789,8.718-29.102
			c12.659,3.801,26.406,5.186,38.214,2.41c14.617-3.436,24.067-12.688,27.324-26.76c1.086-4.691,1.625-9.273,1.625-13.703
			c0-9.934-2.714-19.095-8.062-26.981c-7.606-11.212-20.519-19.654-36.238-24.117c2.705-4.302,5.261-9.123,7.545-14.433
			c4.46-10.369,8.083-23.487,8.083-35.188c0-7.759-1.593-14.894-5.594-20.19c-5.964-7.901-13.712-11.491-23.022-10.665
			c-12.657,1.123-26.183,10.346-36.52,20.318c-4.467-7.833-10.647-14.215-17.091-18.699
			C293.821,110.461,271.498,109.416,255.057,120.395z M240.446,159.148c0-1.718,0.062-3.44,0.188-5.162
			c1.069-14.565,6.69-26.262,15.422-32.094c15.821-10.567,37.348-9.529,54.845,2.644c6.357,4.422,12.436,10.76,16.772,18.537
			c-6.67,6.654-11.865,13.495-14.348,18.384c-6.834,13.459-10.258,23.708-10.258,30.664c0,4.406,1.374,7.49,4.124,9.23
			c5.207,3.295,9.812,4.167,13.685,2.592c7.518-3.059,10.851-14.664,13.385-25.301c1.004-4.219,1.465-8.291,1.465-12.193
			c0-8.564-2.294-16.255-5.816-22.983c10.286-9.954,23.756-19.166,35.788-20.233c8.652-0.767,15.862,2.583,21.432,9.958
			c3.757,4.979,5.261,11.726,5.261,19.102c0,11.391-3.582,24.283-7.97,34.481c-2.318,5.386-4.953,10.264-7.736,14.613
			c-2.958-0.769-5.977-1.444-9.107-1.921c-7.443-1.135-21.876,3.48-25.892,9.579c-1.419,2.154-1.491,4.379-0.21,6.432
			c3.72,5.112,8.173,7.387,13.267,6.815c7.313-0.82,15.511-7.859,22.734-18.809c15.571,4.302,28.343,12.563,35.802,23.561
			c5.189,7.651,7.794,16.284,7.794,25.779c0,4.322-0.54,8.822-1.621,13.491c-3.094,13.357-12.077,22.146-25.983,25.412
			c-11.668,2.742-25.275,1.336-37.753-2.475c0.021-0.709,0.06-1.424,0.06-2.133c0-10.264-1.973-20.279-5.029-28.204
			c-4.206-10.894-13.163-15.137-20.144-15.475c-6.662-0.323-12.537,2.598-14.967,7.44c-0.625,1.246-1.231,3.059-1.231,5.4
			c0,3.55,1.394,8.316,6.216,14.173c6.632,8.049,19.123,15.523,33.176,20.049c-0.471,10.346-3.01,20.59-8.348,28.674
			c-6.483,9.816-15.95,15.014-28.14,15.441c-12.564,0.439-24.949-4.154-33.977-12.613c-7.777-7.283-12.537-16.842-13.683-27.205
			c11.558-7.125,26.519-18.963,31.268-30.049c1.002-2.338,1.503-4.552,1.503-6.624c0-1.554-0.282-3.026-0.848-4.413
			c-1.37-3.358-3.876-5.363-7.246-5.798c-7.092-0.916-16.413,5.139-19.976,9.882c-5.645,7.521-6.866,17.801-6.866,28.292
			c0,1.75,0.034,3.506,0.087,5.254c0.025,0.836,0.127,1.652,0.198,2.479c-3.923,2.383-7.368,4.172-9.716,5.092
			c-11.462,4.5-29.578,7.48-42.904,1.076c-7.006-3.365-11.75-8.914-14.101-16.488c-0.899-2.896-1.31-5.721-1.31-8.469
			c0-13.778,10.369-25.51,21.617-33.759c12.738,3.884,25.554,4.076,34.148,3.531c3.977-0.251,17.186-1.536,20.173-7.47
			c1.08-2.146,0.743-4.6-1.003-7.297c-8.106-12.514-35.51-0.937-36.672-0.438c-4.966,2.132-11.038,5.438-16.943,9.684
			c-8.91-2.833-17.715-7.53-24.858-15.192c-4.785-5.133-7.236-11.08-7.236-17.434c0-1.772,0.191-3.577,0.575-5.405
			c2.57-12.215,13.838-24.813,27.401-30.637c6.662-2.862,14.558-2.844,22.499-1.198c1.879,13.272,7.236,25.295,14.982,32.303
			c5.419,4.904,13.611,9.627,20.347,8.177c3.723-0.801,6.547-3.354,8.394-7.588c0.371-0.849,0.555-1.768,0.555-2.747
			c0-3.535-2.392-7.845-6.974-12.453c-7.751-7.795-21.666-15.933-35.69-19.153C240.693,165.056,240.446,162.122,240.446,159.148z
			 M269.367,291.289c-0.052-1.736-0.085-3.477-0.085-5.211c0-10.162,1.163-20.084,6.505-27.201
			c3.146-4.189,12.052-9.987,18.307-9.181c2.729,0.353,4.685,1.932,5.812,4.695c0.475,1.162,0.711,2.409,0.711,3.735
			c0,1.829-0.452,3.806-1.354,5.916c-4.424,10.324-18.603,21.667-29.778,28.708C269.453,292.262,269.382,291.781,269.367,291.289z
			 M322.007,269.309c-3.842-4.664-5.816-9.147-5.816-13.048c0-1.638,0.348-3.173,1.051-4.575c2.111-4.207,7.32-6.738,13.272-6.45
			c8.31,0.402,15.245,5.757,18.553,14.326c3.015,7.814,4.825,17.523,4.825,27.357c0,0.582-0.036,1.164-0.047,1.746
			C340.346,284.242,328.386,277.055,322.007,269.309z M238.708,231.251c9.367-4.02,28.621-9.243,34.454-0.236
			c1.393,2.15,1.689,3.952,0.907,5.509c-2.032,4.037-10.983,5.997-18.681,6.484c-8.142,0.518-20.149,0.35-32.191-3.079
			C228.635,236.154,234.154,233.206,238.708,231.251z M342.964,214.47c-0.871-1.4-0.809-2.87,0.225-4.438
			c3.601-5.469,17.235-9.838,24.114-8.789c2.857,0.436,5.625,1.03,8.333,1.712c-6.829,10.164-14.499,16.809-21.095,17.549
			C350.135,220.998,346.24,218.968,342.964,214.47z M255.626,200.385c-7.332-6.634-12.446-17.985-14.336-30.596
			c13.421,3.224,26.717,11.084,34.176,18.587c4.198,4.224,6.447,8.168,6.447,11.189c0,0.732-0.132,1.409-0.4,2.023l0,0
			c-1.604,3.673-4,5.877-7.125,6.55C268.311,209.446,260.482,204.778,255.626,200.385z M308.153,199.829
			c-1.834-1.161-3.3-3.445-3.3-7.777c0-5.692,2.529-14.92,10.075-29.783c2.431-4.786,7.357-11.228,13.63-17.504
			c3.256,6.384,5.364,13.644,5.364,21.705c0,3.762-0.443,7.688-1.413,11.754c-2.429,10.201-5.584,21.314-12.311,24.052
			C316.895,203.619,312.843,202.796,308.153,199.829z M283.161,202.307L283.161,202.307L283.161,202.307z"/>
	</g>
	<path d="M300.941,210.767c-8.086,4.101-11.505,13.315-9.418,21.108c1.352,5.045,16.709,9.158,21.558,8.028
		C328.335,236.342,309.028,206.663,300.941,210.767z"/>
</g>
<g>
	<g>
		<path d="M485.824,32.892c-8.807,2.549-15.112,8.688-18.231,17.752c-2.081,6.048-2.943,12.117-2.943,18.021
			c0,3.664,0.403,7.233,0.982,10.727c-15.442-7.165-34.573-10.571-47.782,2.764c-5.63,5.68-8.478,12.475-8.478,20.21
			c0,0.437,0.009,0.878,0.026,1.321c0.63,15.352,12.103,30.423,21.734,38.664c1.881,1.61,4.852,3.694,8.511,5.916
			c-8.599,6.11-14.774,14.99-17.588,25.416c-1.099,4.071-1.64,8.271-1.64,12.477c0,8.6,2.265,17.222,6.65,24.807
			c6.321,10.936,16.086,17.325,28.236,18.478c10.132,0.961,20.444-1.678,29.808-6.081c2.585,12.997,7.788,25.827,15.807,34.972
			c9.898,11.291,22.505,15.283,36.457,11.546c15.084-4.037,26.458-12.612,32.89-24.796c4.104-7.773,6.164-16.967,6.164-26.831
			c0-5.333-0.679-10.871-1.885-16.476c5.06,0.363,10.521,0.344,16.271-0.135c18.706-1.554,43.041-8.724,50.056-23.819
			c1.876-4.036,2.813-7.981,2.813-11.811c0-4.692-1.407-9.212-4.215-13.524c-6.927-10.63-21.393-18.227-35.035-22.671
			c4.814-7.623,7.486-16.099,8.418-23.894c0.285-2.397,0.426-4.774,0.426-7.119c0-19.076-9.283-36.005-24.795-44.336
			c-9.743-5.231-23.283-4.719-37.152,1.404c-4.209,1.859-8.211,4.136-11.925,6.697c-2.394-7.881-6.253-14.921-12.037-19.559
			C515.425,33.431,498.343,29.27,485.824,32.892z M466.448,68.67c0-5.722,0.834-11.595,2.846-17.441
			c2.919-8.487,8.809-14.231,17.03-16.609c11.99-3.469,28.406,0.559,39.919,9.795c5.653,4.534,9.379,11.487,11.656,19.265
			c-10.85,7.897-18.956,18.294-21.505,28.434c-0.74,2.942-1.229,6.292-1.229,9.58c0,4.633,0.97,9.145,3.568,12.225
			c2.457,2.91,6.037,4.204,10.643,3.845l0,0c4.264-0.332,7.958-4.881,10.403-12.808c1.726-5.594,2.732-12.786,2.732-20.386
			c0-6.69-0.842-13.665-2.604-20.176c3.764-2.638,7.845-4.975,12.146-6.874c13.359-5.898,26.327-6.433,35.577-1.465
			c14.919,8.013,23.846,24.337,23.846,42.754c0,2.273-0.136,4.578-0.414,6.904c-0.917,7.685-3.594,16.047-8.416,23.527
			c-9.033-2.776-17.541-4.148-23.035-4.042c-24.651,0.474-37.471,4.958-38.1,13.328c-0.462,6.146,0.932,10.62,4.142,13.298
			c6.232,5.2,18.042,2.69,28.623-0.071c13.409-3.5,22.836-11.218,29.073-20.349c13.599,4.407,28.024,11.966,34.609,22.07
			c2.606,3.998,3.91,8.196,3.91,12.557c0,3.576-0.877,7.262-2.633,11.038c-6.688,14.394-30.346,21.27-48.573,22.784
			c-5.839,0.485-11.395,0.463-16.537,0.051c-0.713-2.977-1.529-5.965-2.581-8.958c-2.496-7.104-13.351-17.675-20.618-18.354
			c-2.568-0.241-4.567,0.74-5.779,2.835c-1.344,2.768-2.017,5.372-2.017,7.805c0,2.565,0.747,4.938,2.234,7.109
			c4.162,6.074,14.221,10.023,27.295,11.252c1.265,5.676,1.971,11.282,1.971,16.667c0,9.566-1.991,18.472-5.958,25.987
			c-6.282,11.897-16.969,19.938-31.767,23.899c-13.246,3.547-25.221-0.258-34.642-10.996c-7.917-9.029-13.022-21.735-15.519-34.561
			c9.825-4.905,18.481-11.717,24.412-18.57c4.528-5.23,6.209-10.837,6.209-15.852c0-3.452-0.797-6.624-2.012-9.2
			c-2.846-6.032-8.184-9.847-13.599-9.716c-3.511,0.084-10.121,1.962-14.939,13.596c-2.426,5.858-3.649,13.529-3.649,21.908
			c0,5.373,0.565,11.035,1.576,16.699c-9.372,4.465-19.604,7.119-29.272,6.201c-11.714-1.112-20.746-7.029-26.85-17.587
			c-4.228-7.311-6.41-15.618-6.41-23.904c0-4.047,0.521-8.091,1.579-12.011c2.775-10.288,8.979-18.982,17.588-24.862
			c11.721,6.854,29.199,14.5,41.217,13.484c4.434-0.376,7.818-1.926,10.051-4.607c2.32-2.788,2.914-5.942,1.715-9.122
			c-2.524-6.689-12.248-12.073-18.111-12.989c-10.839-1.693-22.167,3.698-32.796,9.776c-0.721,0.413-1.396,0.887-2.088,1.334
			c-3.943-2.341-7.151-4.542-9.064-6.181c-9.359-8.006-20.501-22.598-21.107-37.371c-0.018-0.416-0.026-0.827-0.026-1.237
			c0-7.251,2.673-13.624,7.957-18.955c12.85-12.97,31.76-9.153,46.837-1.878c2.562,13.053,8.393,24.446,12.906,31.769
			c2.09,3.392,9.427,14.449,16.07,14.298c2.403-0.054,4.411-1.506,5.972-4.314c0.978-1.761,1.4-3.626,1.4-5.538
			c0-12.236-17.39-26.355-18.243-27.041c-4.2-3.37-9.978-7.141-16.469-10.352C466.902,76.575,466.448,72.669,466.448,68.67z
			 M484.93,204.848c0-8.154,1.19-15.616,3.552-21.315c3.282-7.924,8.012-12.358,13.318-12.486c4.705-0.113,9.39,3.297,11.93,8.687
			c1.277,2.707,1.903,5.558,1.903,8.422c0,5.098-1.985,10.239-5.834,14.685c-5.797,6.698-14.12,13.156-23.414,17.849
			C485.45,215.313,484.93,209.945,484.93,204.848z M546.851,189.323c-1.272-1.857-1.909-3.902-1.909-6.123
			c0-2.153,0.6-4.468,1.796-6.932c0.826-1.426,2.152-2.062,4.021-1.888c6.521,0.61,16.782,10.593,19.09,17.159
			c0.96,2.734,1.728,5.461,2.397,8.179C560.06,198.468,550.604,194.8,546.851,189.323z M444.348,147.393
			c10.344-5.917,21.335-11.169,31.627-9.561c5.177,0.809,14.48,5.946,16.704,11.847c0.973,2.575,0.497,5.043-1.414,7.336
			c-1.914,2.298-4.881,3.633-8.821,3.965c-11.192,0.947-27.874-6.239-39.337-12.794
			C443.526,147.927,443.918,147.637,444.348,147.393z M546.806,150.442c-2.738-2.285-3.916-6.249-3.5-11.782
			c0.378-5.01,6.987-11.101,36.34-11.665c5.38-0.104,13.407,1.235,21.914,3.833c-6.023,8.616-15.027,15.865-27.736,19.183
			C563.675,152.659,552.382,155.094,546.806,150.442z M480.4,112.368c-4.273-6.93-9.742-17.589-12.379-29.801
			c5.859,3.016,11.071,6.462,14.922,9.553c6.729,5.401,17.55,16.654,17.55,25.67c0,1.633-0.354,3.194-1.153,4.633
			c-1.245,2.242-2.697,3.35-4.439,3.389C490.378,125.915,484.446,118.935,480.4,112.368z M520.109,112.758
			c-2.29-2.715-3.129-6.847-3.129-11.077c0-3.175,0.474-6.405,1.157-9.129c2.411-9.583,10.038-19.417,20.276-27.009
			c1.576,6.104,2.333,12.615,2.333,18.882c0,7.447-0.993,14.511-2.685,19.999c-2.182,7.07-5.398,11.279-8.824,11.546l0,0
			C525.244,116.28,522.171,115.2,520.109,112.758z"/>
	</g>
	<path d="M530.264,137.434c-7.42-5.212-17.159-3.901-23.059,1.604c-3.818,3.562-0.235,19.051,3.04,22.8
		C520.556,173.631,537.685,142.644,530.264,137.434z"/>
</g>
<g>
	<g>
		<path d="M151.841,329.873c-11.299,5.77-20.377,19.354-26.232,32.455c-7.073-5.592-15.221-9.139-22.875-10.887
			C81.228,346.537,60.137,353.928,49,370.26c-3.605,5.289-5.431,12.049-5.431,19.6c0,5.496,0.966,11.416,2.917,17.5
			c1.403,4.371,3.245,8.584,5.397,12.541c-8.089,1.553-15.488,4.666-20.709,9.928c-9.241,9.314-14.921,22.795-14.921,34.537
			c0,1.963,0.159,3.875,0.485,5.713c1.608,9.027,7.049,15.943,15.735,19.998c9.4,4.387,19.176,5.547,28.414,4.998
			c-5.144,8.582-9.168,18.521-9.168,28.256c0,6.83,1.96,13.531,6.856,19.531c5.343,6.547,12.248,10.135,20.522,10.67
			c15.333,0.986,31.528-8.836,40.737-17.547c1.796-1.697,4.185-4.449,6.774-7.85c5.171,9.197,13.352,16.275,23.425,20.174
			c11.979,4.633,25.687,4.246,37.606-1.059c11.54-5.135,18.922-14.172,21.347-26.135c0.632-3.121,0.925-6.297,0.925-9.488
			c0-7.006-1.418-14.08-3.742-20.787c13.166-1.213,26.435-5.053,36.348-12.045c10.432-7.361,15.823-17.223,15.823-28.781
			c0-2.035-0.167-4.123-0.504-6.26c-2.429-15.428-9.758-27.639-21.197-35.318c-11.249-7.551-26.377-10.574-42.625-8.828
			c0.894-4.994,1.456-10.412,1.586-16.18c0.017-0.777,0.026-1.568,0.026-2.367c0-18.445-4.767-41.709-18.445-49.916
			C168.693,326.051,160.167,325.621,151.841,329.873z M152.659,331.475c7.736-3.951,15.675-3.541,23.599,1.211
			c13.033,7.822,17.574,30.389,17.574,48.344c0,0.799-0.01,1.584-0.026,2.359c-0.133,5.859-0.751,11.365-1.702,16.438
			c-3.03,0.396-6.086,0.906-9.167,1.637c-7.327,1.734-18.982,11.418-20.422,18.574c-0.102,0.51-0.153,1-0.153,1.471
			c0,1.873,0.802,3.436,2.364,4.572c5.364,3.348,10.344,3.791,14.854,1.354c6.482-3.502,11.458-13.119,14.053-26.006
			c16.05-1.838,30.974,1.096,42.007,8.502c11.169,7.498,18.041,18.971,20.423,34.102c0.319,2.027,0.477,4.004,0.477,5.936
			c0,10.98-5.13,20.355-15.057,27.357c-9.806,6.92-22.97,10.684-35.979,11.816c-3.843-10.297-9.726-19.625-15.922-26.248
			c-7.977-8.531-17.871-9.111-24.472-6.812c-6.298,2.195-10.652,7.104-11.092,12.502c-0.287,3.5,0.887,10.27,11.948,16.285
			c9.156,4.979,23.522,7.215,38.236,6.154c2.4,6.818,3.88,13.955,3.88,20.883c0,3.006-0.272,5.975-0.854,8.852
			c-2.338,11.531-9.173,19.893-20.316,24.85c-11.486,5.113-24.69,5.486-36.227,1.025c-9.938-3.844-17.932-10.93-22.872-20.107
			c8.05-10.934,17.493-27.512,17.747-39.568c0.004-0.162,0.005-0.326,0.005-0.488c0-4.221-1.186-7.58-3.528-9.992
			c-2.529-2.602-5.603-3.523-8.891-2.664c-6.917,1.803-13.296,10.906-14.824,16.641c-0.634,2.379-0.915,4.818-0.915,7.301
			c0,8.58,3.364,17.65,7.185,26.344c0.335,0.764,0.737,1.484,1.11,2.225c-2.745,3.676-5.27,6.623-7.103,8.357
			c-8.946,8.463-24.629,18.008-39.385,17.057c-7.756-0.498-14.231-3.867-19.245-10.012c-4.608-5.645-6.459-11.977-6.459-18.453
			c0-9.746,4.236-19.77,9.537-28.318c13.244-1.176,25.181-5.777,32.935-9.494c3.594-1.723,15.363-7.857,15.91-14.479
			c0.014-0.166,0.021-0.332,0.021-0.496c0-2.195-1.236-4.176-3.682-5.895c-12.198-8.566-33.278,12.424-34.17,13.32
			c-3.802,3.83-8.171,9.186-12.054,15.322c-9.332,0.711-19.268-0.348-28.77-4.783c-8.134-3.799-13.225-10.26-14.726-18.686
			c-0.311-1.748-0.463-3.57-0.463-5.438c0-11.266,5.487-24.24,14.405-33.229c5.102-5.143,12.401-8.135,20.375-9.582
			c6.712,11.629,16.203,20.793,26.022,24.396c6.862,2.518,16.228,3.83,21.931-0.035c3.152-2.135,4.815-5.559,4.943-10.178l0,0
			c0.119-4.273-4.016-8.426-11.643-11.691c-10.12-4.334-26.111-6.699-40.336-4.42c-2.222-4.014-4.11-8.309-5.542-12.779
			c-1.896-5.908-2.836-11.646-2.836-16.955c0-7.186,1.721-13.588,5.121-18.578c10.716-15.723,31.067-22.816,51.848-18.078
			c7.548,1.723,15.585,5.268,22.518,10.852c-3.709,8.689-5.976,17.002-6.449,22.477c-0.431,4.992-0.646,9.516-0.646,13.566
			c0,15.887,3.312,24.523,9.891,25.723c6.062,1.107,10.657,0.193,13.659-2.717c3.262-3.164,4.305-8.318,4.305-14.141
			c0-4.578-0.646-9.572-1.364-14.332c-2.069-13.701-8.75-23.887-17.173-31.051C132.886,350.512,141.918,336.959,152.659,331.475z
			 M75.336,479.178c7.181-7.234,23.082-19.283,31.86-13.117c1.959,1.377,2.917,2.828,2.917,4.43c0,0.111-0.005,0.227-0.015,0.338
			c-0.372,4.504-7.938,9.672-14.895,13.008c-7.348,3.521-18.539,7.83-30.969,9.162C67.856,487.48,71.852,482.686,75.336,479.178z
			 M126.239,523.373c-3.737-8.506-7.033-17.361-7.033-25.619c0-2.334,0.263-4.623,0.854-6.838
			c1.349-5.064,7.437-13.773,13.539-15.367c2.662-0.693,5.066,0.039,7.147,2.18c2.004,2.062,3.019,5.004,3.019,8.742
			c0,0.146-0.001,0.297-0.004,0.445c-0.237,11.232-9.141,27.057-16.868,37.768C126.682,524.242,126.437,523.822,126.239,523.373z
			 M166.824,483.289c-7.535-4.1-11.447-9.27-11.015-14.561c0.382-4.689,4.265-8.988,9.892-10.949
			c7.856-2.738,16.292-0.365,22.566,6.342c6.057,6.475,11.589,15.453,15.279,25.199C189.391,490.266,175.63,488.076,166.824,483.289
			z M93.371,425.656c6.802,2.916,10.648,6.557,10.554,9.992l0,0c-0.111,4.004-1.509,6.945-4.155,8.738
			c-5.146,3.488-14.153,2.092-20.302-0.164c-9.283-3.41-18.265-12.037-24.74-23.029C68.376,419.162,83.649,421.496,93.371,425.656z
			 M165.73,424.592c-1.045-0.764-1.574-1.781-1.574-3.074c0-0.354,0.04-0.729,0.121-1.125c1.292-6.422,12.299-15.576,19.073-17.18
			c2.812-0.664,5.594-1.111,8.359-1.492c-2.53,11.963-7.151,20.979-12.984,24.131C174.824,427.959,170.452,427.533,165.73,424.592z
			 M127.97,424.045c-4.069-0.744-8.422-5.764-8.422-23.842c0-3.879,0.201-8.357,0.647-13.525c0.462-5.359,2.632-13.203,6.111-21.393
			c7.938,6.898,14.202,16.615,16.163,29.604c0.712,4.717,1.354,9.662,1.354,14.129c0,5.359-0.925,10.029-3.769,12.785
			C137.495,424.287,133.429,425.039,127.97,424.045z"/>
	</g>
	<path d="M125.376,436.887c-5.963,6.832-5.685,16.65-0.832,23.098c3.141,4.172,18.921,2.238,22.994-0.625
		C160.352,450.348,131.338,430.053,125.376,436.887z"/>
</g>
<g>
	<g>
		<path d="M452.349,332.982c-10.872,2.027-21.104,10.91-28.078,24.375c-2.12,4.096-3.713,8.398-5.006,12.732
			c-6.826-4.674-14.283-7.752-21.727-7.742c-15.312,0.016-31.233,7.477-38.72,18.145c-3.272,4.664-4.924,9.807-4.924,15.193
			c0,3.279,0.612,6.652,1.841,10.066c3.508,9.732,9.546,17.48,16.425,23.641c-16.505,4.1-33.51,13.441-35.448,32.086
			c-0.119,1.15-0.181,2.283-0.181,3.396c0,7.021,2.377,13.291,7.086,18.68c10.113,11.568,28.496,16.127,41.167,16.514
			c2.469,0.076,6.115-0.176,10.35-0.736c-1.143,4.035-1.722,8.17-1.722,12.309c0,6.279,1.312,12.568,3.927,18.531
			c5.164,11.76,15.102,21.209,27.271,25.916c11.777,4.562,23.39,3.424,33.582-3.289c8.483-5.588,14.924-14.064,19.46-23.344
			c10.145,8.484,22.237,15.18,34.188,17.279c14.792,2.596,27.119-2.191,35.653-13.846c7.232-9.881,10.941-20.502,10.941-31.15
			c0-2.93-0.281-5.865-0.848-8.787c-2.579-13.305-11.134-26.152-23.837-36.445c4.184-2.893,8.437-6.297,12.634-10.285
			c12.039-11.445,24.759-29.08,24.759-44.184c0-1.963-0.215-3.885-0.675-5.742c-2.375-9.615-8.083-15.963-16.968-18.867
			c-12.065-3.947-28.125-0.809-41.547,4.281c-1.025-8.951-4.216-17.238-8.373-23.895
			C491.893,339.107,471.783,329.357,452.349,332.982z M425.87,358.186c6.714-12.969,16.486-21.512,26.807-23.436
			c18.704-3.486,38.085,5.939,49.379,24.016c4.101,6.568,7.237,14.771,8.166,23.623c-8.771,3.496-16.257,7.752-20.469,11.273
			c-15.142,12.662-22.763,22.574-22.763,29.572c0,1.744,0.474,3.307,1.422,4.686c3.489,5.08,7.38,7.693,11.558,7.771
			c8.116,0.146,15.748-9.211,22.264-17.992c7.256-9.777,10.103-20.176,10.103-30.033c0-1.369-0.059-2.725-0.164-4.068
			c13.351-5.078,29.32-8.207,40.771-4.459c8.256,2.699,13.565,8.615,15.78,17.586c0.429,1.738,0.63,3.537,0.63,5.379
			c0,14.486-12.446,31.633-24.207,42.814c-4.249,4.037-8.593,7.488-12.863,10.391c-2.416-1.871-4.926-3.68-7.619-5.354
			c-6.395-3.971-21.479-5.41-27.568-1.383c-2.152,1.422-3.096,3.438-2.728,5.83c1.408,6.162,4.605,10.006,9.514,11.488
			c7.054,2.125,17.369-1.08,28.333-8.322c12.603,10.08,21.08,22.691,23.608,35.727c0.561,2.895,0.842,5.779,0.842,8.645
			c0,10.217-3.556,20.236-10.621,29.889c-8.102,11.064-19.82,15.604-33.89,13.133c-11.801-2.068-23.736-8.727-33.702-17.129
			c4.598-9.994,7.013-20.777,7.342-29.848c0.014-0.359,0.02-0.715,0.02-1.064c0-11.061-6.355-18.127-12.445-21.092
			c-5.998-2.918-12.547-2.547-16.688,0.949c-1.926,1.625-4.518,4.975-4.518,11.207c0,2.447,0.399,5.34,1.396,8.748
			c2.928,10.006,11.479,21.777,22.614,31.467c-4.506,9.334-10.873,17.764-18.97,23.098c-9.823,6.473-20.572,7.521-31.943,3.117
			c-11.726-4.539-21.3-13.641-26.271-24.967c-2.516-5.73-3.775-11.773-3.775-17.809c0-4.236,0.646-8.461,1.89-12.574
			c13.43-2.006,31.859-7.008,40.586-15.332c3.224-3.07,4.886-6.398,4.947-9.887c0.001-0.07,0.001-0.143,0.001-0.211
			c0-3.525-1.51-6.279-4.381-7.973c-6.157-3.631-17.11-1.732-22.253,1.225c-9.506,5.471-14.96,16.771-19.435,28.168
			c-0.306,0.777-0.541,1.566-0.8,2.355c-4.536,0.643-8.413,0.938-10.93,0.861c-12.309-0.377-30.134-4.766-39.864-15.9
			c-4.416-5.049-6.643-10.932-6.643-17.516c0-1.047,0.058-2.109,0.168-3.191c1.888-18.143,18.998-27.061,35.291-30.842
			c10.184,8.586,21.884,13.82,30,16.703c3.756,1.332,16.403,5.354,21.485,1.072c1.838-1.547,2.493-3.938,1.949-7.104
			c-2.526-14.697-32.274-14.834-33.54-14.834c-5.397,0.002-12.277,0.658-19.367,2.23c-7.08-6.111-13.337-13.889-16.891-23.75
			c-1.153-3.201-1.727-6.361-1.727-9.438c0-5.031,1.538-9.828,4.591-14.178c7.169-10.217,22.486-17.361,37.25-17.381
			c7.252-0.008,14.527,3.053,21.181,7.689c-1.605,5.924-2.499,11.889-2.499,17.533c0,6.711,1.157,12.961,3.531,18.125
			c3.052,6.641,8.724,14.207,15.486,15.527c3.738,0.727,7.339-0.51,10.703-3.676c1.572-1.477,2.356-3.701,2.356-6.531
			c0-2.779-0.757-6.146-2.277-9.971c-4.052-10.205-13.607-23.199-25.217-31.682C422.084,366.748,423.708,362.359,425.87,358.186z
			 M398.242,495.715c4.355-11.092,9.633-22.074,18.658-27.268c4.541-2.613,15.01-4.439,20.442-1.234
			c2.32,1.369,3.496,3.527,3.496,6.418c0,0.062,0,0.123-0.001,0.188c-0.051,2.986-1.53,5.887-4.388,8.613
			c-8.132,7.752-25.637,12.6-38.681,14.672C397.932,496.643,398.061,496.172,398.242,495.715z M455.285,496.227
			c-0.884-3.016-1.32-5.791-1.32-8.262c0-4.273,1.305-7.645,3.875-9.814c3.597-3.035,9.381-3.312,14.739-0.705
			c7.209,3.508,11.435,10.742,11.435,19.479c0,0.328-0.006,0.658-0.018,0.994c-0.323,8.863-2.738,19.145-7.052,28.637
			C466.272,517.18,458.1,505.861,455.285,496.227z M504.4,464.166c-4.244-1.279-7.024-4.678-8.268-10.104
			c-0.249-1.629,0.387-2.955,1.952-3.992c5.464-3.609,19.717-2.26,25.63,1.412c2.473,1.537,4.796,3.186,7.029,4.893
			C520.445,463.053,510.767,466.086,504.4,464.166z M393.689,428.455c10.192-0.008,29.945,2.768,31.763,13.346
			c0.435,2.523,0,4.299-1.334,5.42c-3.457,2.912-12.456,1.191-19.725-1.391c-7.683-2.729-18.645-7.598-28.36-15.477
			C382.506,429.025,388.74,428.463,393.689,428.455z M480.003,433.891c-3.566-0.064-6.968-2.416-10.112-6.986
			c-0.656-0.959-1.091-2.17-1.091-3.701c0-5.086,4.795-13.686,22.106-28.16c4.127-3.453,11.229-7.438,19.488-10.744
			c0.074,1.111,0.136,2.227,0.136,3.354c0,9.516-2.745,19.547-9.742,28.979C494.54,425.049,487.264,434.023,480.003,433.891z
			 M435.583,421.25c-6.102-1.188-11.461-8.559-14.196-14.51c-2.271-4.943-3.381-10.936-3.381-17.383
			c0-5.279,0.788-10.861,2.245-16.42c11.073,8.244,20.195,20.736,24.101,30.57c1.43,3.6,2.147,6.764,2.147,9.305
			c0,2.311-0.596,4.098-1.788,5.221C441.792,420.781,438.722,421.863,435.583,421.25z"/>
	</g>
	<path d="M458.959,434.121c-9.047,0.584-15.819,7.711-16.966,15.697c-0.743,5.168,11.756,14.994,16.658,15.861
		C474.076,468.412,468.009,433.529,458.959,434.121z"/>
</g>
</svg>
