<?xml version="1.0" encoding="utf-8"?>
<!-- Generator: Adobe Illustrator 13.0.0, SVG Export Plug-In . SVG Version: 6.00 Build 14948)  -->
<!DOCTYPE svg PUBLIC "-//W3C//DTD SVG 1.1//EN" "http://www.w3.org/Graphics/SVG/1.1/DTD/svg11.dtd">
<svg version="1.1" id="Layer_1" xmlns="http://www.w3.org/2000/svg" xmlns:xlink="http://www.w3.org/1999/xlink" x="0px" y="0px"
	 width="543.158px" height="724.149px" fill="#9dcaf3" viewBox="52 52 543.158 724.149" enable-background="new 52 52 543.158 724.149"
	 xml:space="preserve">
<g>
	<g>
		<path d="M45.948,3.571l0.002,0.002l1.405-0.26c37.365,202.557,70.803,394.667,72.398,602.244l0,0l-1.431,0.011
			C116.73,398.14,83.313,206.124,45.948,3.571L45.948,3.571z"/>
		<path d="M177.587,573.981c0-73.366,3.955-151.335,3.955-228.599l0,0c0.004-121.387-9.766-241.024-59.848-338.322l0,0h0.002
			l1.27-0.656c50.258,97.667,60.002,217.518,60.004,338.978l0,0c0,77.312-3.954,155.282-3.952,228.599l0,0
			c0,33.59,0.83,66.202,3.25,97.33l0,0l-1.427,0.109C178.418,640.244,177.587,607.598,177.587,573.981L177.587,573.981z"/>
		<path d="M249.033,571.67C249.038,378.605,301.258,187.503,342.079,0l0,0l1.396,0.303
			c-40.835,187.553-93.014,378.561-93.011,571.367l0,0c0,35.888,1.807,71.838,5.833,107.842l0,0l-1.422,0.159
			C250.842,643.607,249.033,607.605,249.033,571.67L249.033,571.67z"/>
		<path d="M407.88,10.158l1.404-0.27c40.687,211.735,37.71,420.652,54.301,636.749l0,0l-1.428,0.108
			C445.566,430.563,448.534,221.705,407.88,10.158L407.88,10.158z"/>
		<path d="M234.2,513.11c0.002-126.659,19.177-253.652,19.174-379.216l0,0c0-37.567-1.715-75.005-6.171-112.271l0,0h0.002
			l1.417-0.169c4.465,37.333,6.182,74.83,6.182,112.439l0,0c-0.002,125.71-19.179,252.701-19.177,379.216l0,0
			c0,38.524,1.777,77.005,6.415,115.396l0,0l-1.42,0.171C235.977,590.218,234.2,551.68,234.2,513.11L234.2,513.11z"/>
		<path d="M483.608,513.815c0.005-160.669,31.202-325.164,31.197-482.586l0,0c0-1.038-0.002-2.073-0.004-3.108l0,0h0.002
			l1.429-0.004c0.002,1.038,0.004,2.075,0.004,3.112l0,0c-0.004,157.606-31.201,322.101-31.196,482.586l0,0
			c0,69.973,5.927,139.182,22.944,206.732l0,0l-1.388,0.346C489.542,653.198,483.608,583.87,483.608,513.815L483.608,513.815z"/>
		<path d="M284.31,686.239c0.012-234.291,85.548-448.378,98.881-677.903l0,0h0.002l1.426,0.082
			c-13.378,229.832-98.893,443.887-98.879,677.821l0,0c0,5.991,0.057,11.995,0.172,18.019l0,0l-1.43,0.027
			C284.365,698.254,284.31,692.239,284.31,686.239L284.31,686.239z"/>
		<path d="M363.474,580.695c30.78-113.874,35.149-247.974,35.147-376.964l0,0c0-50.97-0.679-101.145-0.679-148.959l0,0
			c0-7.298,0.016-14.54,0.054-21.721l0,0l1.431,0.006c-0.038,7.179-0.055,14.419-0.055,21.715l0,0
			c0,47.802,0.68,97.977,0.68,148.959l0,0c-0.002,129.024-4.356,263.222-35.196,377.341l0,0L363.474,580.695L363.474,580.695z"/>
		<path d="M181.405,723.873c27.036-138.084,48.176-267.401,48.174-398.109l0,0c0-102.671-13.039-206.198-46.512-315.532l0,0h0.002
			l1.367-0.419c33.516,109.476,46.574,213.162,46.574,315.951l0,0c0,130.861-21.163,260.274-48.201,398.386l0,0L181.405,723.873
			L181.405,723.873z"/>
		<path d="M87.07,640.043c2.925-31.825,4.599-67.667,4.599-105.604l0,0C91.682,392.982,68.349,222.37,0,122.297l0,0l1.18-0.807
			c68.646,100.574,91.906,271.33,91.919,412.95l0,0c0,37.977-1.676,73.86-4.605,105.736l0,0L87.07,640.043L87.07,640.043z"/>
	</g>
	<path d="M290.75,232.754c-4.186-0.042-8.418-3.076-8.506-6.911l0,0c-0.004-1.233,0.502-2.502,1.562-3.607l0,0
		c5.178-5.392,6.955-8.521,6.877-9.583l0,0c-0.027-0.373-0.076-0.416-0.335-0.585l0,0c-0.269-0.153-0.823-0.261-1.532-0.255l0,0
		c-2.624-0.014-6.936,1.258-9.422,1.277l0,0c-0.617-0.011-1.162-0.054-1.675-0.4l0,0c-0.979-0.745-2.017-2.517-3.001-5.081l0,0
		c-0.954-2.55-1.727-5.826-1.727-9.33l0,0c0-1.078,0.072-2.182,0.24-3.285l0,0c0.133-0.871,0.299-1.507,0.582-2.014l0,0
		c0.256-0.503,0.809-0.917,1.396-0.898l0,0c0.886,0.042,1.47,0.563,2.193,1.157l0,0c0.709,0.612,1.492,1.384,2.377,2.144l0,0
		c1.773,1.529,3.905,2.947,6.393,2.941l0,0c1.377-0.002,2.906-0.416,4.652-1.554l0,0c1.514-0.863,4.225-6.573,4.14-9.322l0,0
		c0.002-0.47-0.075-0.836-0.174-1.037l0,0c-0.638-1.256-1.32-1.515-2.472-1.789l0,0c-1.129-0.25-2.637-0.323-4.205-1.167l0,0
		c-3.703-2.039-6.445-6.54-6.474-10.642l0,0c-0.046-3.041,1.724-5.938,5.654-6.847l0,0c0.418-0.101,0.834-0.149,1.241-0.149l0,0
		c2.331,0.019,4.252,1.455,5.92,2.755l0,0c1.639,1.337,3.153,2.498,3.948,2.434l0,0c0.512,0.004,1.157-0.335,1.927-2.308l0,0
		c1.337-3.545,1.873-6.066,1.869-7.745l0,0c-0.006-1.436-0.366-2.193-0.849-2.634l0,0c-0.482-0.445-1.233-0.66-2.231-0.66l0,0
		c-3.031-0.027-7.439,2.028-9.928,2.074l0,0c-0.3,0-0.588-0.029-0.877-0.125l0,0c-3.352-1.109-4.74-3.907-4.709-6.589l0,0
		c0.035-3.361,1.873-6.766,4.574-7.722l0,0c0.982-0.316,2.272-0.346,3.723-0.352l0,0c0.883,0,1.812,0.017,2.721,0.017l0,0
		c1.543,0.004,3.035-0.06,4.041-0.321l0,0c1.054-0.309,1.314-0.586,1.318-1.049l0,0c0.019-0.459-0.383-1.463-1.585-2.885l0,0
		c-1.405-1.689-3.264-1.892-5.3-2.285l0,0c-1.977-0.348-4.243-1.128-5.197-4.08l0,0c-0.224-0.664-0.334-1.335-0.334-1.993l0,0
		c-0.021-3.125,2.527-5.826,6.353-5.89l0,0c0.046,0,0.095-0.002,0.149-0.002l0,0c3.904,0.07,6.315,3.64,8.538,6.03l0,0
		c2.143-1.694,3.077-3.971,3.088-6.51l0,0c0-1.145-0.198-2.339-0.581-3.533l0,0c-0.795-2.475-2.572-3.864-4.576-5.207l0,0
		c-1.979-1.337-4.188-2.562-5.387-4.882l0,0c-0.523-1.026-0.795-2.124-0.795-3.206l0,0c-0.015-2.525,1.521-4.957,4.449-6.101l0,0
		c0.958-0.381,1.823-0.559,2.616-0.559l0,0c2.056,0.002,3.421,1.182,4.615,2.246l0,0c1.217,1.091,2.322,2.101,3.922,2.397l0,0
		c0.507,0.093,0.973,0.139,1.397,0.136l0,0c2.769-0.056,3.893-1.68,3.979-4.746l0,0c0-0.828-0.109-1.747-0.322-2.724l0,0
		c-0.456-2.02-1.196-2.956-2.091-3.485l0,0c-0.904-0.534-2.125-0.662-3.558-0.66l0,0c-0.768,0-1.588,0.033-2.434,0.033l0,0
		c-1.952-0.002-4.096-0.172-6.035-1.459l0,0c-1.706-1.256-2.337-4.334-2.393-7.484l0,0c0.004-1.833,0.275-3.669,0.956-5.137l0,0
		c0.656-1.453,1.89-2.628,3.615-2.62l0,0c1.479,0.01,3.111,0.791,5.042,2.463l0,0c1.608,1.453,3.688,3.735,5.545,3.671l0,0
		c0.734-0.006,1.521-0.286,2.467-1.211l0,0c0.693-0.702,0.941-1.43,0.95-2.306l0,0c0.063-3.057-3.768-7.43-5.23-9.946l0,0
		c-2.021-3.63-2.894-5.771-2.916-7.318l0,0c-0.021-0.793,0.321-1.54,0.93-1.915l0,0c0.592-0.375,1.258-0.443,1.962-0.449l0,0
		c1.542,0.008,3.438,0.406,5.224,0.402l0,0c1.577-0.002,2.97-0.298,3.968-1.263l0,0c0.834-0.82,1.109-1.683,1.117-2.742l0,0
		c0.05-2.75-2.283-6.341-2.339-9.504l0,0c-0.06-2.458,1.788-4.483,6.251-5.052l0,0c0.437-0.064,0.902-0.095,1.391-0.095l0,0
		c3.972,0.049,9.593,1.912,11.074,5.942l0,0c0.229,0.672,0.333,1.312,0.333,1.917l0,0c-0.091,3.386-2.926,5.211-3.495,7.653l0,0
		c-0.392,1.43-0.561,2.513-0.559,3.28l0,0c0.008,0.957,0.229,1.345,0.501,1.569l0,0c0.274,0.234,0.819,0.383,1.646,0.379l0,0
		c1.81,0.01,4.645-0.667,7.778-0.67l0,0c1.13,0,2.302,0.089,3.493,0.337l0,0c0.774,0.166,1.379,0.392,1.851,0.758l0,0
		c0.474,0.358,0.774,0.941,0.762,1.513l0,0c-0.074,1.476-1.273,2.672-2.862,4.168l0,0c-1.61,1.463-3.726,3.083-5.857,4.75l0,0
		c-3.556,2.727-7.119,5.766-8.34,7.96l0,0c2.015-0.499,3.881-0.729,5.581-0.729l0,0c6.449,0.008,10.628,3.43,10.638,7.931l0,0
		c-0.004,2.997-1.848,6.217-5.644,8.926l0,0c-0.801,0.575-1.699,0.822-2.577,0.817l0,0c-1.992-0.019-3.887-1.116-5.693-2.119l0,0
		c-1.79-1.024-3.512-1.948-4.71-1.925l0,0c-0.242,0-0.464,0.033-0.673,0.102l0,0c-4.263,1.267-5.806,7.149-6.088,11.456l0,0
		c0.537,0.483,1.284,0.692,2.281,0.697l0,0c3.14,0.031,7.708-2.293,10.458-2.345l0,0c0.495,0,0.985,0.079,1.424,0.352l0,0
		c1.636,1.031,2.257,2.829,2.246,4.624l0,0c-0.039,3.363-1.897,7.083-4.079,8.647l0,0c-0.42,0.294-0.915,0.422-1.387,0.42l0,0
		c-1.732-0.049-3.357-1.354-5.02-2.533l0,0c-1.607-1.212-3.271-2.301-4.021-2.245l0,0c-0.129,0-0.222,0.022-0.303,0.06l0,0
		c-2.078,0.87-4.928,4.578-4.902,9.639l0,0c0,0.702,0.053,1.43,0.169,2.182l0,0c0.678,0.796,1.305,1.027,2.074,1.043l0,0
		c1.366,0.022,3.239-1.029,5.135-2.188l0,0c1.914-1.134,3.844-2.376,5.854-2.403l0,0c0.593-0.002,1.194,0.125,1.754,0.414l0,0
		c2.427,1.24,3.367,3.711,3.351,6.211l0,0c-0.075,4.694-2.867,10.013-6.263,11.106l0,0c-0.17,0.045-0.327,0.058-0.482,0.058l0,0
		c-1.352-0.033-3.481-0.964-5.981-1.865l0,0c-2.452-0.909-5.149-1.786-6.888-1.773l0,0c-0.725-0.002-1.233,0.149-1.511,0.376l0,0
		c-0.271,0.226-0.464,0.544-0.474,1.296l0,0c-0.007,1.047,0.486,2.811,1.759,5.346l0,0c0.525,0.973,0.962,1.124,1.722,1.159l0,0
		c1.482,0.047,3.744-1.335,5.932-1.381l0,0c0.514-0.002,1.041,0.087,1.538,0.327l0,0c2.897,1.438,4.56,5.278,4.59,8.624l0,0
		c-0.002,1.668-0.437,3.278-1.566,4.384l0,0c-0.331,0.269-1.742,2.368-4.116,2.391l0,0c-1.892-0.011-3.938-1.366-6.104-5.092l0,0
		c-0.397-0.637-0.708-0.766-1.152-0.784l0,0c-1.096-0.081-3.246,1.658-4.852,4.021l0,0c-1.647,2.324-2.869,5.22-2.85,6.946l0,0
		c0,0.383,0.058,0.697,0.154,0.931l0,0c0.147,0.397,0.582,0.606,1.632,0.623l0,0c1.558,0.01,3.818-0.596,5.658-0.606l0,0
		c0.751,0.006,1.476,0.093,2.103,0.507l0,0c0.642,0.41,1.012,1.201,0.995,2.078l0,0c-0.015,1.389-0.679,3.198-2.188,5.965l0,0
		c-1.18,2.071-3.648,3.032-6.163,3.912l0,0c-2.527,0.859-5.192,1.606-6.771,2.729l0,0c-1.058,0.764-1.601,1.542-1.612,2.72l0,0
		c0,0.114,0.004,0.221,0.017,0.341l0,0c0.084,0.729,0.413,1.111,1.182,1.515l0,0c0.764,0.383,1.925,0.627,3.236,0.805l0,0
		c2.635,0.376,5.835,0.48,8.182,1.722l0,0c1.575,0.812,2.748,2.354,2.718,4.583l0,0c0,1.207-0.303,2.604-0.944,4.27l0,0
		c-1.415,3.804-4.329,4.831-7.109,4.774l0,0c-2.252-0.006-4.56-0.513-6.509-0.509l0,0c-2.063,0.035-3.521,0.447-4.574,2.419l0,0
		c-0.244,0.47-0.355,0.958-0.355,1.442l0,0c0.01,1.662,1.302,3.239,3.419,3.245l0,0c0.233-0.002,0.479-0.021,0.732-0.06l0,0
		c0.475-0.077,0.928-0.116,1.357-0.116l0,0c1.985-0.015,3.504,0.851,4.4,2.144l0,0c0.902,1.285,1.248,2.918,1.252,4.56l0,0
		c-0.004,1.873-0.457,3.775-1.225,5.275l0,0c-0.764,1.47-1.875,2.682-3.434,2.713l0,0c-0.826,0.002-1.64-0.396-2.35-1.111l0,0
		c-0.701-0.743-2.785-1.494-4.592-1.474l0,0c-0.942-0.002-1.805,0.188-2.379,0.546l0,0c-0.57,0.371-0.902,0.822-0.975,1.666l0,0
		c-0.424,6.811-4.152,9.695-7.935,9.695l0,0C290.82,232.754,290.785,232.754,290.75,232.754L290.75,232.754z M291.058,210.745
		c0.662,0.325,1.15,1.078,1.125,1.908l0,0c-0.078,2.132-2.082,5.071-7.291,10.615l0,0c-0.836,0.888-1.146,1.743-1.148,2.575l0,0
		c-0.008,1.285,0.81,2.649,2.148,3.692l0,0c1.326,1.039,3.129,1.722,4.857,1.718l0,0c3.051-0.054,6.014-1.896,6.542-8.301l0,0l0,0
		c0.079-1.28,0.762-2.281,1.687-2.835l0,0c0.923-0.563,2.037-0.766,3.165-0.768l0,0c2.177,0.021,4.425,0.725,5.654,1.913l0,0
		c0.527,0.523,0.945,0.67,1.287,0.672l0,0c0.612,0.031,1.452-0.627,2.101-1.902l0,0c0.644-1.246,1.06-2.964,1.058-4.588l0,0
		c-0.07-2.918-1.113-5.183-4.152-5.203l0,0c-0.341,0-0.714,0.031-1.121,0.097l0,0c-0.333,0.052-0.654,0.077-0.969,0.077l0,0
		c-2.937-0.004-4.915-2.291-4.92-4.744l0,0c0-0.718,0.17-1.453,0.526-2.134l0,0c1.297-2.566,3.645-3.262,5.904-3.229l0,0
		c2.184,0.006,4.485,0.515,6.509,0.509l0,0c2.531-0.056,4.411-0.594,5.71-3.814l0,0c0.599-1.55,0.847-2.78,0.845-3.729l0,0
		c-0.031-2.525-1.575-3.386-4.133-4.034l0,0c-2.521-0.59-5.688-0.604-8.047-1.298l0,0c-1.544-0.433-2.98-1.385-3.132-3.148l0,0
		c-0.019-0.172-0.024-0.335-0.024-0.486l0,0c-0.011-1.739,0.958-3.059,2.25-3.947l0,0c1.295-0.904,2.94-1.513,4.628-2.084l0,0
		c3.388-1.099,6.901-2.182,7.855-4.055l0,0c1.472-2.66,2.015-4.375,2-5.24l0,0c-0.017-0.559-0.137-0.687-0.329-0.834l0,0
		c-0.203-0.145-0.652-0.255-1.267-0.25l0,0c-1.527-0.01-3.792,0.596-5.658,0.604l0,0c-1.17,0.016-2.49-0.28-3.021-1.555l0,0
		c-0.19-0.465-0.265-0.973-0.265-1.498l0,0c0.021-2.318,1.368-5.282,3.119-7.807l0,0c1.792-2.483,3.864-4.582,6.081-4.661l0,0
		c0.966-0.019,1.901,0.551,2.448,1.532l0,0c2.077,3.556,3.739,4.356,4.808,4.346l0,0c1.413,0.022,2.55-1.42,3.073-1.973l0,0
		c0.721-0.687,1.111-1.885,1.109-3.303l0,0c0.029-2.85-1.633-6.323-3.738-7.271l0,0c-0.258-0.124-0.546-0.18-0.89-0.182l0,0
		c-1.537-0.045-3.783,1.335-5.932,1.383l0,0c-1.165,0.035-2.407-0.588-3.064-1.991l0,0c-1.312-2.641-1.908-4.541-1.917-6.014l0,0
		c-0.008-1.039,0.352-1.931,1.039-2.469l0,0c0.683-0.538,1.542-0.702,2.446-0.704l0,0c2.173,0.01,4.903,0.954,7.405,1.865l0,0
		c2.452,0.921,4.802,1.811,5.464,1.775l0,0c0.062,0,0.081-0.004,0.076-0.004l0,0c2.228-0.509,5.245-5.582,5.17-9.661l0,0
		c-0.017-2.189-0.734-3.945-2.537-4.878l0,0c-0.337-0.172-0.677-0.247-1.068-0.247l0,0c-1.324-0.027-3.185,1.027-5.08,2.188l0,0
		c-1.915,1.134-3.868,2.378-5.909,2.401l0,0c-1.226,0.017-2.459-0.546-3.378-1.768l0,0l-0.115-0.151l-0.029-0.182
		c-0.153-0.904-0.222-1.78-0.222-2.622l0,0c0.027-5.617,2.99-9.756,5.795-11.011l0,0c0.296-0.134,0.61-0.188,0.911-0.186l0,0
		c1.678,0.056,3.243,1.357,4.907,2.533l0,0c1.605,1.208,3.288,2.293,4.133,2.243l0,0c0.228-0.002,0.379-0.047,0.534-0.151l0,0
		c1.609-1.066,3.469-4.644,3.431-7.416l0,0c-0.01-1.504-0.465-2.668-1.546-3.355l0,0c-0.089-0.058-0.292-0.122-0.623-0.12l0,0
		c-2.038-0.052-6.788,2.314-10.458,2.345l0,0c-1.351,0.006-2.69-0.35-3.615-1.418l0,0l-0.201-0.231l0.02-0.304
		c0.283-4.464,1.626-11.29,7.146-13.128l0,0c0.37-0.122,0.751-0.174,1.13-0.174l0,0c1.856,0.025,3.645,1.122,5.447,2.119l0,0
		c1.786,1.019,3.565,1.943,4.956,1.925l0,0c0.619-0.004,1.159-0.151,1.706-0.536l0,0c3.539-2.531,5.019-5.354,5.015-7.707l0,0
		c0-3.442-3.142-6.393-9.138-6.431l0,0c-1.916,0-4.11,0.319-6.542,1.045l0,0l-1.134,0.335l0.178-1.165
		c0.444-2.533,3.094-4.99,6.159-7.585l0,0c3.077-2.558,6.64-5.122,8.947-7.221l0,0c1.561-1.366,2.444-2.666,2.369-3.059l0,0
		c-0.012-0.139-0.012-0.176-0.19-0.335l0,0c-0.182-0.147-0.585-0.335-1.229-0.466l0,0c-1.067-0.224-2.134-0.306-3.185-0.306l0,0
		c-2.933-0.004-5.658,0.66-7.778,0.67l0,0c-0.964-0.004-1.868-0.135-2.593-0.714l0,0c-0.732-0.592-1.063-1.552-1.056-2.734l0,0
		c0.002-0.979,0.203-2.167,0.61-3.673l0,0c0.938-3.131,3.533-4.899,3.444-7.26l0,0c-0.002-0.435-0.074-0.902-0.253-1.433l0,0
		c-0.886-2.918-6.117-4.975-9.654-4.925l0,0c-0.423,0-0.817,0.027-1.172,0.079l0,0c-4.247,0.712-4.911,1.918-4.969,3.568l0,0
		c-0.057,2.442,2.291,6.093,2.339,9.504l0,0c0.01,1.345-0.429,2.724-1.577,3.823l0,0c-1.418,1.359-3.271,1.683-5.009,1.68l0,0
		c-1.98-0.004-3.938-0.405-5.224-0.399l0,0c-0.582-0.006-0.989,0.093-1.146,0.207l0,0c-0.142,0.112-0.226,0.17-0.244,0.656l0,0
		c-0.025,0.931,0.724,3.053,2.724,6.583l0,0c1.233,2.297,5.357,6.629,5.422,10.681l0,0c0.009,1.196-0.414,2.403-1.395,3.37l0,0
		c-1.133,1.13-2.352,1.651-3.522,1.646l0,0c-2.927-0.064-5.023-2.786-6.528-4.038l0,0c-1.788-1.559-3.156-2.103-4.059-2.094l0,0
		c-1.008,0.01-1.685,0.582-2.256,1.755l0,0c-0.546,1.159-0.819,2.825-0.815,4.501l0,0c-0.056,2.866,0.917,5.822,1.723,6.236l0,0
		c1.541,1.029,3.327,1.207,5.205,1.207l0,0c0.809,0,1.626-0.031,2.434-0.031l0,0c1.498,0.002,2.995,0.1,4.313,0.863l0,0
		c1.324,0.766,2.31,2.196,2.8,4.458l0,0c0.234,1.068,0.356,2.09,0.356,3.046l0,0c0,1.745-0.404,3.297-1.333,4.446l0,0
		c-0.923,1.155-2.378,1.811-4.146,1.8l0,0c-0.526,0-1.083-0.054-1.673-0.163l0,0c-2.104-0.396-3.458-1.699-4.644-2.751l0,0
		c-1.209-1.076-2.192-1.867-3.618-1.865l0,0c-0.569,0-1.242,0.126-2.062,0.454l0,0c-2.434,0.983-3.488,2.773-3.504,4.706l0,0
		c0,0.832,0.209,1.695,0.632,2.525l0,0c0.902,1.803,2.822,2.95,4.884,4.317l0,0c2.039,1.362,4.214,3.011,5.172,5.996l0,0
		c0.423,1.327,0.65,2.672,0.652,3.99l0,0c0.011,3.137-1.333,6.138-4.249,8.123l0,0l-0.523,0.358l-0.439-0.454
		c-2.473-2.618-4.909-6.124-7.915-6.047l0,0c-0.029,0-0.062,0-0.105,0.002l0,0c-3.159,0.104-4.875,2.09-4.897,4.39l0,0
		c0.002,0.491,0.083,1,0.257,1.513l0,0c0.824,2.322,2.117,2.662,4.064,3.086l0,0c1.89,0.378,4.323,0.6,6.163,2.796l0,0
		c1.277,1.548,1.915,2.722,1.931,3.848l0,0c0.005,1.442-1.223,2.225-2.443,2.502l0,0c-1.27,0.321-2.83,0.366-4.414,0.369l0,0
		c-0.928,0-1.859-0.019-2.721-0.017l0,0c-1.4-0.006-2.646,0.066-3.253,0.275l0,0c-1.768,0.52-3.579,3.492-3.544,6.298l0,0
		c0.031,2.237,0.965,4.222,3.687,5.167l0,0c0.066,0.025,0.207,0.048,0.399,0.048l0,0c1.807,0.045,6.416-2.051,9.928-2.076l0,0
		c1.192,0,2.357,0.25,3.241,1.051l0,0c0.886,0.803,1.344,2.067,1.339,3.744l0,0c-0.004,1.985-0.598,4.632-1.966,8.275l0,0
		c-0.778,2.123-1.886,3.272-3.33,3.276l0,0c-1.794-0.064-3.226-1.499-4.878-2.754l0,0c-1.627-1.294-3.344-2.451-4.99-2.432l0,0
		c-0.291,0-0.586,0.033-0.888,0.105l0,0c-3.345,0.855-4.462,2.869-4.507,5.39l0,0c-0.029,3.421,2.52,7.635,5.688,9.324l0,0
		c1.227,0.668,2.498,0.747,3.803,1.018l0,0c1.29,0.247,2.707,0.877,3.511,2.606l0,0c0.24,0.509,0.318,1.074,0.32,1.687l0,0
		c-0.085,3.489-2.524,8.953-4.817,10.578l0,0c-1.941,1.269-3.783,1.8-5.473,1.798l0,0c-4.623-0.031-7.777-3.785-9.748-5.449l0,0
		c-0.592-0.54-1.107-0.797-1.201-0.798l0,0c-0.012,0.01-0.053,0.047-0.106,0.144l0,0c-0.128,0.218-0.29,0.716-0.403,1.495l0,0
		c-0.154,1.024-0.222,2.051-0.222,3.063l0,0c-0.003,3.282,0.729,6.401,1.631,8.804l0,0c0.869,2.386,2.038,4.123,2.469,4.386l0,0
		c0.002,0.022,0.317,0.13,0.802,0.12l0,0c2.07,0.016,6.448-1.265,9.422-1.277l0,0C289.65,210.317,290.404,210.404,291.058,210.745
		L291.058,210.745z"/>
	<path d="M168.356,222.834c-0.11-0.234-0.149-0.448-0.186-0.693l0,0c-0.065-0.48-0.077-1.081-0.077-1.808l0,0
		c0-0.837,0.02-1.837,0.018-2.929l0,0c0.004-2.88-0.148-6.408-1.12-9.104l0,0c-1.014-2.709-2.574-4.471-5.768-4.501l0,0
		c-0.631,0-1.334,0.075-2.114,0.242l0,0c-0.299,0.063-0.597,0.094-0.888,0.094l0,0c-3.089-0.063-4.981-3.214-4.985-6.344l0,0
		c0-1.751,0.601-3.595,2.014-5.004l0,0c0.67-0.676,1.564-0.943,2.436-0.937l0,0c1.754,0.017,3.627,0.894,5.43,1.709l0,0
		c1.776,0.831,3.509,1.592,4.458,1.57l0,0c0.703-0.082,0.89-0.08,1.149-1.3l0,0c0.201-1.486,0.295-2.811,0.293-3.983l0,0
		c-0.008-4.322-1.22-6.572-2.79-7.829l0,0c-1.577-1.263-3.695-1.581-5.66-1.576l0,0c-1.222,0-2.364,0.118-3.269,0.171l0,0
		c-4.143,0.153-7.823,4.255-12.22,4.358l0,0c-1.721,0.008-3.491-0.739-5.185-2.534l0,0c-1.782-1.863-2.564-4.014-2.56-6.098l0,0
		c0.037-4.976,4.202-9.482,8.888-10.366l0,0c0.369-0.069,0.739-0.1,1.106-0.1l0,0c2.412,0.014,4.68,1.271,6.829,2.436l0,0
		c2.138,1.187,4.175,2.273,5.782,2.252l0,0c1.12-0.016,2.079-0.416,3.13-1.821l0,0c0.603-0.817,0.931-2.179,0.927-3.888l0,0
		c0.008-3.892-1.647-9.409-3.851-13.971l0,0c-2.141-4.581-5.082-8.188-6.682-8.385l0,0c-0.438-0.083-0.868-0.125-1.292-0.125l0,0
		c-4.411-0.092-8.566,4.446-13.715,4.544l0,0c-1.525,0.002-3.126-0.452-4.729-1.554l0,0c-2.849-1.965-4.336-5.462-4.342-8.747l0,0
		c-0.012-3.047,1.342-6.065,4.351-7.271l0,0c0.644-0.259,1.303-0.373,1.957-0.373l0,0c2.395,0.02,4.623,1.421,6.859,2.71l0,0
		c2.228,1.312,4.448,2.52,6.505,2.505l0,0c1.108-0.002,2.189-0.314,3.354-1.177l0,0c2.601-1.958,3.485-3.854,3.493-5.705l0,0
		c0.018-2.46-1.709-5.106-4.045-7.43l0,0c-1.24-1.224-2.497-1.613-4.008-1.625l0,0c-3.403-0.037-7.857,2.362-13.006,2.387l0,0
		c-1.825-0.02-3.363-1.307-4.485-2.955l0,0c-1.118-1.668-1.847-3.784-1.854-5.816l0,0c-0.008-1.864,0.66-3.735,2.344-4.852l0,0
		c2.855-1.904,5.182-2.67,7.153-2.672l0,0c2.917-0.002,4.827,1.705,6.198,3.236l0,0c1.348,1.59,2.452,2.863,2.969,2.739l0,0
		c0.228,0.002,0.601-0.123,1.188-0.754l0,0c1.831-1.965,2.841-5.835,2.829-9.592l0,0c0.002-2.575-0.46-5.098-1.312-6.896l0,0
		c-0.872-1.818-2.004-2.792-3.401-2.79l0,0c-1.511-0.022-3.792,1.226-6.603,4.794l0,0c-0.814,1.047-1.931,1.583-3.065,1.572l0,0
		c-2.566-0.051-5.017-2.257-7-5.014l0,0c-1.959-2.786-3.397-6.208-3.41-9.12l0,0c-0.002-1.432,0.367-2.789,1.31-3.789l0,0
		c0.943-1.004,2.391-1.548,4.271-1.543l0,0c2.574,0.006,6.042,0.963,10.76,3.226l0,0c0.475,0.23,0.851,0.312,1.13,0.312l0,0
		c0.554-0.019,0.872-0.249,1.236-0.99l0,0c0.334-0.729,0.52-1.896,0.518-3.249l0,0c0.002-2.617-0.656-5.939-1.662-8.534l0,0
		c-0.963-2.646-2.47-4.35-3.218-4.216l0,0c-0.25,0.002-0.54,0.098-0.941,0.493l0,0c-3.811,3.798-7.141,5.584-9.922,5.603l0,0
		c-1.774,0.014-3.297-0.811-4.257-2.226l0,0c-0.967-1.409-1.436-3.342-1.438-5.678l0,0c0.008-5.501,2.624-13.342,8.697-22.183l0,0
		c2.059-2.943,3.664-4.577,5.603-4.64l0,0c1.801,0.045,3.033,1.521,4.228,3.774l0,0c1.206,2.293,2.412,5.583,3.848,9.821l0,0
		c0.884,2.619,2.829,5.854,4.965,8.375l0,0c2.106,2.546,4.54,4.297,5.821,4.232l0,0c0.568-0.024,0.926-0.191,1.342-0.939l0,0
		c2.864-5.609,6.862-7.755,10.46-7.741l0,0c4.403,0.037,8.112,3.012,8.609,6.254l0,0c0.065,0.493,0.098,0.967,0.098,1.422l0,0
		c-0.002,5.138-4.136,7.521-8.31,8.761l0,0c-4.193,1.257-8.874,1.699-10.36,2.634l0,0c-0.424,0.267-0.452,0.395-0.454,0.501l0,0
		c-0.118,0.299,0.943,1.78,4.122,3.814l0,0c0.564,0.373,1.171,0.523,1.874,0.525l0,0c1.434,0.01,3.224-0.717,5.004-1.503l0,0
		c1.792-0.774,3.556-1.613,5.261-1.629l0,0c0.261,0,0.521,0.022,0.776,0.071l0,0c5.244,1.022,9.423,4.577,9.489,8.607l0,0
		c0.006,1.581-0.719,3.163-2.208,4.466l0,0c-1.564,1.383-3.38,1.927-5.191,1.921l0,0c-2.875-0.01-5.78-1.267-8.442-2.469l0,0
		c-2.647-1.214-5.1-2.354-6.686-2.332l0,0c-0.945,0.027-1.505,0.273-2.053,1.167l0,0c-0.536,0.909-0.912,2.597-0.906,5.269l0,0
		c-0.004,2.674,0.513,4.254,1.234,5.108l0,0c0.715,0.849,1.694,1.171,3.085,1.179l0,0c3.397,0.031,8.495-2.238,13.112-2.261l0,0
		c0.556,0,1.108,0.035,1.65,0.114l0,0c5.22,0.664,7.006,3.868,6.917,7.069l0,0c0,0.336-0.016,0.67-0.043,1.008l0,0
		c-0.195,2.318-0.772,3.949-1.731,5.039l0,0c-0.959,1.094-2.283,1.521-3.613,1.514l0,0c-2.283-0.012-4.759-1.096-7.03-2.121l0,0
		c-2.24-1.042-4.358-2.02-5.316-1.985l0,0c-0.326,0.006-0.417,0.069-0.487,0.145l0,0c-0.075,0.077-0.195,0.322-0.195,0.868l0,0
		c-0.002,0.642,0.169,1.635,0.579,2.996l0,0c0.737,2.477,1.658,4.725,2.757,6.29l0,0c1.114,1.578,2.31,2.407,3.699,2.407l0,0
		c1.322,0.008,3.061-0.782,5.212-2.933l0,0c2.165-2.157,3.973-3.15,5.633-3.165l0,0c2.143,0.012,3.466,1.727,4.183,3.678l0,0
		c0.744,1.985,1.021,4.417,1.024,6.552l0,0c-0.01,1.898-0.204,3.505-0.619,4.499l0,0c-1.772,4.163-4.362,5.819-7.044,5.792l0,0
		c-2.622-0.014-5.151-1.405-7.363-2.717l0,0c-2.175-1.332-4.185-2.564-5.004-2.503l0,0c-0.308,0.026-0.353,0.035-0.548,0.332l0,0
		c-0.181,0.31-0.346,1.008-0.34,2.126l0,0c0,0.552,0.035,1.206,0.112,1.968l0,0c0.421,4.273,1.313,6.929,2.419,8.436l0,0
		c1.114,1.495,2.358,1.965,3.963,1.984l0,0c4.079,0.059,9.851-3.762,15.146-3.812l0,0c1.049,0,2.092,0.161,3.092,0.554l0,0
		c3.065,1.22,7.11,4.285,7.163,8.79l0,0c0.002,2.179-1.02,4.562-3.444,6.982l0,0c-2.688,2.692-5.089,3.788-7.256,3.788l0,0
		c-4.452-0.061-7.088-4.375-9.047-6.228l0,0c-0.636-0.646-1.177-0.929-1.369-0.898l0,0c-0.128,0.006-0.293,0.031-0.627,0.462l0,0
		c-0.32,0.424-0.699,1.208-1.083,2.405l0,0c-1.263,3.909-1.823,7.218-1.821,9.876l0,0c0.073,5.666,2.31,8.132,5.756,8.169l0,0
		c2.941,0.016,7.026-1.979,11.375-6.34l0,0c1.22-1.22,2.407-1.849,3.586-1.853l0,0c1.898,0.026,3.137,1.584,3.896,3.452l0,0
		c0.776,1.904,1.157,4.317,1.159,6.66l0,0c-0.014,2.798-0.511,5.477-1.821,7.114l0,0c-2.65,3.25-5.306,4.405-7.744,4.393l0,0
		c-4.083-0.055-7.411-2.955-9.419-2.854l0,0c-0.877,0.031-1.57,0.344-2.432,2.09l0,0c-0.819,1.737-1.548,4.808-2.098,9.743l0,0
		c-0.019,0.161-0.026,0.326-0.026,0.493l0,0c-0.116,4.613,7.287,11.54,11.13,15.627l0,0c1.261,1.444,2.198,2.36,2.297,3.564l0,0
		c0.024,0.399-0.248,0.892-0.625,1.083l0,0c-0.367,0.206-0.744,0.249-1.179,0.253l0,0c-0.998-0.004-2.416-0.3-4.546-0.911l0,0
		c-2.114-0.611-3.886-0.868-5.369-0.868l0,0c-7.92,0.017-8.216,7.104-10.649,9.778l0,0l-0.532-0.532l0.529,0.532
		c-0.179,0.165-0.391,0.371-0.823,0.389l0,0c-0.001,0-0.002,0-0.004,0l0,0C168.748,223.424,168.439,223.045,168.356,222.834
		L168.356,222.834z M168.403,207.795c1.079,3.027,1.206,6.676,1.209,9.609l0,0c0,1.108-0.02,2.114-0.02,2.929l0,0
		c-0.005,0.288-0.001,0.56,0.008,0.802l0,0c1.436-2.643,3.126-9.393,11.105-9.376l0,0c1.658,0,3.564,0.283,5.786,0.927l0,0
		c2.063,0.599,3.436,0.855,4.128,0.85l0,0c0.1,0.002,0.18-0.002,0.243-0.009l0,0c-0.062-0.147-0.179-0.375-0.377-0.639l0,0
		c-0.334-0.47-0.843-1.063-1.462-1.735l0,0c-1.24-1.348-2.923-3.018-4.613-4.837l0,0c-3.364-3.666-6.861-7.835-6.915-11.807l0,0
		c0-0.224,0.013-0.444,0.037-0.662l0,0c0.566-5.01,1.285-8.186,2.232-10.212l0,0c0.904-2.016,2.292-2.979,3.788-2.951l0,0
		c3.012,0.104,6.026,2.908,9.419,2.852l0,0c1.958-0.01,4.09-0.827,6.583-3.843l0,0c0.923-1.088,1.497-3.568,1.481-6.163l0,0
		c0.004-2.175-0.369-4.444-1.045-6.091l0,0c-0.692-1.685-1.607-2.548-2.509-2.521l0,0c-0.601-0.004-1.454,0.344-2.525,1.416l0,0
		c-4.52,4.505-8.839,6.764-12.436,6.78l0,0c-2.159,0.01-4.062-0.88-5.324-2.566l0,0c-1.271-1.681-1.931-4.076-1.933-7.104l0,0
		c0.002-2.866,0.597-6.316,1.896-10.338l0,0c0.414-1.279,0.825-2.188,1.306-2.839l0,0c0.466-0.644,1.114-1.073,1.831-1.067l0,0
		c0.988,0.029,1.692,0.636,2.419,1.328l0,0c0.723,0.711,1.462,1.603,2.277,2.475l0,0c1.631,1.762,3.499,3.34,5.719,3.326l0,0
		c1.633,0,3.656-0.816,6.195-3.35l0,0c2.232-2.24,3.002-4.222,3.004-5.921l0,0c0.053-3.464-3.46-6.334-6.209-7.393l0,0
		c-0.801-0.313-1.646-0.45-2.544-0.45l0,0c-4.625-0.049-10.328,3.753-15.146,3.812l0,0c-1.935,0.018-3.825-0.719-5.175-2.601l0,0
		c-1.356-1.872-2.259-4.764-2.701-9.171l0,0c-0.082-0.798-0.12-1.499-0.12-2.116l0,0c0.004-1.246,0.146-2.15,0.53-2.855l0,0
		c0.366-0.717,1.14-1.13,1.859-1.104l0,0c1.739,0.061,3.572,1.44,5.772,2.717l0,0c2.161,1.299,4.536,2.517,6.595,2.503l0,0
		c2.044-0.026,3.951-1.032,5.668-4.888l0,0c0.263-0.579,0.503-2.147,0.495-3.902l0,0c0.004-1.998-0.277-4.306-0.927-6.024l0,0
		c-0.676-1.756-1.58-2.717-2.78-2.705l0,0c-0.994-0.014-2.542,0.682-4.572,2.723l0,0c-2.292,2.288-4.344,3.367-6.273,3.373l0,0
		c-2.055,0.002-3.692-1.267-4.929-3.045l0,0c-1.25-1.79-2.198-4.159-2.965-6.721l0,0c-0.43-1.44-0.638-2.538-0.64-3.425l0,0
		c0-0.739,0.149-1.375,0.566-1.857l0,0c0.423-0.487,1.047-0.662,1.615-0.656l0,0c1.658,0.035,3.676,1.11,5.937,2.12l0,0
		c2.23,1.026,4.617,1.998,6.409,1.985l0,0c1.053-0.01,1.841-0.285,2.491-1.008l0,0c0.649-0.727,1.181-2.029,1.358-4.165l0,0
		c0.024-0.304,0.039-0.599,0.037-0.886l0,0c-0.088-2.742-0.943-4.821-5.631-5.585l0,0c-0.46-0.067-0.939-0.098-1.434-0.098l0,0
		c-4.165-0.022-9.179,2.23-13.112,2.261l0,0c-1.611,0.008-3.167-0.428-4.236-1.719l0,0c-1.063-1.285-1.581-3.224-1.584-6.069l0,0
		c0.006-2.802,0.356-4.707,1.11-6.022l0,0c0.742-1.332,2.037-1.941,3.351-1.915l0,0c2.195,0.022,4.658,1.281,7.305,2.466l0,0
		c2.631,1.202,5.401,2.342,7.823,2.334l0,0c1.532-0.006,2.911-0.418,4.2-1.546l0,0c1.226-1.092,1.695-2.212,1.701-3.34l0,0
		c0.065-2.866-3.475-6.244-8.273-7.134l0,0c-0.153-0.029-0.315-0.043-0.493-0.043l0,0c-1.171-0.016-2.872,0.709-4.66,1.503l0,0
		c-1.798,0.78-3.703,1.619-5.604,1.629l0,0c-0.927,0.002-1.866-0.22-2.703-0.774l0,0c-3.2-2.187-4.676-3.444-4.794-5.067l0,0
		c0.053-1.285,1.141-1.872,2.263-2.279l0,0c1.181-0.421,2.708-0.721,4.391-1.059l0,0c3.356-0.666,7.312-1.507,9.788-3.348l0,0
		c1.649-1.236,2.668-2.79,2.682-5.209l0,0c0-0.385-0.026-0.792-0.083-1.222l0,0c-0.242-2.208-3.411-4.992-7.122-4.953l0,0
		c-2.992,0.012-6.403,1.67-9.128,6.929l0,0c-0.55,1.126-1.586,1.776-2.674,1.751l0,0c-2.304-0.065-4.688-2.124-6.965-4.764l0,0
		c-2.251-2.664-4.263-5.988-5.241-8.864l0,0c-1.428-4.216-2.629-7.468-3.753-9.604l0,0c-1.134-2.177-2.153-3.015-2.902-2.97l0,0
		c-0.859-0.063-2.409,1.092-4.366,3.99l0,0c-5.959,8.652-8.442,16.301-8.434,21.332l0,0c0.063,4.326,1.633,6.395,4.196,6.405l0,0
		c2.093,0.019,5.204-1.493,8.859-5.163l0,0c0.58-0.59,1.281-0.937,2.004-0.935l0,0c2.191,0.134,3.501,2.442,4.617,5.177l0,0
		c1.073,2.786,1.76,6.216,1.762,9.073l0,0c-0.002,1.482-0.177,2.811-0.65,3.866l0,0c-0.442,1.044-1.375,1.89-2.603,1.872l0,0
		c-0.568,0-1.159-0.159-1.78-0.458l0,0c-4.601-2.214-7.915-3.083-10.11-3.077l0,0c-3.175,0.091-3.979,1.464-4.08,3.831l0,0
		c-0.012,2.409,1.302,5.68,3.132,8.254l0,0c1.809,2.605,4.188,4.432,5.776,4.379l0,0c0.698-0.01,1.283-0.255,1.89-1.002l0,0
		c2.937-3.697,5.464-5.34,7.778-5.363l0,0c2.197,0.002,3.798,1.583,4.757,3.65l0,0c0.982,2.087,1.452,4.784,1.454,7.536l0,0
		c-0.012,4.008-0.983,8.136-3.224,10.607l0,0c-0.715,0.78-1.467,1.236-2.292,1.238l0,0c-1.863-0.125-2.743-1.839-4.083-3.234l0,0
		c-1.32-1.456-2.8-2.737-5.083-2.739l0,0c-1.568-0.002-3.617,0.615-6.322,2.419l0,0c-1.167,0.78-1.666,2.053-1.674,3.603l0,0
		c-0.004,1.664,0.636,3.558,1.597,4.978l0,0c0.961,1.44,2.216,2.317,3.24,2.295l0,0c4.686,0.024,8.994-2.351,13.006-2.387l0,0
		c1.791-0.012,3.568,0.548,5.069,2.065l0,0c2.438,2.452,4.466,5.33,4.485,8.489l0,0c0.008,2.389-1.245,4.79-4.098,6.906l0,0
		c-1.389,1.042-2.843,1.48-4.251,1.477l0,0c-2.631-0.014-5.018-1.414-7.263-2.711l0,0c-2.236-1.32-4.348-2.527-6.102-2.507l0,0
		c-0.48,0.002-0.939,0.082-1.399,0.267l0,0c-2.291,0.915-3.395,3.216-3.407,5.878l0,0c-0.008,2.839,1.338,5.914,3.688,7.509l0,0
		c1.393,0.949,2.646,1.287,3.882,1.292l0,0c4.208,0.098,8.397-4.45,13.715-4.542l0,0c0.518,0,1.043,0.047,1.576,0.151l0,0
		c2.786,0.647,5.418,4.497,7.75,9.208l0,0c2.269,4.729,3.99,10.336,4,14.621l0,0c-0.006,1.88-0.328,3.538-1.216,4.772l0,0
		c-1.22,1.701-2.774,2.454-4.342,2.438l0,0c-2.224-0.021-4.361-1.279-6.503-2.438l0,0c-2.132-1.177-4.254-2.265-6.108-2.252l0,0
		c-0.283,0.002-0.56,0.024-0.835,0.075l0,0c-3.943,0.688-7.696,4.794-7.66,8.892l0,0c0.006,1.717,0.613,3.446,2.146,5.063l0,0
		c1.517,1.578,2.807,2.059,4.1,2.067l0,0c3.393,0.104,7.196-3.994,12.135-4.354l0,0c0.845-0.049,2.039-0.175,3.354-0.175l0,0
		c2.106,0.004,4.587,0.313,6.595,1.902l0,0c2.012,1.597,3.367,4.421,3.356,9.004l0,0c0,1.252-0.098,2.642-0.308,4.185l0,0
		c-0.136,1.65-1.346,2.68-2.635,2.599l0,0c-1.564-0.024-3.289-0.9-5.085-1.709l0,0c-1.77-0.823-3.584-1.586-4.803-1.57l0,0
		c-0.611,0.006-1.022,0.151-1.376,0.497l0,0c-1.094,1.094-1.57,2.521-1.572,3.943l0,0c-0.002,1.285,0.401,2.544,1.049,3.436l0,0
		c0.656,0.898,1.489,1.407,2.436,1.407l0,0c0.188,0,0.379-0.019,0.579-0.061l0,0c0.866-0.184,1.672-0.273,2.424-0.275l0,0
		c0.022,0,0.043,0,0.065,0l0,0C165.133,202.298,167.373,204.794,168.403,207.795L168.403,207.795z"/>
	<path d="M88.924,197.758c-1.137-0.453-2.065-1.754-3.346-3.569l0,0c-1.23-1.811-2.593-4.109-3.868-6.377l0,0
		c-1.552-2.759-2.972-5.471-3.848-7.173l0,0c-0.768,3.511-1.897,10.095-3.733,13.932l0,0c-0.775,1.569-1.651,2.844-3.088,3.137l0,0
		c-0.208,0.037-0.418,0.051-0.627,0.051l0,0c-2.437-0.044-5.252-1.969-7.875-4.174l0,0c-2.601-2.227-4.881-4.757-5.855-6.296l0,0
		c-0.816-1.301-1.225-2.42-1.229-3.45l0,0c-0.012-1.496,0.954-2.584,2.148-3.224l0,0c1.204-0.668,2.717-1.062,4.29-1.419l0,0
		c3.135-0.668,6.546-1.313,7.605-2.617l0,0c0.459-0.505,0.798-1.573,0.79-2.773l0,0c0.004-1.303-0.374-2.739-1.121-3.784l0,0
		c-0.757-1.046-1.801-1.732-3.387-1.742l0,0c-0.869-0.035-3.247,0.95-5.906,1.978l0,0c-2.696,1.019-5.807,2.069-8.732,2.075l0,0
		c-2.097,0.006-4.156-0.573-5.721-2.177l0,0c-1.565-1.602-2.581-4.115-2.895-7.823l0,0l-0.004-0.071l0.006-0.069
		c0.384-4.44,3.555-6.129,6.854-6.04l0,0c3.939,0.01,8.469,1.872,11.09,2.964l0,0c0.609,0.254,1.139,0.359,1.604,0.359l0,0
		c1.618,0.018,2.856-1.353,3.738-3.671l0,0c0.856-2.278,1.234-5.289,1.23-7.865l0,0c0.014-2.26-0.318-4.251-0.692-4.928l0,0
		c-0.448-0.871-2.501-3.09-6.73-3.08l0,0c-3.37-0.002-8.204,1.393-14.756,6.064l0,0c-1.048,0.748-2.1,1.117-3.11,1.115l0,0
		c-2.983-0.065-4.895-2.883-6.203-5.829l0,0c-1.299-3.002-1.974-6.304-1.982-8.078l0,0c-0.018-2.631,1.499-4.495,3.48-5.529l0,0
		c1.986-1.056,4.453-1.441,6.743-1.445l0,0c2.908,0.039,5.438,0.536,6.649,1.659l0,0c1.701,1.699,3.007,2.215,3.985,2.213l0,0
		c1.318,0.016,2.444-0.979,3.421-2.233l0,0c1.032-1.249,1.563-2.564,2.656-3.155l0,0c0.557-0.106,1.251-2.024,1.194-4.414l0,0
		c0.002-1.856-0.292-3.949-0.786-5.612l0,0c-0.454-1.657-1.248-2.834-1.651-2.944l0,0v0.004c-0.154-0.032-0.974,0.305-1.855,0.924
		l0,0c-0.903,0.609-1.963,1.45-3.005,2.314l0,0c-2.134,1.75-4,3.504-4.99,3.978l0,0c-1.214,0.534-2.431,0.798-3.618,0.798l0,0
		c-2.402,0.002-4.631-1.08-6.471-2.932l0,0c-2.02-2.077-4.802-7.242-4.848-11.246l0,0c0-1.204,0.272-2.355,1.04-3.23l0,0
		c0.767-0.879,1.979-1.352,3.519-1.344l0,0c0.276,0,0.564,0.014,0.858,0.045l0,0c0.544,0.051,1.336,0.085,2.276,0.085l0,0
		c2.412,0.002,5.819-0.233,8.787-0.96l0,0c2.988-0.711,5.435-1.984,6.113-3.636l0,0c0.203-0.469,0.298-0.983,0.298-1.543l0,0
		c0.044-2.966-2.907-7.061-4.727-9.142l0,0c-0.544-0.617-1.034-0.808-1.651-0.818l0,0c-1.452-0.049-3.703,1.555-5.804,3.482l0,0
		c-2.138,1.913-4.13,4.032-5.821,4.911l0,0c-1.22,0.62-2.418,0.91-3.555,0.91l0,0c-5.535-0.102-8.879-6.405-8.903-11.721l0,0
		c0-0.879,0.091-1.744,0.294-2.561l0,0c0.764-3.291,3.33-5.1,6.437-5.057l0,0c0.314,0,0.637,0.016,0.966,0.051l0,0
		c2.68,0.316,5.663,2.225,7.904,2.185l0,0c0.368-0.002,0.708-0.047,1.031-0.146l0,0c1.47-0.428,2.229-2.209,2.235-4.767l0,0
		c0.002-2.262-0.619-4.946-1.58-7.126l0,0c-0.94-2.194-2.296-3.833-3.337-4.144l0,0c-0.244-0.081-0.522-0.122-0.837-0.122l0,0
		c-1.372-0.018-3.386,0.861-5.398,1.807l0,0c-2.032,0.93-4.059,1.927-5.922,1.947l0,0c-0.977,0.012-1.976-0.341-2.653-1.188l0,0
		c-0.68-0.838-1.05-2.036-1.178-3.695l0,0c-0.03-0.414-0.047-0.832-0.049-1.252l0,0c0.039-9.53,7.874-20.295,17.725-20.376l0,0
		c1.58,0,3.202,0.288,4.83,0.912l0,0c2.061,0.79,3.841,2,5.526,3.261l0,0c0.431,0.327,0.924,0.83,1.441,1.256l0,0
		c0.496,0.437,1.05,0.715,1.131,0.685l0,0c0.01-0.002,0.022-0.002,0.033,0l0,0c0.463,0.051,1.137-0.591,1.771-1.686l0,0
		c0.644-1.06,1.18-2.329,1.971-3.157l0,0c1.688-1.73,3.738-2.493,5.807-2.487l0,0c6.938,0.11,14.141,7.802,15.359,13.751l0,0
		c0.083,0.434,0.122,0.842,0.124,1.226l0,0c0.024,1.576-0.782,2.775-1.909,3.393l0,0c-1.121,0.636-2.493,0.853-3.917,0.95l0,0
		c-4.026,0.242-8.172-0.102-11.248,2.136l0,0c-1.46,1.02-3.052,3.236-3.017,5.038l0,0c0,0.383,0.063,0.747,0.201,1.102l0,0
		c0.415,0.983,0.969,1.169,1.984,1.212l0,0c1.035,0.006,2.341-0.388,3.435-0.646l0,0c1.738-0.402,3.515-0.767,5.326-0.767l0,0
		c1.569-0.002,3.169,0.28,4.729,1.062l0,0c2.68,1.373,5.758,4.457,5.815,7.983l0,0c0,0.132-0.004,0.264-0.015,0.4l0,0
		c-0.085,1.515-0.928,2.574-1.967,3.082l0,0c-1.031,0.524-2.205,0.664-3.295,0.798l0,0c-3.023,0.355-5.665,0.609-7.305,2.938l0,0
		c-0.755,1.058-1.161,2.499-1.159,3.955l0,0c0,1.133,0.242,2.27,0.719,3.238l0,0c1.033,2.041,2.432,2.578,4.434,2.615l0,0
		c3.429,0.028,8.086-2.105,12.123-2.132l0,0c2.101-0.018,4.174,0.664,5.565,2.652l0,0c1.387,1.973,2.128,5.055,2.134,9.849l0,0
		c0.006,3.598-0.952,5.855-2.536,7.151l0,0c-1.58,1.287-3.567,1.515-5.403,1.517l0,0c-0.331,0-0.656-0.008-0.977-0.018l0,0
		c-0.993-0.065-1.819-0.67-2.751-1.425l0,0c-0.92-0.766-1.892-1.742-2.863-2.705l0,0c-1.88-1.947-4.01-3.74-4.761-3.628l0,0
		c-0.102,0.002-0.164,0.018-0.225,0.051l0,0l-0.006,0.01c-0.024,0.024-0.061,0.071-0.105,0.138l0,0
		c-0.087,0.136-0.195,0.357-0.3,0.638l0,0c-0.211,0.564-0.417,1.373-0.585,2.327l0,0c-0.343,1.911-0.552,4.41-0.552,6.913l0,0
		c-0.026,4.051,0.622,8.188,1.835,9.658l0,0c0.4,0.491,0.737,0.664,1.153,0.67l0,0c0.505,0.012,1.348-0.345,2.442-1.445l0,0
		c4.759-4.753,8.864-6.694,12.295-6.7l0,0c6.066,0.043,9.179,6.014,9.187,11.453l0,0c0,1.07-0.116,2.13-0.357,3.145l0,0
		c-0.629,2.919-2.82,4.038-5.086,3.963l0,0c-3.253-0.022-7.23-1.612-10.458-1.594l0,0c-2.678,0.067-4.629,0.838-5.792,4.637l0,0
		c-0.205,0.705-0.294,1.33-0.294,1.88l0,0c0.014,1.643,0.735,2.67,1.896,3.427l0,0c1.164,0.745,2.798,1.109,4.386,1.104l0,0
		c1.983,0.019,3.884-0.597,4.592-1.34l0,0c1.202-1.212,2.584-1.793,3.939-1.789l0,0c4.349,0.114,7.792,5.276,7.843,10.133l0,0
		c0.029,3.043-1.515,6.121-5.204,7.526l0,0c-0.509,0.189-1.07,0.213-1.782,0.219l0,0c-2.238-0.002-5.864-0.477-8.946-0.475l0,0
		c-1.567-0.004-2.989,0.13-3.91,0.457l0,0c-0.944,0.37-1.222,0.688-1.243,1.299l0,0c-0.042,0.875,0.952,2.798,3.801,5.614l0,0
		c1.2,1.188,2.134,1.525,3.015,1.531l0,0c1.218,0.019,2.562-0.773,4.097-1.691l0,0c1.533-0.897,3.279-1.895,5.433-1.9l0,0
		c0.869,0,1.789,0.167,2.753,0.556l0,0c6.186,2.54,8.444,9.922,8.46,15.057l0,0c-0.057,2.654-0.467,4.83-2.089,5.673l0,0
		c-0.372,0.158-0.761,0.209-1.166,0.209l0,0c-1.671-0.016-3.843-0.863-6-1.671l0,0c-2.12-0.818-4.25-1.598-5.188-1.576l0,0
		c-0.189,0-0.307,0.031-0.341,0.049l0,0l-0.001-0.002c-0.004,0.015-0.012,0.05-0.013,0.114l0,0c0.002,0.018,0.002,0.037,0.006,0.081
		l0,0c0.386,4.623,1.961,8.075,4.18,12.095l0,0c0.242,0.44,0.345,0.932,0.345,1.423l0,0c-0.008,2.109-1.876,4.531-4.934,4.552l0,0
		c-0.006,0-0.011,0-0.017,0l0,0C90.309,198.103,89.632,197.991,88.924,197.758L88.924,197.758z M78.302,178.194
		c0.01,0.014,4.939,9.894,8.517,15.15l0,0c1.139,1.744,2.339,2.985,2.579,2.991l0,0c0.572,0.189,1.096,0.27,1.563,0.27l0,0
		c2.181-0.004,3.431-1.797,3.433-3.053l0,0c0-0.282-0.059-0.518-0.158-0.699l0,0c-2.243-4.061-3.957-7.78-4.359-12.679l0,0
		c-0.008-0.075-0.012-0.15-0.012-0.221l0,0c-0.012-0.477,0.187-0.999,0.587-1.295l0,0c0.394-0.294,0.836-0.361,1.267-0.365l0,0
		c1.513,0.022,3.563,0.867,5.719,1.673l0,0c2.118,0.816,4.314,1.592,5.468,1.576l0,0c0.272,0,0.467-0.041,0.568-0.087l0,0
		c0.447-0.059,1.243-1.842,1.186-4.296l0,0c0.016-4.765-2.238-11.595-7.521-13.666l0,0c-0.798-0.321-1.515-0.446-2.193-0.446l0,0
		c-1.661-0.004-3.153,0.793-4.669,1.693l0,0c-1.513,0.877-3.025,1.882-4.86,1.898l0,0c-1.332,0.008-2.713-0.595-4.075-1.971l0,0
		c-2.911-2.942-4.199-4.926-4.241-6.674l0,0c-0.018-1.397,1.046-2.333,2.248-2.714l0,0c1.224-0.424,2.755-0.54,4.406-0.544l0,0
		c3.21,0.002,6.891,0.481,8.946,0.477l0,0c0.633,0.006,1.121-0.061,1.24-0.116l0,0c3.117-1.234,4.217-3.537,4.246-6.129l0,0
		c0.004-2.075-0.798-4.294-2.022-5.945l0,0c-1.224-1.663-2.83-2.7-4.32-2.688l0,0c-0.932,0.004-1.888,0.366-2.879,1.351l0,0
		c-1.247,1.206-3.393,1.762-5.652,1.778l0,0c-1.805-0.002-3.685-0.388-5.189-1.338l0,0c-1.504-0.936-2.607-2.55-2.591-4.694l0,0
		c0-0.712,0.114-1.478,0.351-2.298l0,0c1.188-4.339,4.183-5.785,7.234-5.72l0,0c3.643,0.021,7.671,1.618,10.458,1.594l0,0
		c1.937-0.075,3-0.5,3.626-2.812l0,0c0.213-0.889,0.319-1.835,0.317-2.795l0,0c0.004-2.469-0.711-5.009-2.03-6.877l0,0
		c-1.332-1.87-3.186-3.07-5.657-3.076l0,0c-2.832-0.008-6.629,1.653-11.235,6.261l0,0c-1.23,1.223-2.357,1.874-3.502,1.884l0,0
		c-0.957,0.006-1.772-0.516-2.331-1.24l0,0c-0.572-0.731-0.974-1.679-1.289-2.778l0,0c-0.621-2.192-0.867-5.009-0.869-7.811l0,0
		c0-2.586,0.215-5.153,0.575-7.177l0,0c0.438-2.039,0.682-3.46,1.791-4.185l0,0c0.29-0.15,0.609-0.215,0.909-0.213l0,0
		c1.533,0.065,2.857,1.275,4.351,2.633l0,0c1.462,1.376,2.972,2.999,4.231,4.046l0,0c0.825,0.708,1.586,1.097,1.846,1.078l0,0
		c0.309,0.01,0.619,0.019,0.924,0.019l0,0c1.722,0.002,3.328-0.246,4.453-1.178l0,0c1.123-0.924,1.978-2.623,1.985-5.992l0,0
		c0.004-4.645-0.757-7.439-1.857-8.982l0,0c-1.101-1.527-2.501-2.002-4.341-2.02l0,0c-3.537-0.026-8.182,2.105-12.123,2.134l0,0
		c-2.307,0.037-4.556-0.881-5.78-3.456l0,0c-0.589-1.2-0.871-2.554-0.873-3.898l0,0c0.002-1.728,0.467-3.454,1.438-4.824l0,0
		c2.132-2.98,5.439-3.206,8.349-3.559l0,0c1.074-0.124,2.104-0.284,2.788-0.642l0,0c0.674-0.377,1.054-0.782,1.157-1.852l0,0
		c0.008-0.104,0.01-0.203,0.01-0.296l0,0c0.057-2.55-2.674-5.521-4.984-6.641l0,0c-1.326-0.66-2.664-0.904-4.059-0.904l0,0
		c-1.604-0.002-3.277,0.331-4.989,0.729l0,0C65.385,66.812,64,67.26,62.63,67.266l0,0c-1.295,0.043-2.788-0.546-3.383-2.168l0,0
		c-0.211-0.54-0.302-1.099-0.302-1.646l0,0c0.035-2.593,1.886-4.97,3.645-6.258l0,0c3.699-2.627,8.194-2.144,12.023-2.412l0,0
		c1.321-0.082,2.509-0.313,3.267-0.753l0,0c0.745-0.459,1.129-0.968,1.155-2.093l0,0c0-0.278-0.031-0.593-0.098-0.944l0,0
		c-0.899-5.151-8.088-12.643-13.885-12.533l0,0c-1.715,0.008-3.301,0.584-4.736,2.039l0,0c-0.475,0.46-1.078,1.724-1.754,2.875l0,0
		c-0.69,1.117-1.521,2.363-3.058,2.414l0,0c-0.01,0.002-0.022,0-0.051,0l0,0c-0.867-0.053-1.472-0.556-2.071-1.027l0,0
		c-0.577-0.481-1.113-1.013-1.385-1.212l0,0c-1.645-1.234-3.313-2.353-5.161-3.06l0,0c-1.462-0.559-2.897-0.812-4.294-0.812l0,0
		c-4.335-0.004-8.393,2.464-11.38,6.103l0,0c-2.984,3.632-4.848,8.403-4.844,12.772l0,0c0,0.382,0.016,0.761,0.044,1.139l0,0
		c0.11,1.494,0.453,2.392,0.843,2.86l0,0c0.388,0.459,0.81,0.624,1.492,0.636l0,0c1.292,0.018,3.277-0.861,5.291-1.807l0,0
		c2.037-0.934,4.105-1.931,6.03-1.947l0,0c0.447,0,0.89,0.059,1.314,0.201l0,0c1.815,0.646,3.173,2.601,4.233,4.962l0,0
		c1.04,2.374,1.704,5.202,1.708,7.729l0,0c0.006,2.751-0.816,5.391-3.291,6.199l0,0c-0.485,0.15-0.983,0.215-1.476,0.215l0,0
		c-2.916-0.043-5.94-2.019-8.06-2.193l0,0c-0.278-0.028-0.548-0.043-0.81-0.043l0,0c-2.577,0.043-4.278,1.214-4.98,3.917l0,0
		c-0.168,0.682-0.252,1.427-0.252,2.201l0,0c-0.002,2.367,0.788,4.992,2.128,6.962l0,0c1.35,1.979,3.175,3.261,5.277,3.258l0,0
		c0.883,0,1.837-0.221,2.875-0.747l0,0c1.259-0.619,3.346-2.737,5.498-4.688l0,0c2.193-1.937,4.449-3.819,6.808-3.868l0,0
		c1.015-0.012,2.028,0.437,2.79,1.342l0,0c1.866,2.215,5.043,6.294,5.088,10.119l0,0c0,0.729-0.126,1.456-0.424,2.142l0,0
		c-1.115,2.461-4.004,3.711-7.13,4.495l0,0c-3.149,0.768-6.639,1.001-9.145,1.003l0,0c-0.979,0-1.805-0.035-2.42-0.093l0,0
		c-0.253-0.024-0.491-0.037-0.714-0.037l0,0c-1.267,0.006-1.959,0.349-2.394,0.834l0,0c-0.435,0.489-0.664,1.249-0.664,2.239l0,0
		c-0.047,3.293,2.716,8.543,4.41,10.188l0,0c1.636,1.635,3.466,2.487,5.409,2.489l0,0c0.966,0,1.971-0.211,3.015-0.67l0,0
		c0.268-0.091,1.634-1.208,3.088-2.458l0,0c1.49-1.263,3.206-2.715,4.672-3.706l0,0c1.001-0.649,1.801-1.145,2.694-1.177l0,0
		c0.173,0,0.355,0.024,0.536,0.095l0,0c1.326,0.593,1.979,2.102,2.554,3.917l0,0c0.538,1.831,0.845,4.026,0.847,6.038l0,0
		c-0.059,2.538-0.339,4.862-2.085,5.784l0,0c-0.142-0.042-1.086,1.369-2.083,2.708l0,0c-1.047,1.336-2.493,2.794-4.603,2.81l0,0
		c-1.533-0.002-3.198-0.802-5.045-2.652l0,0c-0.442-0.532-2.944-1.259-5.589-1.22l0,0c-2.115-0.004-4.385,0.382-6.036,1.269l0,0
		c-1.652,0.908-2.669,2.158-2.686,4.205l0,0c-0.01,1.427,0.638,4.704,1.856,7.479l0,0c1.212,2.834,3.017,4.995,4.828,4.927l0,0
		c0.646,0,1.378-0.225,2.239-0.836l0,0c6.714-4.785,11.834-6.342,15.627-6.342l0,0c4.79,0.008,7.324,2.477,8.062,3.888l0,0
		c0.595,1.184,0.849,3.206,0.861,5.62l0,0c-0.002,2.72-0.377,5.853-1.328,8.393l0,0c-0.926,2.501-2.546,4.625-5.141,4.644l0,0
		c-0.694,0-1.423-0.159-2.183-0.478l0,0c-2.577-1.088-7.033-2.858-10.511-2.846l0,0c-2.924,0.087-4.881,0.958-5.354,4.627l0,0
		c0.304,3.463,1.243,5.584,2.464,6.826l0,0c1.229,1.249,2.8,1.72,4.649,1.726l0,0c2.561,0.006,5.555-0.971,8.201-1.978l0,0
		c2.68-0.999,4.876-2.041,6.438-2.075l0,0c2.067-0.01,3.652,1.003,4.611,2.374l0,0c0.968,1.373,1.393,3.076,1.397,4.653l0,0
		c-0.008,1.452-0.349,2.816-1.164,3.762l0,0c-1.358,1.495-3.677,2.039-6.048,2.583l0,0c-2.367,0.514-4.824,0.971-6.245,1.774l0,0
		c-0.956,0.557-1.362,1.074-1.376,1.915l0,0c-0.004,0.609,0.264,1.488,0.999,2.652l0,0c0.81,1.299,3.065,3.831,5.559,5.953l0,0
		c2.473,2.146,5.312,3.86,6.901,3.817l0,0c0.138,0,0.262-0.012,0.374-0.03l0,0c0.505-0.044,1.308-0.849,1.99-2.309l0,0
		c0.69-1.433,1.303-3.388,1.825-5.431l0,0c1.056-4.105,1.742-8.479,2.318-10.201l0,0l0.577-1.705L78.302,178.194L78.302,178.194z
		 M76.959,178.864l0.672-0.335L76.959,178.864L76.959,178.864z"/>
	<path d="M510.354,221.405c-0.95-1.184-1.217-2.721-1.219-4.347l0,0c0.013-3.45,1.217-7.608,1.204-10.571l0,0
		c0.005-1.264-0.222-2.247-0.694-2.85l0,0c-0.47-0.593-1.213-0.995-2.721-1.008l0,0c-1.952-0.004-5.059,0.779-9.615,2.738l0,0
		c-1.599,0.686-3.032,0.996-4.306,0.996l0,0c-2.164,0.008-3.845-0.934-4.897-2.279l0,0c-1.059-1.344-1.539-3.047-1.541-4.667l0,0
		c0-1.025,0.196-2.027,0.595-2.895l0,0c1.734-3.869,4.722-5.024,7.295-4.989l0,0c2.668,0.006,5.25,1.107,5.636,1.055l0,0
		c0.336-0.074,1.089-0.531,1.676-1.095l0,0c0.627-0.563,1.107-1.304,1.124-1.554l0,0c0.402-2.332,0.583-4.197,0.583-5.66l0,0
		c0.004-2.071-0.371-3.31-0.866-3.958l0,0c-0.491-0.637-1.095-0.868-2.05-0.881l0,0c-2.893-0.055-7.725,2.823-11.744,2.867l0,0
		c-2.242,0.053-4.404-1.118-5.367-4.034l0,0c-0.07-0.206-0.087-0.394-0.089-0.595l0,0c0.019-1.161,0.654-3.064,2.062-4.862l0,0
		c1.401-1.774,3.667-3.36,6.808-3.354l0,0c0.651,0,1.338,0.068,2.058,0.212l0,0c0.519,0.102,0.998,0.148,1.444,0.148l0,0
		c2.077-0.011,3.437-0.982,4.39-2.34l0,0c0.942-1.351,1.374-3.106,1.37-4.377l0,0c0.027-0.875-0.275-1.461-0.317-1.463l0,0
		c0-0.072-1.011-0.256-2.305-0.256l0,0c-1.314-0.038-2.996-0.049-4.764-0.277l0,0c-3.511-0.442-7.528-1.832-9.459-6.151l0,0
		c-0.315-0.707-0.464-1.436-0.464-2.147l0,0c0.045-3.21,2.755-5.874,5.499-7.174l0,0c2.53-1.181,4.502-1.658,6.103-1.66l0,0
		c4.18-0.029,5.408,3.443,6.099,4.167l0,0c0.055,0.064,0.091,0.096,0.11,0.111l0,0c1.01-0.043,1.993-1.092,2.695-2.84l0,0
		c0.705-1.738,1.071-4.013,1.067-5.893l0,0c0.014-1.351-0.214-2.524-0.483-3.032l0,0c-0.042-0.005-0.099-0.009-0.167-0.008l0,0
		c-1.544-0.032-6.523,1.647-11.21,1.656l0,0c-2.613,0-5.253-0.521-7.27-2.272l0,0c-2.018-1.753-3.257-4.669-3.25-9.078l0,0
		c0-0.383,0.011-0.777,0.031-1.18l0,0c0.172-2.914,2.806-4.43,5.069-5.268l0,0c1.321-0.487,2.59-0.697,3.78-0.697l0,0
		c5.658,0.015,9.396,4.614,10.261,5.421l0,0c0.021,0.02,0.035,0.033,0.044,0.042l0,0c0.02,0.007,0.051,0.018,0.09,0.03l0,0
		c0.096,0.03,0.237,0.066,0.409,0.098l0,0c0.345,0.063,0.807,0.114,1.309,0.114l0,0c0.95,0.002,2.03-0.188,2.79-0.697l0,0
		c0.752-0.517,1.288-1.258,1.305-2.793l0,0c0.009-1.797-0.874-4.669-3.443-8.88l0,0c-0.116-0.144-0.08-0.127-0.298-0.15l0,0
		c-0.527-0.042-1.938,0.682-3.53,1.493l0,0c-1.62,0.794-3.547,1.641-5.643,1.646l0,0c-1.734,0.008-3.57-0.629-5.205-2.276l0,0
		c-2.113-2.113-3.139-4.805-3.136-7.388l0,0c-0.003-2.28,0.798-4.491,2.362-6.139l0,0c1.561-1.647,3.886-2.697,6.791-2.693l0,0
		c0.906,0,1.872,0.1,2.893,0.313l0,0c1.354,0.284,1.974,1.182,2.63,1.838l0,0c0.879,0.875,1.673,1.18,2.84,1.194l0,0
		c0.194,0,0.404-0.013,0.624-0.032l0,0c1.798-0.244,2.468-0.803,2.785-2.562l0,0c0.046-0.343,0.091-0.909,0.091-1.538l0,0
		c0.002-0.809-0.078-1.73-0.284-2.429l0,0c-0.209-0.722-0.524-1.09-0.781-1.152l0,0c0,0-0.022-0.004-0.065-0.011l0,0
		c-0.044-0.004-0.114-0.008-0.201-0.006l0,0c-1.664-0.013-6.909,1.175-8.546,1.275l0,0c-0.076,0.002-0.146,0.004-0.212,0.004l0,0
		c-1.789-0.002-3.11-1.177-3.909-2.566l0,0c-0.812-1.404-1.209-3.092-1.213-4.555l0,0c0-0.25,0.009-0.5,0.04-0.737l0,0
		c0.457-3.737,4.301-5.438,7.5-5.438l0,0c0.161,0,0.326,0.002,0.489,0.013l0,0c1.575,0.119,2.88,0.862,3.81,0.828l0,0
		c0.531-0.017,0.932-0.133,1.503-0.792l0,0c0.629-0.75,1.034-1.946,1.029-3.041l0,0c-0.033-1.449-0.573-2.509-1.903-2.789l0,0
		c-2.001-0.47-4.455,0.43-6.844-1.3l0,0c-2.443-1.838-3.687-4.682-3.683-7.674l0,0c0-0.235,0.007-0.475,0.023-0.709l0,0
		c0.108-1.556,0.652-3.356,1.939-4.555l0,0c1.491-1.334,3.246-1.088,4.582-1.211l0,0c0.03-0.004,0.07-0.006,0.119-0.006l0,0
		c0.665,0.028,1.182,0.333,1.87,0.708l0,0c0.664,0.383,1.407,0.875,2.151,1.361l0,0c1.244,0.851,2.663,1.656,3.194,1.805l0,0
		c0.005-0.051,0.008-0.107,0.007-0.168l0,0c0.036-1.014-1.024-3.077-2.336-4.823l0,0c-1.276-1.76-2.85-3.354-3.422-3.683l0,0
		c-1.933-1.156-2.943-2.89-2.931-4.734l0,0c0.003-1.389,0.534-2.797,1.462-4.121l0,0c1.271-1.785,2.592-4.748,4.59-6.378l0,0
		c2.878-2.226,7.771-1.639,10.601-1.938l0,0c0.716-0.063,1.296-0.159,1.893-0.161l0,0c0.841-0.021,1.729,0.275,2.528,1.046l0,0
		c1.057,1.008,2.719,1.815,3.77,3.418l0,0c0.785,1.255,1.938,3.392,2.135,5.052l0,0c0.013,0.123,0.019,0.241,0.017,0.352l0,0
		c-0.025,1.658-1.175,2.558-1.849,3.403l0,0c-1.897,2.268-3.384,4.013-3.451,6.808l0,0c-0.002,0.03-0.002,0.03-0.002,0.03l0,0
		c0.013,0.688,0.325,1.097,0.976,1.478l0,0c0.646,0.362,1.601,0.557,2.51,0.552l0,0c0.673,0.002,1.323-0.104,1.784-0.267l0,0
		c1.021-0.356,2.84-0.684,4.604-0.688l0,0c0.995,0.002,1.959,0.099,2.774,0.432l0,0c0.8,0.296,1.562,1.038,1.546,2.064l0,0
		c-0.03,1.203-0.803,2.417-2.427,4.068l0,0c-0.688,0.68-6.639,5.768-9.526,9.554l0,0c-0.966,1.232-1.519,2.38-1.484,2.804l0,0
		c0.062,0.243-0.085,0.194,0.489,0.375l0,0c0.19,0.034,0.428,0.053,0.698,0.053l0,0c2.272,0.021,6.427-1.381,9.7-1.396l0,0
		c1.399,0.002,2.742,0.256,3.71,1.198l0,0c1.644,1.732,2.537,6.128,2.583,9.812l0,0c-0.013,1.751-0.209,3.295-0.906,4.375l0,0
		c-0.671,0.983-2.697,4.269-6.574,4.296l0,0c-2.048-0.002-4.451-0.955-7.226-3.443l0,0c-1.006-0.906-1.762-1.198-2.197-1.188l0,0
		c-0.545-0.008-1.025,0.402-1.459,1.559l0,0c-0.404,1.12-0.605,2.774-0.604,4.553l0,0c-0.002,2.228,0.303,4.665,0.794,6.592l0,0
		c0.343,1.491,0.924,2.671,1.32,3.161l0,0c5.633-3.786,9.82-5.294,12.884-5.304l0,0c1.831-0.004,3.29,0.574,4.252,1.582l0,0
		c0.966,1.008,1.394,2.376,1.394,3.814l0,0c-0.021,4.762-4.542,10.824-11.992,11.068l0,0h-0.008
		c-0.665-0.055-1.225-0.383-2.302-0.707l0,0c-1.013-0.326-2.264-0.64-3.445-0.638l0,0c-1.285,0.009-2.425,0.337-3.304,1.34l0,0
		c-0.885,1.008-1.566,2.833-1.566,5.993l0,0c0,1.006,0.069,2.141,0.212,3.358l0,0c0.187,1.165,1.795,2.143,3.312,2.128l0,0
		c0.571,0,1.099-0.135,1.493-0.383l0,0c0.885-0.561,1.941-1.353,2.765-2.045l0,0c0.975-0.709,1.76-2.896,3.92-3.208l0,0
		c0.434-0.04,0.847-0.062,1.241-0.062l0,0c2.477-0.01,4.205,0.815,5.219,2.103l0,0c1.015,1.281,1.303,2.884,1.305,4.364l0,0
		c-0.004,1.997-0.525,3.827-0.823,4.657l0,0c-0.826,2.179-3.01,3.506-4.792,4.188l0,0c-2.939,1.104-5.664,1.605-8.585,1.605l0,0
		c-0.796,0-1.604-0.038-2.435-0.108l0,0c-0.106-0.008-0.212-0.015-0.32-0.015l0,0c-1.175-0.011-2.674,0.54-3.447,1.302l0,0
		c-1.51,1.399-3.839,3.813-3.772,5.637l0,0c0.002,0.209,0.025,0.407,0.078,0.605l0,0c0.455,2.012,3.578,3.886,5.887,3.841l0,0
		c0.25,0,0.489-0.021,0.711-0.06l0,0c1.055-0.18,1.923-0.961,2.861-1.935l0,0c0.936-0.953,1.903-2.083,3.368-2.582l0,0
		c0.358-0.118,0.73-0.171,1.1-0.171l0,0c2.066,0.041,4.084,1.44,5.171,2.77l0,0c0.978,1.243,1.818,3.278,1.827,5.552l0,0
		c0.011,2.274-0.919,4.807-3.477,6.662l0,0c-2.554,1.859-6.628,3.07-12.938,3.072l0,0c-0.315,0-0.633-0.004-0.961-0.008l0,0
		c-0.045,0-0.087-0.002-0.123-0.002l0,0c-0.787-0.002-2.05,0.142-3.074,0.504l0,0c-1.057,0.368-1.726,0.923-1.807,1.508l0,0
		c-0.025,0.144-0.04,0.296-0.04,0.461l0,0c-0.076,1.924,2.084,4.938,3.671,5.635l0,0c0.123-0.078,0.298-0.197,0.505-0.344l0,0
		c0.451-0.32,1.061-0.762,1.78-1.207l0,0c1.438-0.887,3.32-1.825,5.4-1.832l0,0c2.212-0.021,4.555,1.169,6.335,4.275l0,0
		c1.417,2.445,2.054,4.406,2.057,6.056l0,0c0.022,2.924-2.144,4.525-4.517,5.205l0,0c-2.401,0.726-5.232,0.802-7.344,0.904l0,0
		c-1.311,0.042-2.432,0.185-2.621,0.291l0,0c-0.951,1.022-1.772,2.067-1.739,2.913l0,0c0.005,0.358,0.104,0.73,0.449,1.209l0,0
		c1.089,1.626,4.355,1.866,6.659,1.946l0,0c2.119,0.176,4.316,2.04,4.501,4.374l0,0l0.014,0.03l-0.002,0.172
		c-0.011,2.369-0.739,4.267-2.021,6.189l0,0c-1.095,1.686-2.754,2.551-4.705,2.683l0,0l-0.069,0.006l-0.07-0.008
		c-1.031-0.114-1.907-0.169-2.643-0.167l0,0c-1.396-0.006-2.273,0.204-2.701,0.453l0,0c-0.415,0.265-0.475,0.417-0.5,0.826l0,0
		c-0.056,1.024,1.325,3.204,2.818,5.323l0,0c1.461,2.179,3.032,4.326,3.081,6.369l0,0c0.025,0.982-0.517,1.978-1.535,2.503l0,0
		c-1.006,0.542-2.408,0.788-4.413,0.792l0,0v-0.75v-0.752c1.876,0.006,3.072-0.26,3.693-0.607l0,0
		c0.611-0.364,0.728-0.642,0.753-1.186l0,0c0.049-1.184-1.329-3.4-2.818-5.52l0,0c-1.456-2.179-3.023-4.233-3.078-6.172l0,0
		c-0.027-0.826,0.43-1.69,1.26-2.13l0,0c0.817-0.458,1.912-0.646,3.44-0.65l0,0c0.788,0,1.694,0.054,2.734,0.169l0,0
		c1.581-0.151,2.627-0.717,3.502-2.01l0,0c1.169-1.778,1.738-3.274,1.771-5.328l0,0c-0.001-0.021-0.002-0.038-0.001-0.053l0,0
		v-0.011c0.065-1.319-1.805-3.049-3.09-3.049l0,0c-2.251-0.154-5.914-0.095-7.794-2.562l0,0c-0.5-0.678-0.739-1.402-0.735-2.09l0,0
		c0.034-1.696,1.227-2.899,2.144-3.938l0,0c0.649-0.597,1.304-0.557,2.246-0.68l0,0c0.928-0.074,2.073-0.104,3.297-0.178l0,0
		c2.441-0.131,5.194-0.476,6.822-1.505l0,0c1.085-0.697,1.692-1.533,1.711-3.011l0,0c0.005-1.245-0.51-2.992-1.854-5.302l0,0
		c-1.644-2.778-3.348-3.509-5.037-3.53l0,0c-2.84-0.019-5.756,2.427-6.929,3.179l0,0c-0.205,0.105-0.299,0.227-0.727,0.258l0,0
		c-0.078,0.002-0.171-0.011-0.277-0.044l0,0c-2.429-0.94-4.841-4.223-4.923-7.145l0,0c0-0.246,0.021-0.489,0.063-0.729l0,0
		c0.286-1.463,1.557-2.221,2.784-2.655l0,0c1.258-0.438,2.622-0.586,3.572-0.589l0,0c0.058,0,0.11,0,0.15,0.002l0,0
		c0.315,0.004,0.627,0.006,0.934,0.006l0,0c12.297-0.087,14.865-4.544,14.914-8.233l0,0c0.008-1.882-0.752-3.688-1.5-4.62l0,0
		c-0.769-1.015-2.693-2.241-3.997-2.2l0,0c-0.229,0-0.438,0.032-0.627,0.095l0,0c-0.948,0.301-1.809,1.201-2.764,2.2l0,0
		c-0.955,0.978-2.045,2.069-3.678,2.369l0,0c-0.315,0.053-0.64,0.081-0.972,0.081l0,0c-2.954-0.044-6.476-1.963-7.335-4.953l0,0
		c-0.092-0.337-0.13-0.671-0.13-0.993l0,0c0.068-2.884,2.768-5.258,4.233-6.717l0,0c1.162-1.101,2.9-1.708,4.486-1.721l0,0
		c0.15,0,0.304,0.006,0.447,0.019l0,0c0.792,0.067,1.561,0.102,2.308,0.102l0,0c2.751,0,5.261-0.462,8.06-1.508l0,0
		c1.552-0.565,3.396-1.821,3.907-3.297l0,0c0.252-0.686,0.736-2.418,0.732-4.144l0,0c0.004-1.292-0.267-2.547-0.977-3.43l0,0
		c-0.709-0.876-1.867-1.524-4.046-1.537l0,0c-0.344,0-0.71,0.019-1.102,0.055l0,0c-0.908-0.027-1.791,1.652-3.094,2.863l0,0
		c-0.877,0.737-1.963,1.555-2.933,2.167l0,0c-0.69,0.432-1.49,0.614-2.291,0.614l0,0c-2.037-0.017-4.286-1.147-4.79-3.388l0,0
		c-0.161-1.33-0.232-2.524-0.234-3.598l0,0c0.002-3.356,0.715-5.571,1.938-6.977l0,0c1.222-1.41,2.892-1.863,4.434-1.855l0,0
		c2.63,0,5.274,1.254,5.778,1.343l0,0c6.539-0.184,10.488-5.702,10.469-9.567l0,0c-0.078-2.292-1.117-3.827-4.146-3.894l0,0
		c-2.624-0.011-6.768,1.414-12.484,5.344l0,0l-0.356,0.242l-0.388-0.182c-1.278-0.692-1.854-2.321-2.429-4.392l0,0
		c-0.527-2.073-0.843-4.599-0.843-6.962l0,0c0.003-1.889,0.197-3.666,0.692-5.059l0,0c0.469-1.36,1.394-2.545,2.872-2.554l0,0
		c1.028,0.01,2.054,0.552,3.197,1.571l0,0c2.61,2.338,4.662,3.06,6.226,3.06l0,0c2.902,0.025,4.654-2.607,5.329-3.629l0,0
		c0.392-0.551,0.663-1.938,0.65-3.541l0,0c0.049-3.346-1.111-7.839-2.137-8.745l0,0c-0.508-0.515-1.423-0.769-2.655-0.767l0,0
		c-2.901-0.015-6.979,1.376-9.7,1.396l0,0c-0.339,0-0.66-0.021-0.972-0.079l0,0c-0.972-0.105-1.774-0.946-1.716-1.848l0,0
		c0.036-1.19,0.782-2.355,1.792-3.712l0,0c1.022-1.338,2.363-2.787,3.729-4.159l0,0c2.715-2.727,5.575-5.19,5.929-5.548l0,0
		c1.542-1.522,2.019-2.594,1.989-3.007l0,0c-0.018-0.3-0.103-0.434-0.619-0.677l0,0c-0.502-0.212-1.321-0.322-2.202-0.32l0,0
		c-1.556-0.004-3.339,0.326-4.104,0.604l0,0c-0.673,0.235-1.461,0.352-2.284,0.352l0,0c-1.105-0.002-2.267-0.208-3.236-0.739l0,0
		c-0.965-0.512-1.764-1.495-1.749-2.791l0,0c0-0.068,0.003-0.098,0.003-0.083l0,0c0.082-3.373,1.947-5.501,3.798-7.716l0,0
		c0.855-0.995,1.527-1.63,1.502-2.441l0,0c0-0.066-0.002-0.131-0.009-0.195l0,0c-0.098-1.107-1.194-3.308-1.907-4.4l0,0
		c-0.714-1.154-2.224-1.944-3.526-3.127l0,0c-0.642-0.567-0.917-0.625-1.508-0.646l0,0c-0.417-0.002-0.99,0.085-1.757,0.155l0,0
		c-3.047,0.235-7.797-0.076-9.796,1.614l0,0c-1.579,1.241-2.945,4.105-4.301,6.068l0,0c-0.798,1.137-1.191,2.264-1.189,3.261l0,0
		c0.013,1.309,0.62,2.471,2.206,3.451l0,0c0.97,0.608,2.459,2.194,3.854,4.079l0,0c1.366,1.895,2.592,3.938,2.628,5.71l0,0
		c0,0.299-0.04,0.597-0.144,0.898l0,0c-0.154,0.513-0.777,0.834-1.188,0.79l0,0c-0.988-0.044-1.922-0.659-3.067-1.347l0,0
		c-1.11-0.697-2.296-1.516-3.204-2.04l0,0c-0.526-0.321-1.006-0.494-1.103-0.509l0,0c-0.002,0-0.003,0-0.005,0l0,0v0
		c-1.601,0.102-2.84,0.006-3.701,0.826l0,0c-0.866,0.773-1.383,2.27-1.455,3.551l0,0c-0.015,0.197-0.021,0.398-0.019,0.606l0,0
		c0.002,2.587,1.048,4.938,3.083,6.475l0,0c1.588,1.26,3.64,0.557,6.24,1.027l0,0c2.191,0.438,3.138,2.431,3.106,4.261l0,0
		c-0.007,1.439-0.485,2.911-1.377,4l0,0c-0.767,0.947-1.755,1.349-2.657,1.332l0,0c-1.522-0.034-2.8-0.798-3.9-0.83l0,0
		c-0.127-0.008-0.261-0.01-0.398-0.01l0,0c-2.778,0-5.785,1.522-6.012,4.112l0,0c-0.021,0.165-0.029,0.356-0.029,0.563l0,0
		c-0.004,1.182,0.354,2.681,1.01,3.799l0,0c0.672,1.137,1.538,1.823,2.613,1.823l0,0c0.049,0,0.093-0.002,0.134-0.004l0,0
		c1.349-0.062,6.596-1.264,8.624-1.277l0,0c0.254,0.004,0.468,0.013,0.714,0.087l0,0c1.026,0.338,1.506,1.262,1.772,2.162l0,0
		c0.269,0.923,0.345,1.95,0.345,2.85l0,0c0,0.699-0.047,1.313-0.105,1.745l0,0c-0.257,2.308-1.899,3.703-4.129,3.847l0,0
		c-0.259,0.023-0.513,0.038-0.765,0.038l0,0c-1.479,0.013-2.814-0.51-3.909-1.641l0,0c-0.792-0.817-1.109-1.269-1.865-1.423l0,0
		c-0.93-0.192-1.792-0.279-2.588-0.279l0,0c-5.062,0.03-7.614,3.46-7.654,7.331l0,0c0,2.189,0.866,4.496,2.697,6.327l0,0
		c1.402,1.389,2.757,1.83,4.145,1.838l0,0c1.673,0.004,3.415-0.718,4.979-1.493l0,0c1.591-0.758,2.882-1.603,4.193-1.646l0,0
		c0.578-0.025,1.251,0.29,1.579,0.871l0,0c2.635,4.338,3.655,7.392,3.663,9.66l0,0c0.018,1.931-0.83,3.31-1.979,4.047l0,0
		c-1.144,0.745-2.486,0.938-3.616,0.942l0,0c-0.602,0-1.144-0.057-1.582-0.138l0,0c-0.455-0.099-0.73-0.146-1.071-0.362l0,0
		c-0.324-0.246-0.583-0.574-1.112-1.097l0,0c-0.504-0.504-1.173-1.133-1.983-1.745l0,0c-1.624-1.228-3.799-2.363-6.363-2.361l0,0
		c-1.017,0-2.101,0.176-3.261,0.604l0,0c-2.142,0.781-4.051,2.09-4.092,3.932l0,0c-0.019,0.381-0.029,0.751-0.027,1.107l0,0
		c0.005,4.157,1.129,6.543,2.734,7.947l0,0c1.608,1.408,3.854,1.904,6.284,1.904l0,0c4.422,0.006,9.075-1.624,11.21-1.656l0,0
		c0.428,0.017,0.93,0.015,1.345,0.561l0,0c0.602,0.953,0.792,2.344,0.807,3.979l0,0c-0.002,2.067-0.379,4.47-1.177,6.454l0,0
		c-0.79,1.948-2.053,3.664-4.072,3.78l0,0l-0.047,0.002l-0.024-0.003c-0.008,0-0.018-0.001-0.028-0.003l0,0l0,0
		c-0.77-0.051-1.134-0.575-1.438-0.98l0,0c-0.315-0.449-0.608-0.964-0.98-1.451l0,0c-0.765-0.97-1.692-1.823-3.706-1.842l0,0
		c-1.294-0.002-3.068,0.394-5.469,1.518l0,0c-2.404,1.099-4.678,3.558-4.634,5.815l0,0c0.002,0.508,0.104,1.016,0.335,1.535l0,0
		c2.393,5.459,8.838,5.442,12.896,5.539l0,0c1.357,0.074,2.335,0.006,3.176,0.568l0,0c0.741,0.635,0.875,1.564,0.904,2.653l0,0
		c-0.006,1.582-0.491,3.562-1.637,5.23l0,0c-1.135,1.664-3.028,2.996-5.624,2.985l0,0c-0.551,0.002-1.129-0.057-1.738-0.176l0,0
		c-0.631-0.127-1.216-0.184-1.764-0.184l0,0c-2.62,0.006-4.415,1.271-5.633,2.789l0,0c-1.213,1.493-1.756,3.322-1.738,3.928l0,0
		c0,0.084,0.004,0.1,0.006,0.1l0,0c0.9,2.424,2.137,2.977,3.951,3.03l0,0c3.378,0.044,8.134-2.814,11.744-2.867l0,0
		c1.222-0.015,2.452,0.398,3.25,1.48l0,0c0.794,1.071,1.162,2.625,1.165,4.857l0,0c0,1.586-0.19,3.528-0.605,5.917l0,0
		c-0.185,0.91-0.835,1.677-1.574,2.393l0,0c-0.762,0.697-1.583,1.277-2.473,1.482l0,0c-0.058,0.008-0.138,0.017-0.227,0.017l0,0
		c-1.188-0.057-3.244-1.059-5.639-1.052l0,0c-2.194,0.036-4.352,0.745-5.932,4.112l0,0c-0.294,0.639-0.459,1.438-0.459,2.27l0,0
		c0.044,2.689,1.535,5.442,4.939,5.444l0,0c1.027,0,2.262-0.25,3.712-0.873l0,0c4.657-1.99,7.88-2.852,10.209-2.858l0,0
		c1.774-0.011,3.112,0.55,3.906,1.59l0,0c0.79,1.033,1.006,2.353,1.011,3.767l0,0c-0.013,3.299-1.218,7.443-1.205,10.571l0,0
		c-0.004,1.469,0.265,2.647,0.885,3.403l0,0c0.614,0.751,1.635,1.266,3.583,1.274l0,0v0.752v0.75c-0.015,0-0.028,0-0.042,0l0,0
		C512.883,223.236,511.307,222.587,510.354,221.405L510.354,221.405z"/>
</g>
<rect x="48.158" y="52.193" fill="none" width="495" height="495"/>
</svg>
