<?xml version="1.0" standalone="no"?>
<!DOCTYPE svg PUBLIC "-//W3C//DTD SVG 1.1//EN" "http://www.w3.org/Graphics/SVG/1.1/DTD/svg11.dtd" >
<svg xmlns="http://www.w3.org/2000/svg">
<metadata>Generated by IcoMoon</metadata>
<defs>
<font id="blurb-icon" horiz-adv-x="1024">
<font-face units-per-em="1024" ascent="960" descent="-64" />
<missing-glyph horiz-adv-x="1024" />
<glyph unicode="&#x20;" horiz-adv-x="512" d="" />
<glyph unicode="&#xe900;" d="M116 960h394.4q0-181.86 0-363.74 198.74 0 397.5 0v-660.26h-791.9zM431.2 523.020q0-72.88 0-145.76c-52.54 0-105.080-0.12-157.6 0-0.42-48.66 0-97.32-0.18-146q78.8 0 157.62 0c0.4-48.5 0-97 0.18-145.52q78.92 0 157.82 0c0 48.24 0 96.5 0 144.76 2.36 1.62 6 0.32 8.78 0.72q74.68 0 149.38 0c0 48.64 0.2 97.32-0.14 146-52.68-0.18-105.36 0-158 0-0.18 48.64 0.26 97.3-0.2 146-52.48-0.24-105.040 0.1-157.58-0.2z" />
<glyph unicode="&#xe901;" d="M589.54 960q158.2-145.16 315.82-290.96h-315.84q0.020 145.46 0.020 290.96z" />
<glyph unicode="&#xe902;" d="M431.28 523.020c52.56 0.3 105.1 0 157.66 0.18 0.46-48.64 0-97.3 0.2-146 52.68 0 105.36-0.12 158 0 0.34-48.64 0-97.32 0.14-146q-74.68 0-149.38 0c-2.84-0.4-6.42 0.9-8.78-0.72-0.12-48.26 0-96.52 0-144.76q-78.92 0-157.82 0c-0.12 48.52 0.22 97.020-0.18 145.52q-78.8-0.12-157.62 0c0 48.66-0.26 97.32 0.18 146 52.54-0.2 105.080 0 157.6 0q0.040 72.9 0 145.78z" />
<glyph unicode="&#xe903;" d="M116 960h394.4q0-181.86 0-363.74 198.74 0 397.5 0v-660.26h-791.9zM431.2 523.020q0-72.88 0-145.76c-52.54 0-105.080-0.12-157.6 0-0.42-48.66 0-97.32-0.18-146q78.8 0 157.62 0c0.4-48.5 0-97 0.18-145.52q78.92 0 157.82 0c0 48.24 0 96.5 0 144.76 2.36 1.62 6 0.32 8.78 0.72q74.68 0 149.38 0c0 48.64 0.2 97.32-0.14 146-52.68-0.18-105.36 0-158 0-0.18 48.64 0.26 97.3-0.2 146-52.48-0.24-105.040 0.1-157.58-0.2z" />
<glyph unicode="&#xe904;" d="M589.54 960q158.2-145.16 315.82-290.96h-315.84q0.020 145.46 0.020 290.96z" />
<glyph unicode="&#xe905;" d="M431.28 523.020c52.56 0.3 105.1 0 157.66 0.18 0.46-48.64 0-97.3 0.2-146 52.68 0 105.36-0.12 158 0 0.34-48.64 0-97.32 0.14-146q-74.68 0-149.38 0c-2.84-0.4-6.42 0.9-8.78-0.72-0.12-48.26 0-96.52 0-144.76q-78.92 0-157.82 0c-0.12 48.52 0.22 97.020-0.18 145.52q-78.8-0.12-157.62 0c0 48.66-0.26 97.32 0.18 146 52.54-0.2 105.080 0 157.6 0q0.040 72.9 0 145.78z" />
<glyph unicode="&#xe906;" glyph-name="ArrowLeft-copy" d="M1024 192l-512 512-512-512h1024zM0 192v0z" />
<glyph unicode="&#xe907;" glyph-name="ArrowLeft" d="M768 960l-512-512 512-512v1024zM768-64v0z" />
<glyph unicode="&#xe908;" glyph-name="ArrowRight-copy" d="M1024 704h-1024l512-512 512 512zM0 704v0z" />
<glyph unicode="&#xe909;" glyph-name="ArrowRight" d="M256 960v-1024l512 512-512 512zM256-64v0z" />
<glyph unicode="&#xe90a;" glyph-name="bold" d="M83.12 960h409.32q121.56 0 181.26-10.12c40.449-6.646 76.504-21.506 107.779-42.852q46.241-31.548 77.681-85.028t31.44-119.8c0-0.123 0-0.269 0-0.414 0-98.27-58.395-182.901-142.378-221.086q92.078-27.86 142.378-93.52t50.3-154.36q0-69.86-32.48-135.86t-88.7-105.48q-56.26-39.48-138.68-48.5-51.7-5.6-249.36-6.98h-348.56zM289.88 789.56v-236.8h135.5q120.84 0 150.18 3.5 53.080 6.28 83.46 36.68t30.38 80q0 47.5-26.2 77.18t-77.86 35.88q-30.74 3.48-176.72 3.5zM289.88 382.34v-273.82h191.38q111.74 0 141.8 6.28 46.1 8.38 75.080 40.86t28.98 86.96q0 46.1-22.36 78.24t-64.62 46.8q-42.28 14.66-183.36 14.66z" />
<glyph unicode="&#xe90b;" glyph-name="centerAlign" d="M0 792h1024v-48h-1024v48zM0 632h736.040v-48h-736.040v48zM0 472h1024v-48h-1024v48zM0 312h800.020v-48h-800.020v48zM0 152h512v-48h-512v48z" />
<glyph unicode="&#xe90c;" d="M149.2 641h8.9c6.9-0.58 14.26-2.36 19.24-7.5 4.56-4.58 6-11.36 5.82-17.64-0.589-9.317-2.813-17.972-6.388-25.886-5.056-11.104-10.395-20.827-16.371-30.101-5.601-8.673-12.281-18.153-20.881-25.753-3.52-3.020-7.68-5.86-12.48-6.12-0.191-0.015-0.414-0.024-0.639-0.024-3.362 0-6.267 1.957-7.639 4.794-1.722 3.831-1.062 8.171-0.022 12.051 2.124 7.719 5.16 14.475 9.062 20.628 1.818 2.572 3.918 5.692 7.238 7.232 2.82 1.12 5.58-0.7 7.78-2.26 3.566 6.048 6.569 13.036 8.649 20.411 2.811 10.629 3.591 21.649 0.431 31.729-1.020 3.12-3.3 6.92-7.1 6.5-8-0.68-15.58-4.24-22.42-8.36-10.069-6.434-18.7-13.99-26.064-22.656-9.057-10.652-16.377-22.853-21.504-36.144-5.218-13.072-8.903-27.267-10.691-42.045-0.707-5.334-1.064-10.556-1.064-15.862 0-6.202 0.489-12.291 1.43-18.228 1.914-9.624 6.354-19.884 14.574-26.664 5.376-4.465 12.349-7.174 19.955-7.174 1.561 0 3.095 0.114 4.595 0.335 13.83 1.539 26.43 9.239 36.67 18.619 9.956 9.832 19.388 20.107 28.301 30.828 1.838 2.221 3.292 3.541 4.906 4.645 0.378-1.121 0.553-2.462 0.553-3.843 0-1.52-0.212-2.99-0.608-4.382-1.086-5.903-3.090-11.271-5.866-16.14-7.756-12.587-16.83-23.658-27.198-33.364-12.369-11.423-26.909-20.823-43.249-24.783-10-2.46-21-2.6-30.52 1.78-10.721 5.007-18.985 13.778-23.214 24.573-4.006 9.607-4.726 19.807-5.386 29.807-0.179 3.004-0.281 6.517-0.281 10.054 0 7.735 0.487 15.357 1.432 22.835 4.291 31.354 17.039 60.011 35.874 83.595 5.926 7.699 12.71 14.762 20.185 21.025 15.409 12.811 34.049 22.031 53.989 23.491z" />
<glyph unicode="&#xe90d;" d="M734.9 608.76c2.24 0.291 4.831 0.457 7.461 0.457 4.735 0 9.345-0.538 13.77-1.557 5.388-1.22 11.128-4.72 13.388-10.46 3.54-8.7 0.92-18.66-4.2-26.16-5.429-7.634-12.928-13.477-21.679-16.755-1.036-0.43-1.871-0.62-2.751-0.62-1.479 0-2.832 0.535-3.878 1.422-0.811 1.473 0.849 2.633 1.709 3.613 8 7.46 10.84 20.66 4.88 30.18-3.27 4.886-8.768 8.060-15.007 8.060-0.519 0-1.032-0.022-1.539-0.065-9.336-0.655-17.833-4.056-24.761-9.395-7.154-5.035-11.984-13.182-12.529-22.48-0.164-8.761 3.456-16.961 7.816-24.261 5.84-10 13.82-18.32 20.52-27.64 5.4-7.58 10.42-15.74 12.48-24.94 0.54-2.141 0.85-4.6 0.85-7.13 0-4.774-1.104-9.291-3.069-13.309-3.681-7.441-10.121-13.341-17.021-18.161-10.502-7.501-22.809-13.296-36.086-16.658-11.954-2.722-23.974-3.382-34.974 0.398-8.543 2.781-15.27 9.050-18.607 17.081-0.757 2.272-1.151 4.658-1.151 7.137 0 4.303 1.189 8.328 3.256 11.765 4.050 6.645 9.714 12.071 16.455 15.782 3.968 2.375 7.768 4.955 12.228 5.435 0.197 0.048 0.423 0.075 0.656 0.075 0.88 0 1.669-0.392 2.201-1.011 0.003-2.684-2.137-4.724-3.737-6.684-3.82-4.2-7.36-9.26-7.54-15.14 0-6.38 3.76-12.16 8.6-16 6.255-4.854 14.174-7.837 22.783-7.999 0.446-0.021 0.925-0.032 1.406-0.032 7.158 0 13.719 2.558 18.818 6.81 4.632 4.552 7.57 10.902 7.693 17.939 0.002 0.158 0.003 0.318 0.003 0.478 0 8.693-2.418 16.821-6.617 23.749-6.085 10.916-14.885 20.216-22.385 30.396-5.68 7.76-11.12 16.24-12.58 26-0.163 1.257-0.255 2.711-0.255 4.186 0 7.822 2.606 15.035 6.997 20.819 6.218 8.875 15.398 15.315 24.998 20.295 13.020 6.7 26.82 12.3 41.4 14.38z" />
<glyph unicode="&#xe90e;" d="M208.18 587.060c1.38 0.94 2.74-0.32 3.52-1.4 2-2.14 0.26-5.12 0.24-7.62-1.34-13.8-0.54-27.72-0.74-41.56 6 3.12 10.9 7.9 16.86 11.040 4.42 2.46 9.76 2 14.52 0.88 4.294-1.044 7.825-3.734 9.96-7.346 1.888-3.708 2.97-7.999 2.97-12.543 0-0.588-0.018-1.171-0.054-1.75q0.004-20.661 0.004-41.401c-0.040-0.805-0.063-1.748-0.063-2.696 0-3.628 0.336-7.178 0.978-10.62 0.365-2 1.715-3.979 3.594-5.225 2.371-0.939 5.011-0.599 7.331-1.579 0.78-2.48-1.8-4.56-3.62-5.8-6.18-0.42-12.3 1-18.48 0.78s-12-1.020-18-0.82c0.356 3.316 2.179 6.144 4.799 7.855 2.841 3.025 3.041 7.465 3.381 11.345 0 14.26 0 28.52 0 42.78 0 4.3-1.26 9.2-5.080 11.68-1.377 0.76-3.018 1.208-4.764 1.208-2.314 0-4.444-0.786-6.138-2.105-4.618-3.143-8.558-8.323-8.338-14.203 0-12.66 0-25.32 0-38-0.006-0.211-0.010-0.459-0.010-0.709 0-3.711 0.799-7.235 2.234-10.411 1.936-3.121 6.256-3.181 9.696-3.841 0-2.36-2-3.84-3.18-5.62-6.5-0.3-12.94 0.92-19.44 0.82s-12.88-1.18-19.34-0.8c0.203 2.602 1.662 4.825 3.765 6.080 1.395 0.86 3.115 1.42 3.835 2.98 1.53 3.234 2.424 7.027 2.424 11.027 0 0.391-0.009 0.781-0.025 1.168 0.002 26.665 0.002 53.405 0.002 80.125-0.36 3.78 0 8.44-3.24 11.1-2.66 2.12-6.5 0.7-9.38 2.12-0.48 2.72 2.28 5.24 4.66 6.14 5.78 0.52 11.86-0.56 17.4 1.72 3 1.020 5.14 3.46 7.72 5.2z" />
<glyph unicode="&#xe90f;" d="M391.66 582.4c2.76 1.1 4.58 3.66 7.22 4.94 2 0.3 2.96-2 4-3.38-1.76-8.74-1.52-17.7-1.78-26.56 0-15.020 0-30 0-45.040 4.6 5.82 9.36 11.5 14 17.22 2.114 2.289 3.81 5.001 4.943 7.99 0.457 3.030-2.883 3.41-4.843 4.17-1.6 0.24-0.9 2-0.24 2.82 1.16 1.54 2.68 3.48 4.86 3.16 3.856-0.518 8.314-0.814 12.841-0.814 1.695 0 3.38 0.041 5.055 0.123 2.538 0.35 5.785 0.574 9.076 0.61 2.048-0.62 0.968-3.1 0.048-4.3-1.66-3.16-5.6-3.14-8.42-4.68-10.6-4.88-17.22-14.88-25.020-23.1 2.885-0.072 5.561-0.911 7.848-2.319 3.752-2.601 6.032-6.801 8.072-10.861 3.78-8 6.74-16.46 11.32-24 1.62-2.52 3.78-5.42 7.080-5.52 3.86-0.26 5.82 4.64 9.82 4-0.34-3.26-0.78-7.14-3.6-9.24-3.999-3.56-8.561-6.619-13.508-9.007-5.572-2.013-10.972 1.527-13.992 5.647-7.1 9.54-9.44 21.52-14.96 31.88-1.5 2.56-3.4 5.64-6.64 6-1.84 0.26-3.18-1.52-3.5-3.14-0.287-2.035-0.451-4.385-0.451-6.774 0-0.945 0.026-1.884 0.076-2.816-0.006-4.81-0.226-9.87 0.254-14.69 0.166-3.027 1.638-5.679 3.858-7.423 2.402-1.477 5.782-0.297 7.882-2.357-0.32-2.2-2.32-3.64-3.44-5.46-5.88 0-11.7 1-17.58 0.86-6.94 0.2-13.84-1.24-20.78-0.76 0.4 2.6 1.56 5.62 4.32 6.46 2.169 0.891 3.773 2.766 4.271 5.053 0.862 2.946 1.353 6.276 1.353 9.721 0 0.199-0.002 0.397-0.005 0.595q0 35.31 0 70.63c0.037 1.007 0.058 2.19 0.058 3.378 0 3.94-0.232 7.826-0.683 11.645-0.114 2.018-1.459 4.154-3.425 5.399-2.951 1.538-6.491 0.318-9.391 1.878 1.259 2.514 3.145 4.554 5.456 5.964 6.324 0.356 12.884-0.724 18.544 2.096z" />
<glyph unicode="&#xe910;" d="M287.58 581.68c2.92 0.92 5.58-1.28 7.24-3.46 2.16-2.82 5.28-5.44 5.5-9.22 0.2-2.86-2-5.080-3.56-7.18-2.16-2.46-4.18-5.42-7.32-6.7-3.020-0.88-5 2-6.52 4-1.9 2.8-4.32 5.2-6.14 8-1.28 2.88 0.72 5.8 2.76 7.72 2.391 2.524 5.024 4.775 7.874 6.732z" />
<glyph unicode="&#xe911;" d="M293.22 547.66c1.36 0.76 2.82 2.16 4.48 1.4 1-0.42 2.32-1.18 2-2.5-0.593-3.869-0.941-8.346-0.96-12.9q0-28.24 0-56.46c0-3.3 0.52-7.1 3.12-9.44s6-1.34 8.6-2.86c0.56-2.46-1.86-3.9-3.22-5.52-6.36-0.12-12.66 1.020-19.020 0.86s-12.6-1.42-18.86-0.64c-0.066 0.308-0.105 0.661-0.105 1.023 0 1.542 0.69 2.923 1.777 3.851 1.547 1.786 4.427 1.806 5.567 4.006 2 3.72 1.84 8 2 12.14q0 24.5 0 49.020c0.018 0.177 0.028 0.382 0.028 0.589 0 2.854-1.947 5.253-4.586 5.942-1.503 0.689-4.423 0.169-4.703 2.209 0.772 1.97 2.175 3.554 3.955 4.537 1.203 0.184 2.54 0.277 3.899 0.277 0.495 0 0.986-0.012 1.475-0.036-0.051 0.003-0.029 0.003-0.007 0.003 5.439 0 10.485 1.683 14.645 4.556z" />
<glyph unicode="&#xe912;" d="M337.74 548.16c2.85 0.738 6.122 1.162 9.493 1.162 2.213 0 4.383-0.183 6.496-0.534 2.531-0.249 5.031-1.669 7.771-1.969 2.48 0.74 4.7 2.72 7.44 2.36 0.532-0.443 0.869-1.106 0.869-1.848 0-0.299-0.055-0.585-0.154-0.848-0.925-4.096-1.459-8.819-1.459-13.667 0-2.606 0.154-5.177 0.454-7.702 0.001 0.071 0.018-0.2 0.018-0.475 0-3.009-2.070-5.534-4.863-6.23-1.644 5.651-3.144 11.851-7.724 15.991-2.837 2.291-6.487 3.677-10.461 3.677-2.656 0-5.167-0.619-7.396-1.721-3.944-1.957-7.049-5.341-8.641-9.476-1.71-4.669-2.675-9.92-2.675-15.397 0-1.318 0.056-2.622 0.165-3.912 0.388-8.872 1.988-18.292 7.008-25.972 3.425-5.329 9.296-8.826 15.989-8.9 5.631-0.16 10.771 2.94 14.631 6.78 1.78 2.002 3.629 3.831 5.587 5.538 1.179-0.245 1.991-1.206 2.073-2.369-0.506-4.212-2.261-7.932-4.877-10.868-4.958-6.284-11.764-10.944-19.593-13.174-2.347-0.572-4.731-0.863-7.183-0.863-7.763 0-14.847 2.912-20.217 7.703-7.85 7.054-11.69 17.634-12.63 27.974-1 12.14 0.54 24.82 6.52 35.6 4.923 9.186 13.165 16.054 23.084 19.068z" />
<glyph unicode="&#xe913;" d="M475.7 544.48c4.787 3.008 10.608 4.793 16.845 4.793 3.184 0 6.259-0.465 9.161-1.331 5.956-1.94 11.019-5.952 14.309-11.191 3.638-6.007 5.756-13.131 5.765-20.749 0-2.342 0-5.042-2-6.742-1.768-1.213-3.953-1.937-6.308-1.937-0.399 0-0.792 0.021-1.18 0.061-12.372-0.004-24.792-0.004-37.212-0.004 0-8.64 1.4-17.66 6.24-25.020 2.779-4.413 7.277-7.525 12.533-8.405 1.017-0.135 2.068-0.203 3.136-0.203 6.724 0 12.814 2.715 17.233 7.109 2.299 1.999 3.879 4.839 6.639 6.259 1.5 0.94 2.8-1.1 2-2.42-0.94-2.8-0.74-6-2.7-8.44-4.776-6.572-10.969-11.83-18.152-15.391-4.16-1.923-8.692-2.969-13.468-2.969-5.657 0-10.971 1.468-15.582 4.044-8.698 4.757-14.358 13.917-16.798 23.577-1.201 4.588-1.89 9.854-1.89 15.282 0 6.86 1.101 13.463 3.137 19.641 3.078 9.839 9.582 18.308 18.125 23.932zM486 537.56c-6.94-2.92-10.82-10.98-10.24-18.26 0.167-1.48 1.412-2.619 2.922-2.619 0.119 0 0.236 0.007 0.351 0.021 4.986-0.141 9.986-0.001 14.986-0.001 0.344-0.041 0.743-0.064 1.147-0.064 1.495 0 2.916 0.318 4.199 0.89 0.955 1.070 1.581 2.545 1.581 4.166 0 0.2-0.010 0.398-0.028 0.593 0.010 0.174 0.014 0.407 0.014 0.641 0 4.559-1.695 8.723-4.489 11.894-1.854 1.96-4.499 3.193-7.431 3.193-1.075 0-2.111-0.166-3.084-0.473z" />
<glyph unicode="&#xe914;" d="M544 547c2 1.12 4.28 3.4 6.5 1.54 1.42-0.56 0.9-2.2 0.72-3.34-0.499-2.454-0.784-5.274-0.784-8.162 0-0.203 0.001-0.406 0.004-0.609 6 3.111 10.9 7.871 16.84 11.051 4.36 2.46 9.64 2 14.36 0.98 4.214-0.945 7.723-3.448 9.963-6.859 2.052-3.613 3.239-7.863 3.239-12.39 0-0.369-0.008-0.737-0.024-1.103q0.002-20.648 0.002-41.368c-0.039-0.892-0.061-1.938-0.061-2.99 0-3.772 0.284-7.478 0.831-11.097 0.313-2.29 1.846-4.568 4.013-5.932 2.037-0.722 4.357-0.562 6.437-1.302 1.3-0.84 0.42-2.42-0.34-3.28s-1.84-2.88-3.56-2.74c-6.84-0.14-13.62 1.38-20.44 0.7-4.94-0.14-10-1.1-14.82-0.5-0.66 1.42 0.62 2.86 1.16 4.12 0.98 2.32 3.72 3.12 4.74 5.38 1.381 3.461 2.182 7.472 2.182 11.67 0 0.418-0.008 0.835-0.024 1.25 0.002 12.18 0.002 24.42 0.002 36.66 0 4.58-0.38 9.78-3.8 13.24-1.596 1.504-3.752 2.428-6.125 2.428-1.681 0-3.253-0.464-4.596-1.27-5.68-2.977-10.38-9.037-9.96-15.737 0-11.78 0-23.56 0-35.36 0.18-4.44 0-9.28 2.4-13.24 2-3.040 6-2.92 9.2-3.74 1-2.26-1.86-3.8-2.82-5.6-8-0.26-15.8 1.38-23.72 0.7-4.94-0.18-10-1.18-14.82-0.5-0.48 1.64 0.66 3.1 1.6 4.3 1.58 2.14 4.84 2.36 6 4.92 1.383 3.064 2.188 6.643 2.188 10.411 0 0.228-0.003 0.456-0.009 0.683q0.001 24.806 0.001 49.626c0.011 0.146 0.018 0.315 0.018 0.487 0 2.192-1.053 4.138-2.68 5.361-1.714 0.675-3.807 1.314-5.954 1.81-0.47 0.364-0.555 0.718-0.555 1.092 0 0.743 0.338 1.407 0.868 1.847 1.324 1.563 3.004 3.303 5.244 2.983 0.651-0.054 1.409-0.084 2.174-0.084 5.317 0 10.29 1.474 14.533 4.035z" />
<glyph unicode="&#xe915;" d="M777.1 542.76c2.135 0.576 4.585 0.907 7.113 0.907 4.554 0 8.857-1.073 12.671-2.981 9.376-4.906 15.216-15.006 17.436-25.286 0.765-3.482 1.203-7.482 1.203-11.584 0-14.235-5.276-27.238-13.978-37.16-7.945-8.816-19.505-14.796-31.565-14.436-8.478 0.541-15.859 4.808-20.587 11.166-6.833 8.734-9.393 20.074-8.913 30.934 0.406 12.408 4.823 23.711 11.988 32.734 6.034 7.635 14.547 13.255 24.328 15.643zM773.1 528.38c-4.617-1.24-8.296-4.486-10.102-8.721-3.178-6.939-3.518-14.659-3.078-22.099 0.56-8.16 2.18-16.66 7.12-23.38 3.4-4.72 9.3-8 15.24-7 4.973 1.144 8.942 4.625 10.744 9.198 3.236 7.322 3.296 15.442 2.776 23.202s-2.46 15.72-7.18 22c-3.5 4.82-9.54 8.14-15.52 6.8z" />
<glyph unicode="&#xe916;" d="M826.44 539.1c4.54 0.7 8.66 2.84 12.94 4.34 2.18 0.78 3.54-1.56 4.74-2.96-1.58-6.94-1.16-14.1-1.22-21.16q0-20 0-40c0-4 1.14-8.48 4.48-11.040 2.24-1.8 5.34-1.2 7.76 0 5.233 2.875 9.188 7.531 11.091 13.134 0.817 2.785 1.259 5.794 1.259 8.905 0 0.937-0.040 1.864-0.118 2.78 0.008 9.381 0.008 18.901 0.008 28.401 0 3.54-0.8 7.72-4.12 9.7-2.46 1.66-5.58 1.020-8.24 2-1.22 1.78 0.66 3.62 1.8 4.94 1.74 2.18 4.72 0.96 7.060 0.92 6.9-1 13.52 1.72 19.74 4.32 0.413 0.193 0.896 0.306 1.406 0.306 1.867 0 3.38-1.513 3.38-3.38 0-0.374-0.061-0.734-0.173-1.070-0.685-4.643-1.080-10.030-1.080-15.51 0-1.719 0.039-3.428 0.116-5.128-0.009-12.679-0.009-25.579-0.009-38.499 0.12-3.74-0.24-8.32 2.84-11.040 2.7-2 6 0 8.8 0.58 1.66-2 0.3-4.76-0.9-6.7-1.654-1.462-3.544-2.713-5.595-3.679-3.205-1.761-5.785-4.061-8.805-5.861-1.243-0.73-2.737-1.161-4.332-1.161-2.404 0-4.579 0.979-6.148 2.561-3.241 3.641-4.001 8.681-4.921 13.301-5.1-4-9.52-8.62-14.54-12.62-2.618-2.040-5.955-3.271-9.579-3.271-0.713 0-1.414 0.048-2.102 0.14-5.749 0.155-10.918 2.845-14.395 7-2.88 4.080-4.588 9.115-4.588 14.55 0 0.521 0.016 1.038 0.047 1.551q-0.003 22.729-0.003 45.509c0 3.54-0.64 7.66-3.76 9.82-2.4 2-5.58 1.72-8.42 2.22-0.693 0.16-1.203 0.772-1.203 1.503 0 0.178 0.030 0.349 0.086 0.508 0.83 1.868 2.093 3.426 3.666 4.587 4.311-0.478 8.691-1.398 13.031-0.498z" />
<glyph unicode="&#xe917;" d="M914.88 539.64c2.36 1.020 4.34 2.76 6.68 3.84 0.225 0.070 0.483 0.11 0.75 0.11 1.366 0 2.488-1.045 2.609-2.379 0.241-3.47-1.179-6.75-1.359-10.19 4.735 3.321 8.821 6.519 12.738 9.907 3.702 3.073 9.042 3.073 13.702 2.113 7.266-1.963 13.157-6.777 16.511-13.137 5.889-10.463 6.789-22.803 5.389-34.363-1.42-11.060-4.92-22.14-11.84-31.020-3.635-4.8-8.468-8.513-14.059-10.723-3.041-1.093-6.296-1.681-9.688-1.681-4.646 0-9.034 1.102-12.917 3.059 0.165-6.995 0.165-13.895 0.165-20.815 0.1-3.8 1.060-8.16 4.46-10.38s7.36-1.52 10.9-2.82c1.24-1.020-0.24-2.44-0.9-3.3-1.020-1-1.78-2.84-3.48-2.6-12.92 1.56-26 0.84-38.9 0-2.16 0-1.3 2.88-0.62 4.12 1.26 3.64 6.42 3.16 7.56 6.92 1.5 4.34 0.94 9.060 1.080 13.58q0 34.96 0 70c-0.16 5.64 0.4 11.34-0.42 16.94-0.22 2.52-2.76 3.42-4.9 3.68-1.36 0.46-3.64 0-3.9 2 0.589 2.271 2.033 4.133 3.96 5.258 1.612-0.293 3.418-0.473 5.267-0.473 4.057 0 7.912 0.867 11.39 2.425zM936.1 528.52c-7.64-2.18-12-10.44-12.5-18 0-10.66 0-21.32 0-32-0.1-4.52 0.52-9.72 4.26-12.78 2.154-1.57 4.853-2.512 7.772-2.512 4.205 0 7.954 1.955 10.387 5.005 4.021 5.547 4.861 12.527 5.461 19.087 0.182 2.165 0.286 4.687 0.286 7.232 0 6.337-0.643 12.524-1.867 18.499-0.852 4.388-2.961 8.763-5.94 12.4-1.549 1.91-3.957 3.153-6.656 3.153-0.424 0-0.842-0.031-1.249-0.090z" />
<glyph unicode="&#xe918;" d="M782.74 426.28c12.14 4.58 25.18 8.14 38.26 6.56 6.38-0.58 13.26-2.24 17.68-7.22s5.12-12.6 3.7-19c-3.22-13.66-14.8-24-27.64-28.56-2-0.68-5.28-0.38-6.14 2 1.329 1.973 2.771 3.695 4.373 5.253 6.247 7.667 8.007 19.427 2.387 28.007-3.092 4.588-8.252 7.577-14.113 7.62-9.047 0.38-17.807-3.16-25.227-8-6.959-4.435-11.983-11.38-13.82-19.531-1.56-8.529 1.16-16.909 4.96-24.209 6.26-12.2 16-22 23.82-33.16 5.16-7.36 9.82-15.36 11.7-24.26 0.473-2.013 0.744-4.324 0.744-6.698 0-5.546-1.478-10.747-4.062-15.229-5.261-9.052-14.101-15.512-23.081-20.852-11.407-7.115-24.889-12.073-39.338-13.947l-14.942-0.053c-10.2 1.24-20.7 5.84-26.2 14.94-2.149 3.269-3.428 7.276-3.428 11.582 0 3.089 0.658 6.024 1.842 8.673 3.246 8.125 10.246 14.205 17.706 18.705 4.66 2.84 9.7 6.38 15.46 5.38-0.38-4.52-4.18-7.36-6.7-10.74-3.44-4.38-5.82-10.18-4.3-15.78 1.82-7.32 7.84-12.86 14.38-16.14 5.015-2.486 10.921-3.941 17.166-3.941 2.615 0 5.171 0.255 7.643 0.742 5.933 1.147 11.181 4.5 14.788 9.181 4.763 6.598 5.623 15.158 4.303 22.918-1.72 9.66-6.8 18.28-12.52 26.1-8.36 11.42-18.44 21.74-24.72 34.56-2.553 4.747-4.054 10.388-4.054 16.38 0 2.528 0.267 4.994 0.775 7.371 2.714 9.413 8.303 17.503 15.758 23.314 9.681 8.116 21.281 13.356 32.841 18.036z" />
<glyph unicode="&#xe919;" d="M979.3 407.32c1.44 0.96 2.7 2.92 4.64 2.56 1.18-1 2.74-2.26 2.44-4-0.834-5.446-1.31-11.729-1.31-18.123 0-0.562 0.004-1.122 0.011-1.682q-0.001-35.235-0.001-70.575c0-4.78-0.16-9.8 1.7-14.3 1.64-3 5.4-3.2 8.36-4 1.62-0.16 0.62-1.74 0.16-2.54-0.84-1.3-2-3.060-3.7-2.84-6.58 0-13.1 1.26-19.68 0.76-3.789-0.426-8.181-0.669-12.63-0.669-0.517 0-1.033 0.003-1.549 0.010-0.702 1.519 0.518 3.039 1.418 4.179 1.42 1.86 4.18 2.14 5.32 4.28 1.35 2.959 2.136 6.418 2.136 10.061 0 0.316-0.006 0.631-0.018 0.944 0.001 24.655 0.001 49.335 0.001 73.955-0.28 3.46 0 7.64-2.84 10.16s-6.88 0.2-9.44 2.56c1.3 2.56 3.38 5.6 6.66 5.28 6.18 0.1 13.24-0.3 18.32 3.98z" />
<glyph unicode="&#xe91a;" d="M540.92 381.22c0.263-0.009 0.571-0.015 0.881-0.015 2.594 0 5.099 0.378 7.464 1.082-0.405-2.273-0.53-4.858-0.53-7.473 0-1.299 0.031-2.592 0.092-3.876-0.807-0.379-1.607-0.919-2.347-1.519-0.62 2.54-0.96 5.74-3.68 6.94-0.613 0.35-1.348 0.556-2.13 0.556-1.808 0-3.358-1.1-4.019-2.667-1.311-3.069-0.611-6.469-0.751-9.669 0.536-0.059 1.158-0.092 1.788-0.092 2.009 0 3.939 0.341 5.734 0.969 0.718 0.163 2.678 1.463 2.638-0.337-1.099-1.819-2.281-3.396-3.602-4.844-2.178 0.024-4.378 0.024-6.558 0.224 0-8 0-16 0-24-0.036-0.257-0.057-0.554-0.057-0.856 0-1.754 0.701-3.344 1.838-4.505 1.328-0.536 2.875-0.943 4.484-1.149 0.335-1.050-0.625-1.81-1.025-2.67-2.34 0.16-4.66 0.22-6.98 0.4-3.74 0.36-7.48-0.38-11.22-0.2 0.64 2 2.4 2.94 3.62 4.42 0.54 1.602 0.852 3.447 0.852 5.364 0 0.224-0.004 0.446-0.013 0.668 0.001 7.408 0.001 14.868 0.001 22.308-1.22 0-2.44 0.14-3.64 0.26 0.958 1.642 2.051 3.060 3.302 4.322 0.578 2.818 0.238 5.858 1.498 8.538 1.942 4.638 6.443 7.838 11.692 7.838 0.235 0 0.468-0.006 0.7-0.019z" />
<glyph unicode="&#xe91b;" d="M643.26 379.14c1.969 0.855 3.644 1.772 5.225 2.818 0.575-0.758 1.295-1.558 0.955-2.598-0.409-4.237-0.642-9.161-0.642-14.139 0-1.78 0.030-3.552 0.089-5.317 3.573 2.257 6.553 6.117 10.993 5.697 0.069 0.002 0.151 0.004 0.232 0.004 2.477 0 4.678-1.178 6.074-3.005 0.998-1.732 1.579-3.786 1.579-5.975 0-0.367-0.016-0.731-0.048-1.089 0.003-5.854 0.003-11.734 0.003-17.614-0.020-0.299-0.031-0.648-0.031-0.999 0-1.743 0.275-3.422 0.783-4.996 0.668-1.605 2.788-1.365 4.268-1.885 0.4-1.040-0.66-1.86-1.32-2.48-0.343-0.012-0.746-0.019-1.151-0.019-1.229 0-2.443 0.065-3.638 0.192-3.671 0.427-7.491-0.333-11.291-0.173 0.9 2.34 3.36 3.8 3.62 6.4 0.212 2.451 0.333 5.303 0.333 8.183 0 1.152-0.019 2.3-0.058 3.443 0.041 0.721 0.062 1.763 0.062 2.81 0 2.537-0.123 5.045-0.362 7.518-0.179 1.722-1.884 3.3-3.957 3.3-0.183 0-0.363-0.012-0.539-0.036-3.129-0.824-5.433-3.598-5.539-6.926 0-4.992 0-10.012 0-14.972 0.16-2 0-4.48 1.44-6.18 1-0.471 2.202-0.921 3.444-1.277 0.176-0.983-0.744-1.643-1.164-2.423-2.905 0.253-6.286 0.398-9.701 0.398-2.526 0-5.033-0.079-7.519-0.235 1.22 2.357 4.34 3.117 4.62 5.697 0.272 1.803 0.427 3.883 0.427 6 0 0.704-0.017 1.403-0.051 2.098 0.004 9.422 0.004 18.922 0.004 28.442 0.019 0.214 0.029 0.463 0.029 0.714 0 1.617-0.442 3.13-1.211 4.426-1.336 0.59-2.915 1.006-4.577 1.118 0.579 0.962 1.099 2.182 2.259 2.602 2.060 0.36 4.24 0.020 6.36 0.48z" />
<glyph unicode="&#xe91c;" d="M845.060 374.18c1.79 0.44 3.845 0.692 5.959 0.692 4.779 0 9.256-1.289 13.104-3.539 8.497-5.154 13.477-14.854 15.117-24.554 0.465-2.616 0.73-5.628 0.73-8.701 0-12.424-4.34-23.834-11.588-32.797-7.043-8.541-17.703-14.681-29.043-14.781-0.031 0-0.068 0-0.105 0-7.89 0-14.928 3.649-19.517 9.352-5.676 7.182-9.083 16.305-9.083 26.225 0 1.050 0.038 2.091 0.113 3.121 0.328 13.591 6.105 25.909 15.24 34.791 5.143 4.934 11.605 8.508 18.804 10.14zM840.24 360.66c-3.084-0.922-5.62-2.874-7.269-5.448-2.658-4.391-4.24-9.619-4.311-15.212-0.072-1.099-0.113-2.36-0.113-3.63 0-6.579 1.095-12.903 3.114-18.798 1.529-4.787 4.951-9.021 9.42-11.678 1.815-1.019 3.866-1.587 6.050-1.587 2.562 0 4.941 0.782 6.912 2.12 4.177 2.932 6.217 7.972 7.197 12.872 0.53 2.989 0.833 6.43 0.833 9.942 0 4.061-0.405 8.027-1.178 11.86-0.884 5.844-3.596 11.313-7.538 15.642-2.504 2.624-6.060 4.271-10.001 4.271-1.106 0-2.181-0.13-3.212-0.375z" />
<glyph unicode="&#xe91d;" d="M888.24 370.34c5.32 0 10.16 2.42 15.040 4.26 2 0.9 3.54-1.16 4.6-2.6-1.5-6.98-1.040-14.12-1.1-21.2q0-17.68 0-35.36c0-3.64 1-7.7 4-10 1.035-0.673 2.301-1.073 3.66-1.073s2.625 0.4 3.686 1.089c4.589 2.545 8.111 6.605 9.925 11.494 1.689 4.15 1.249 8.65 1.289 12.93 0 8 0 15.88 0 23.8 0 3.16-0.32 6.8-2.86 9.040s-6 1.82-8.94 2.46c0 0.014 0 0.031 0 0.048 0 2.421 1.344 4.528 3.327 5.615 2.733 0.417 5.413-0.463 8.133-0.363 5.54 0 10.6 2.34 15.66 4.26 0.306 0.114 0.66 0.181 1.029 0.181 1.668 0 3.020-1.352 3.020-3.020 0-0.191-0.018-0.378-0.052-0.559-1.417-7.621-0.777-15.401-0.917-23.121 0-11.54 0-23.080 0-34.62 0.14-2.58 0.38-5.6 2.44-7.44 2.52-2 5.66 0 8.36 0.46 0.294-0.684 0.465-1.48 0.465-2.316 0-1.739-0.74-3.305-1.921-4.4-2.224-1.744-4.944-2.744-7.204-4.444-2.9-1.84-5.56-4.7-9.22-4.82-0.199-0.019-0.429-0.030-0.663-0.030-2.408 0-4.545 1.16-5.884 2.951-2.554 3.379-3.254 7.659-4.014 11.679-4.82-3.8-9.040-8.3-13.88-12-4-3.12-9.5-2.98-14.22-1.9-4.711 1.058-8.576 4.039-10.797 8.056-1.738 3.373-2.732 7.262-2.732 11.384 0 0.246 0.004 0.492 0.011 0.736-0.001 13.964-0.001 27.964-0.001 42.084 0 3.42-0.64 7.36-3.68 9.42-2.24 1.7-5.16 1.38-7.74 2-1.040 0.14-0.94 1.4-0.74 2.14 0.716 1.55 1.835 2.811 3.224 3.679 2.896 0.221 5.776-0.659 8.696-0.499z" />
<glyph unicode="&#xe91e;" d="M623.44 373.18l2.62 0.64c-0.307-2.565-0.482-5.537-0.482-8.549 0-0.208 0.001-0.416 0.003-0.623 3.42-0.548 6.62 0.812 9.84 1.752-0.16-2.28-2-3.84-3.26-5.58h-6.56c-0.38-7.42-0.12-14.84-0.2-22.26-0.12-2.16 0.76-4.94 3.18-5.36 3.060 0 4.32 3.72 7 4.14 0.7-4-3-6.72-5.84-8.88-1.452-1.065-3.273-1.705-5.245-1.705-1.457 0-2.831 0.349-4.046 0.968-2.869 1.497-3.609 5.077-3.569 8.097 0 8.28 0 16.54 0 24.82-1.32 0-2.62 0-4 0 0.31 1.993 1.711 3.595 3.563 4.19 3.272 1.861 5.727 4.763 6.964 8.243z" />
<glyph unicode="&#xe91f;" d="M558.32 365.28c0.942 0.266 2.025 0.419 3.143 0.419 3.154 0 6.023-1.216 8.165-3.206 4.912-4.693 5.992-12.133 4.752-18.553-1.5-8.42-8.3-16.38-17.16-17.080-0.326-0.032-0.704-0.050-1.087-0.050-4.331 0-8.119 2.325-10.183 5.796-7.17 11.394-1.13 29.394 12.37 32.674zM555.52 358.62c-2.311-1.605-3.845-4.188-3.999-7.137-0.14-1.056-0.219-2.25-0.219-3.463 0-3.061 0.504-6.005 1.434-8.752 0.844-2.686 3.065-4.908 5.879-5.79 0.401-0.089 0.788-0.13 1.184-0.13 2.073 0 3.886 1.119 4.866 2.786 2.014 3.206 2.014 7.106 1.834 10.726-0.062 3.889-1.423 7.448-3.667 10.275-1.116 1.269-2.785 2.089-4.645 2.089-0.97 0-1.888-0.223-2.705-0.62z" />
<glyph unicode="&#xe920;" d="M582 363.28c1.787 0.737 3.329 1.63 4.731 2.697 1.949-2.037-0.051-4.777 0.089-7.137 2.22 2.16 3.86 5.080 6.72 6.52 2.24 0.82 6-0.12 6.16-2.92-1.109-2.607-2.548-4.848-4.3-6.803-1.32 0.943-2.28 3.363-4.2 2.723-2.8-1.64-3.72-5.16-3.78-8.18 0-5.2 0-10.4 0-15.6-0.016-0.127-0.024-0.274-0.024-0.423 0-1.559 0.97-2.892 2.339-3.428 1.385-0.289 2.765-0.509 4.165-0.769-0.64-0.84-1.24-1.7-1.84-2.56-2.587 0.22-5.599 0.346-8.64 0.346s-6.053-0.126-9.030-0.372c0.51 2.726 4.19 3.106 4.27 5.766 0.22 6.78 0 13.58 0 20.36 0.024 0.376 0.038 0.815 0.038 1.257 0 1.316-0.123 2.604-0.358 3.852-0.46 1.532-2.82 0.912-3.58 2.332 0.481 0.807 1.111 1.476 1.859 1.986 0.393-0.008 0.827-0.020 1.264-0.020 1.456 0 2.879 0.136 4.259 0.396z" />
<glyph unicode="&#xe921;" d="M676 358.56c2.541 4.002 6.823 6.703 11.754 7.037 0.334 0.028 0.669 0.043 1.007 0.043 3.294 0 6.263-1.39 8.353-3.614 2.338-2.793 3.755-6.416 3.755-10.37 0-0.527-0.025-1.047-0.074-1.561 0.005-1.735-1.995-2.415-3.475-2.335-5.44 0-10.88 0-16.32 0 0.24-4.22 0.88-8.84 4-12 1.523-1.341 3.534-2.16 5.737-2.16 1.772 0 3.42 0.53 4.795 1.44 2.208 1.24 3.468 3.84 5.968 4.54 0-5.12-4.18-8.86-8.36-11.16-1.862-1.009-4.076-1.602-6.428-1.602-3.193 0-6.131 1.093-8.461 2.924-2.877 2.496-4.91 5.955-5.596 9.876-0.369 1.692-0.573 3.52-0.573 5.394 0 5.024 1.46 9.708 3.979 13.649zM681.36 351.94c2.82-0.12 5.64-0.2 8.46 0 0.96 0 2.16 0.42 2 1.6 0.52 3.26-1.56 7.4-5.24 7.36-3.92-0.9-5.68-5.34-5.28-8.9z" />
<glyph unicode="&#xe922;" d="M276.78 418.56c72.28 6 144.76 10.16 217.3 11.26 38 0.48 75.9 0.2 113.78-2 4.896-0.018 9.050-3.174 10.556-7.561 0.362-1.296 0.556-2.694 0.556-4.137 0-8.13-6.172-14.819-14.086-15.636q-96.887 5.514-193.727 6.414c-66.82 0.62-133.66-0.32-200.4-3.5-23.12-1.2-46.24-2.4-69.28-4.44-27.3-2-54.56-4.8-81.7-8.3-16-2-32-4.76-48-7.28 0 0.48 0 1.46 0 2 16.88 3.28 33.88 5.88 50.84 8.56 71.060 10.72 142.54 18.56 214.16 24.62z" />
<glyph unicode="&#xe923;" d="M210.76 403.4c66.76 3.18 133.6 4.12 200.4 3.5q96.88-0.92 193.64-6.5c-2.785-4.238-7.518-6.997-12.895-6.997-0.467 0-0.928 0.021-1.384 0.061q-47.841 2.856-95.781 4.396c-101.22 3.18-202.56 3.16-303.72-2-60.64-3.24-121.3-8-181.22-18-3.26-0.5-6.5-1.3-9.8-1.52v2c30.42 5.66 61.020 10.18 91.68 14.4 16.58 2.2 33.18 4.46 49.8 6.24 23.040 2.020 46.16 3.22 69.28 4.42z" />
<glyph unicode="&#xe924;" d="M1014 302.92c1.816-0.012 3.517-0.492 4.991-1.327 1.538-0.834 2.813-2.096 3.665-3.626 0.866-1.481 1.364-3.206 1.364-5.047s-0.497-3.566-1.365-5.047c-0.842-1.53-2.103-2.797-3.627-3.649-1.482-0.867-3.206-1.364-5.047-1.364s-3.566 0.497-5.047 1.365c-1.531 0.849-2.798 2.116-3.648 3.647-0.867 1.482-1.364 3.207-1.364 5.048s0.497 3.566 1.365 5.047c0.857 1.531 2.139 2.793 3.685 3.629 1.484 0.838 3.2 1.32 5.028 1.324zM1014 301.26c-1.514-0.007-2.933-0.406-4.163-1.102-1.282-0.702-2.345-1.759-3.057-3.038-0.723-1.236-1.138-2.674-1.138-4.21s0.415-2.974 1.139-4.209c0.71-1.274 1.765-2.329 3.039-3.040 1.234-0.717 2.669-1.129 4.2-1.129s2.966 0.412 4.2 1.13c1.275 0.708 2.33 1.764 3.040 3.039 0.719 1.237 1.132 2.675 1.132 4.21s-0.413 2.973-1.133 4.21c-0.709 1.28-1.773 2.338-3.058 3.040-1.239 0.699-2.673 1.1-4.2 1.1zM1009.6 287.26v10.8h3.7c0.123 0.006 0.267 0.009 0.413 0.009 0.835 0 1.643-0.113 2.411-0.324 0.504-0.18 0.971-0.544 1.29-1.016 0.318-0.45 0.505-0.998 0.506-1.589-0.009-0.782-0.328-1.487-0.84-2-0.576-0.578-1.362-0.946-2.234-0.98 0.349-0.143 0.654-0.339 0.916-0.582 0.587-0.629 1.116-1.329 1.567-2.082l1.351-2.176h-2.12l-0.96 1.7c-0.474 0.977-1.084 1.811-1.817 2.517-0.355 0.244-0.789 0.387-1.258 0.387-0.051 0-0.102-0.002-0.152-0.005h-1.013v-4.58zM1011.34 293.26h2.12c0.082-0.007 0.177-0.011 0.273-0.011 0.637 0 1.233 0.175 1.742 0.48 0.309 0.275 0.513 0.69 0.513 1.153 0 0.312-0.093 0.602-0.252 0.845-0.181 0.247-0.432 0.441-0.725 0.551-0.439 0.124-0.93 0.193-1.438 0.193-0.11 0-0.22-0.003-0.328-0.010l-1.985 0.001z" />
<glyph unicode="&#xe925;" glyph-name="CloseIconCleanActive" d="M718.98 444.36l305.020-305.020-203.34-203.34-305.020 305.020-312.3-305.020-203.34 203.34 312.28 305.020-312.28 312.3 203.34 203.34 312.3-312.28 305.020 312.28 203.34-203.34-305.020-312.3z" />
<glyph unicode="&#xe926;" glyph-name="CollapsePhotostreamIcon" d="M27.2 372.26c51.7 57.6 114.38 20 118.5 17.3l365.78-248.18 0.52 0.34 0.52-0.34 365.78 248.18c4.14 2.78 66.8 40.3 118.5-17.3 51.2-57 21.2-110.26-16.42-136.74l-416.82-282.4c-7.358-5.095-15.809-9.437-24.81-12.61-8.342-2.909-17.097-4.474-26.213-4.51h-1.057c-9.133 0.037-17.888 1.601-26.040 4.45-9.177 3.236-17.613 7.578-25.317 12.903l-416.503 282.166c-37.62 26.48-67.62 79.74-16.42 136.74zM27.2 928.14c51.7 57.6 114.38 20 118.5 17.3l365.78-248.18 0.52 0.34 0.52-0.34 365.78 248.18c4.14 2.78 66.8 40.3 118.5-17.3 51.2-57.020 21.2-110.14-16.42-136.74l-416.82-282.4c-7.358-5.095-15.809-9.437-24.81-12.61-8.355-2.914-17.124-4.478-26.255-4.51h-1.055c-9.12 0.041-17.86 1.605-26 4.45-9.177 3.237-17.613 7.578-25.317 12.903l-416.503 282.166c-37.62 26.6-67.62 79.72-16.42 136.74z" />
<glyph unicode="&#xe927;" d="M26.54-39.22v0c-7.783 7.471-12.618 17.961-12.618 29.58s4.836 22.109 12.604 29.567l23.134 23.253c23.12 25.36 40 54.94 44.16 88.74s21.040 65.48 44.18 88.72l392 394.22 149.28-150-392-392.1c-23.12-23.24-54.66-40.14-88.3-44.36v0c-33.66-4.24-65.2-21.14-88.34-44.4l-23.12-23.22c-7.79-7.832-18.574-12.679-30.49-12.679s-22.7 4.847-30.488 12.677z" />
<glyph unicode="&#xe928;" d="M981.54 919.3c-54.28 54.28-143.56 54.28-197.84 0l-202-231.44-13.32 13.32c-8.095 7.983-19.218 12.913-31.493 12.913-24.775 0-44.86-20.085-44.86-44.86 0-12.275 4.93-23.399 12.918-31.498l15.415-15.415-390.96-393.14c-26-26-43.24-60.94-47.58-95.78-3.54-28.38-17.3-56-40.9-81.88l-22.92-23.060c-21.66-21.72-21.66-54.46 0-76.22v0c9.926-10.030 23.694-16.24 38.913-16.24 0.045 0 0.089 0 0.134 0h-0.007c0.014 0 0.031 0 0.047 0 15.219 0 28.987 6.211 38.908 16.235l23.125 23.245c22.18 22.3 51.8 37.2 81.24 40.9 34.7 4.36 69.46 21.8 95.36 47.82l391.36 391.36 15.78-15.78c8.095-7.983 19.218-12.913 31.493-12.913 24.775 0 44.86 20.085 44.86 44.86 0 12.275-4.93 23.399-12.918 31.498l-16.295 16.395 231.54 201.84c54.28 54.26 54.28 143.56 0 197.84zM278.68 81.3c-22.18-22.3-51.8-37.2-81.24-40.9-34.7-4.4-69.44-21.8-95.44-47.86l-23.060-23.22c-5.598-5.628-13.347-9.111-21.91-9.111s-16.312 3.483-21.909 9.11l-0.001 0.001c-5.581 5.277-9.054 12.733-9.054 21s3.474 15.723 9.041 20.987l23.494 23.633c27.16 29.78 43.060 61.88 47.22 95.4 3.68 29.62 18.52 59.4 40.72 81.7l383.46 385.66 132.18-132.82z" />
<glyph unicode="&#xe929;" glyph-name="delete-blank" d="M154.76 606.22q355.48 0 711 0 0-267.26 0-534.5c0-71.36-49.54-135.7-100.76-135.7q-261.24 0-522.46 0c-37.86 0-87.8 52.7-87.8 131.040q0.060 269.58 0.020 539.16zM331.88 523.28c-10.96 0.6-20.44-9.46-19.82-20.26q0.14-198 0-396.16c-0.18-9.42 6.84-17.62 14.76-21.82 13.080-1 26.28 0 39.4-0.46 15.34-2 25.16 15.72 22.82 29.26q-0.14 194.66 0 389.36c0.34 9.68-7.58 20-17.74 20-13.060 0.66-26.26 0.38-39.4 0.080zM488.34 523.28c-10.72 0.54-20-9.4-19.48-20q0.14-198.3 0-396.66c-0.2-9.2 6.7-17.060 14.24-21.44 11.46-1.42 23.14-0.14 34.72-0.62 5.12 0.32 10.74-0.9 15.54 1.4 6.34 4.96 12.54 12 12.34 20.52q0.18 198.38 0 396.74c0.44 10-8 20.28-18.46 20-12.86 0.52-25.9 0.48-38.88 0zM646.72 523.28c-0.282 0.015-0.612 0.023-0.945 0.023-10.825 0-19.6-8.775-19.6-19.6 0-0.149 0.002-0.297 0.005-0.445v0.022q0.14-198.3 0-396.62c0.34-11.040 10.16-23.48 22-22q16.4 0.14 32.82 0c12-1.58 21.56 11.080 22 22q0.14 198.34 0 396.72c0.3 9.44-7.32 19.56-17.26 19.68-12.82 0.94-25.94 0.48-39 0.26zM728.78 763.020q-20.5 58.7-40.78 117.54c-10.66 28-24.24 52-46.96 70.92-10 9-31.3 8-44 8.5h-170.1c-12.76-0.44-34 0.5-44-8.5-22.78-18.86-36.36-43.020-46.94-70.92q-20.4-58.78-40.78-117.54-108.72 0-217.44 0v-76.84q217.12 0 434.2 0t434.2 0v76.78q-108.68 0.14-217.4 0.060zM512 763.020h-130.96c9.8 23.68 20 47.2 29.8 70.84 1.76 5.322 6.691 9.095 12.502 9.095 0.422 0 0.839-0.020 1.251-0.059l-0.053 0.004q43.72 0 87.46 0t87.46 0c0.359 0.035 0.776 0.055 1.198 0.055 5.811 0 10.741-3.772 12.475-9.002l0.027-0.093c9.84-23.64 20-47.16 29.8-70.84z" />
<glyph unicode="&#xe92a;" d="M154.76 606.22q355.48 0 711 0 0-267.26 0-534.5c0-71.36-49.54-135.7-100.76-135.7q-261.24 0-522.46 0c-37.86 0-87.8 52.7-87.8 131.040q0.060 269.58 0.020 539.16zM331.88 523.28c-10.96 0.6-20.44-9.46-19.82-20.26q0.14-198 0-396.16c-0.18-9.42 6.84-17.62 14.76-21.82 13.080-1 26.28 0 39.4-0.46 15.34-2 25.16 15.72 22.82 29.26q-0.14 194.66 0 389.36c0.34 9.68-7.58 20-17.74 20-13.060 0.66-26.26 0.38-39.4 0.080zM488.34 523.28c-10.72 0.54-20-9.4-19.48-20q0.14-198.3 0-396.66c-0.2-9.2 6.7-17.060 14.24-21.44 11.46-1.42 23.14-0.14 34.72-0.62 5.12 0.32 10.74-0.9 15.54 1.4 6.34 4.96 12.54 12 12.34 20.52q0.18 198.38 0 396.74c0.44 10-8 20.28-18.46 20-12.86 0.52-25.9 0.48-38.88 0zM646.72 523.28c-0.282 0.015-0.612 0.023-0.945 0.023-10.825 0-19.6-8.775-19.6-19.6 0-0.149 0.002-0.297 0.005-0.445v0.022q0.14-198.3 0-396.62c0.34-11.040 10.16-23.48 22-22q16.4 0.14 32.82 0c12-1.58 21.56 11.080 22 22q0.14 198.34 0 396.72c0.3 9.44-7.32 19.56-17.26 19.68-12.82 0.94-25.94 0.48-39 0.26z" />
<glyph unicode="&#xe92b;" d="M389.1 503.18c0.34 9.68-7.58 20-17.74 20-13.12 0.76-26.32 0.48-39.46 0.18-10.96 0.6-20.44-9.46-19.82-20.26q0.14-198 0-396.16c-0.18-9.42 6.84-17.62 14.76-21.82 13.080-1 26.28 0 39.4-0.46 15.34-2 25.16 15.72 22.82 29.26q-0.080 194.58 0.040 389.26z" />
<glyph unicode="&#xe92c;" d="M527.38 523.18c-13 0.56-26 0.52-39.020 0-10.72 0.54-20-9.4-19.48-20q0.14-198.3 0-396.66c-0.22-9.2 6.7-17.060 14.24-21.44 11.46-1.42 23.14-0.14 34.72-0.62 5.12 0.32 10.74-0.9 15.54 1.4 6.34 4.96 12.54 12 12.34 20.52q0.18 198.38 0 396.74c0.58 10.14-7.96 20.42-18.34 20.060z" />
<glyph unicode="&#xe92d;" d="M686 523.020c-13.060 0.9-26.18 0.52-39.24 0.3-0.282 0.015-0.612 0.023-0.945 0.023-10.825 0-19.6-8.775-19.6-19.6 0-0.149 0.002-0.297 0.005-0.445v0.022q0.14-198.3 0-396.62c0.34-11.040 10.16-23.48 22-22q16.4 0.14 32.82 0c12-1.58 21.56 11.080 22 22q0.14 198.34 0 396.72c0.5 9.36-7.040 19.48-17.040 19.6z" />
<glyph unicode="&#xe92e;" d="M728.78 763.020q-20.5 58.7-40.78 117.54c-10.66 28-24.24 52-46.96 70.92-10 9-31.3 8-44 8.5h-170.1c-12.76-0.44-34 0.5-44-8.5-22.78-18.86-36.36-43.020-46.94-70.92q-20.4-58.78-40.78-117.54-108.72 0-217.44 0v-76.84q217.12 0 434.2 0t434.2 0v76.78q-108.68 0.14-217.4 0.060zM512 763.020h-130.96c9.8 23.68 20 47.2 29.8 70.84 1.76 5.322 6.691 9.095 12.502 9.095 0.422 0 0.839-0.020 1.251-0.059l-0.053 0.004q43.72 0 87.46 0t87.46 0c0.359 0.035 0.776 0.055 1.198 0.055 5.811 0 10.741-3.772 12.475-9.002l0.027-0.093c9.84-23.64 20-47.16 29.8-70.84z" />
<glyph unicode="&#xe92f;" d="M1005.94 448c0-272.796-221.144-493.94-493.94-493.94s-493.94 221.144-493.94 493.94c0 272.796 221.144 493.94 493.94 493.94s493.94-221.144 493.94-493.94z" />
<glyph unicode="&#xe930;" d="M512-64c-282.737 0.044-511.923 229.258-511.923 512 0 141.366 57.292 269.35 149.924 362.001 93.146 95.83 223.274 155.291 367.291 155.291 282.77 0 512-229.23 512-512 0-144.016-59.46-274.144-155.17-367.174-92.271-92.774-219.845-150.119-360.814-150.119-0.46 0-0.919 0.001-1.379 0.002zM512 923.88c-262.4 0-475.88-213.48-475.88-475.88s213.48-475.88 475.88-475.88 475.88 213.48 475.88 475.88-213.48 475.88-475.88 475.88z" />
<glyph unicode="&#xe931;" d="M284.64 548.7q226.26 0 452.52 0 0-170.1 0-340.18c0-45.42-31.52-86.36-64.12-86.36q-166.28 0-332.54 0c-24.1 0-55.88 33.54-55.88 83.4q0.040 171.56 0.020 343.14zM397.36 496c-0.062 0.001-0.136 0.002-0.209 0.002-6.859 0-12.42-5.561-12.42-12.42 0-0.169 0.003-0.338 0.010-0.506q-0.001-125.976-0.001-252.116c-0.12-6 4.34-11.22 9.4-13.88 8.32-0.64 16.72 0 25.080-0.3 9.76-1.28 16 10 14.52 18.62q0 123.9 0 247.82c0.22 6.16-4.82 12.74-11.3 12.68-8.3 0.38-16.7 0.2-25.080 0.1zM496.94 496c-0.025 0-0.055 0-0.085 0-6.804 0-12.32-5.516-12.32-12.32 0-0.127 0.002-0.253 0.006-0.379q0-126.202 0-252.442c-0.14-5.86 4.26-10.86 9.060-13.66 7.3-0.9 14.74 0 22-0.4 3.26 0.2 6.84-0.58 9.9 0.9 4 3.16 8 7.62 7.84 13.060q0.12 126.26 0 252.52c0.28 6.36-5.14 12.9-11.76 12.68-8.060 0.24-16.36 0.22-24.62-0.080zM597.74 496c-0.18 0.009-0.392 0.015-0.604 0.015-6.893 0-12.48-5.587-12.48-12.48 0-0.111 0.001-0.221 0.004-0.331q0-126.204 0-252.424c0.22-7.040 6.46-14.94 14-14q10.44 0 20.9 0c7.62-1 13.72 7.040 14 14q0 126.24 0 252.5c0.2 6-4.66 12.44-10.98 12.52-8.16 0.52-16.58 0.2-24.82 0.2z" />
<glyph unicode="&#xe932;" d="M650 648.5q-13.040 37.36-26 74.8c-6.78 17.76-15.42 33.14-29.88 45.14-6.4 5.72-20 5.12-28 5.4h-108.26c-8.12-0.28-21.64 0.32-28-5.4-14.46-12-23.1-27.38-29.88-45.14q-12.94-37.42-26-74.8-69.2 0-138.38 0v-48.9q138.18 0 276.36 0t276.36 0v48.86q-69.16 0.1-138.32 0.040zM512 648.5h-83.36c6.24 15.080 12.7 30 18.96 45.1 1.117 3.391 4.256 5.795 7.957 5.795 0.269 0 0.534-0.013 0.797-0.037q27.807 0.003 55.627 0.003t55.66 0c0.229 0.022 0.495 0.035 0.763 0.035 3.7 0 6.839-2.404 7.94-5.736 6.277-15.099 12.757-30.059 18.977-45.159z" />
<glyph unicode="&#xe933;" d="M987.94 448c0-262.854-213.086-475.94-475.94-475.94s-475.94 213.086-475.94 475.94c0 262.854 213.086 475.94 475.94 475.94s475.94-213.086 475.94-475.94z" />
<glyph unicode="&#xe934;" d="M512-64c-282.737 0.044-511.923 229.258-511.923 512 0 141.366 57.292 269.35 149.924 362.001l-0.001-0.001c93.147 95.831 223.275 155.292 367.292 155.292 282.77 0 512-229.23 512-512 0-144.016-59.46-274.144-155.17-367.174l-0.121-0.117c-92.15-92.657-219.724-150.002-360.693-150.002-0.46 0-0.919 0.001-1.379 0.002h0.072zM512 923.88c-262.4 0-475.88-213.48-475.88-475.88s213.48-475.88 475.88-475.88 475.88 213.48 475.88 475.88-213.48 475.88-475.88 475.88z" />
<glyph unicode="&#xe935;" d="M284.64 548.7q226.26 0 452.52 0 0-170.1 0-340.18c0-45.42-31.52-86.36-64.12-86.36q-166.28 0-332.54 0c-24.1 0-55.88 33.54-55.88 83.4q0.040 171.56 0.020 343.14zM397.36 496c-0.062 0.001-0.136 0.002-0.209 0.002-6.859 0-12.42-5.561-12.42-12.42 0-0.169 0.003-0.338 0.010-0.506l-0.001 0.024q0-126 0-252.14c-0.12-6 4.34-11.22 9.4-13.88 8.32-0.64 16.72 0 25.080-0.3 9.76-1.28 16 10 14.52 18.62q0 123.9 0 247.82c0.22 6.16-4.82 12.74-11.3 12.68-8.3 0.38-16.7 0.2-25.080 0.1zM496.94 496c-0.025 0-0.055 0-0.085 0-6.804 0-12.32-5.516-12.32-12.32 0-0.127 0.002-0.253 0.006-0.379v0.018q0-126.22 0-252.46c-0.14-5.86 4.26-10.86 9.060-13.66 7.3-0.9 14.74 0 22-0.4 3.26 0.2 6.84-0.58 9.9 0.9 4 3.16 8 7.62 7.84 13.060q0.12 126.26 0 252.52c0.28 6.36-5.14 12.9-11.76 12.68-8.060 0.24-16.36 0.22-24.62-0.080zM597.74 496c-0.18 0.009-0.392 0.015-0.604 0.015-6.893 0-12.48-5.587-12.48-12.48 0-0.111 0.001-0.221 0.004-0.331v0.016q0-126.22 0-252.44c0.22-7.040 6.46-14.94 14-14q10.44 0 20.9 0c7.62-1 13.72 7.040 14 14q0 126.24 0 252.5c0.2 6-4.66 12.44-10.98 12.52-8.16 0.52-16.58 0.2-24.82 0.2z" />
<glyph unicode="&#xe936;" d="M650 648.5q-13.040 37.36-26 74.8c-6.78 17.76-15.42 33.14-29.88 45.14-6.4 5.72-20 5.12-28 5.4h-108.26c-8.12-0.28-21.64 0.32-28-5.4-14.46-12-23.1-27.38-29.88-45.14q-12.94-37.42-26-74.8-69.2 0-138.38 0v-48.9q138.18 0 276.36 0t276.36 0v48.86q-69.16 0.1-138.32 0.040zM512 648.5h-83.36c6.24 15.080 12.7 30 18.96 45.1 1.117 3.391 4.256 5.795 7.957 5.795 0.269 0 0.534-0.013 0.797-0.037l-0.033 0.003q27.84 0 55.66 0t55.66 0c0.229 0.022 0.495 0.035 0.763 0.035 3.7 0 6.839-2.404 7.94-5.736l0.017-0.059c6.26-15.040 12.74-30 18.96-45.1z" />
<glyph unicode="&#xe937;" d="M154.76 606.22q355.48 0 711 0 0-267.26 0-534.5c0-71.36-49.54-135.7-100.76-135.7q-261.24 0-522.46 0c-37.86 0-87.8 52.7-87.8 131.040q0.060 269.58 0.020 539.16zM331.88 523.28c-10.96 0.6-20.44-9.46-19.82-20.26q0.14-198 0-396.16c-0.18-9.42 6.84-17.62 14.76-21.82 13.080-1 26.28 0 39.4-0.46 15.34-2 25.16 15.72 22.82 29.26q-0.14 194.66 0 389.36c0.34 9.68-7.58 20-17.74 20-13.060 0.66-26.26 0.38-39.4 0.080zM488.34 523.28c-10.72 0.54-20-9.4-19.48-20q0.14-198.3 0-396.66c-0.2-9.2 6.7-17.060 14.24-21.44 11.46-1.42 23.14-0.14 34.72-0.62 5.12 0.32 10.74-0.9 15.54 1.4 6.34 4.96 12.54 12 12.34 20.52q0.18 198.38 0 396.74c0.44 10-8 20.28-18.46 20-12.86 0.52-25.9 0.48-38.88 0zM646.72 523.28c-0.282 0.015-0.612 0.023-0.945 0.023-10.825 0-19.6-8.775-19.6-19.6 0-0.149 0.002-0.297 0.005-0.445v0.022q0.14-198.3 0-396.62c0.34-11.040 10.16-23.48 22-22q16.4 0.14 32.82 0c12-1.58 21.56 11.080 22 22q0.14 198.34 0 396.72c0.3 9.44-7.32 19.56-17.26 19.68-12.82 0.94-25.94 0.48-39 0.26z" />
<glyph unicode="&#xe938;" d="M389.1 503.18c0.34 9.68-7.58 20-17.74 20-13.12 0.76-26.32 0.48-39.46 0.18-10.96 0.6-20.44-9.46-19.82-20.26q0.14-198 0-396.16c-0.18-9.42 6.84-17.62 14.76-21.82 13.080-1 26.28 0 39.4-0.46 15.34-2 25.16 15.72 22.82 29.26q-0.080 194.58 0.040 389.26z" />
<glyph unicode="&#xe939;" d="M527.38 523.18c-13 0.56-26 0.52-39.020 0-10.72 0.54-20-9.4-19.48-20q0.14-198.3 0-396.66c-0.22-9.2 6.7-17.060 14.24-21.44 11.46-1.42 23.14-0.14 34.72-0.62 5.12 0.32 10.74-0.9 15.54 1.4 6.34 4.96 12.54 12 12.34 20.52q0.18 198.38 0 396.74c0.58 10.14-7.96 20.42-18.34 20.060z" />
<glyph unicode="&#xe93a;" d="M686 523.020c-13.060 0.9-26.18 0.52-39.24 0.3-0.282 0.015-0.612 0.023-0.945 0.023-10.825 0-19.6-8.775-19.6-19.6 0-0.149 0.002-0.297 0.005-0.445v0.022q0.14-198.3 0-396.62c0.34-11.040 10.16-23.48 22-22q16.4 0.14 32.82 0c12-1.58 21.56 11.080 22 22q0.14 198.34 0 396.72c0.5 9.36-7.040 19.48-17.040 19.6z" />
<glyph unicode="&#xe93b;" d="M728.78 763.020q-20.5 58.7-40.78 117.54c-10.66 28-24.24 52-46.96 70.92-10 9-31.3 8-44 8.5h-170.1c-12.76-0.44-34 0.5-44-8.5-22.78-18.86-36.36-43.020-46.94-70.92q-20.4-58.78-40.78-117.54-108.72 0-217.44 0v-76.84q217.12 0 434.2 0t434.2 0v76.78q-108.68 0.14-217.4 0.060zM512 763.020h-130.96c9.8 23.68 20 47.2 29.8 70.84 1.76 5.322 6.691 9.095 12.502 9.095 0.422 0 0.839-0.020 1.251-0.059l-0.053 0.004q43.72 0 87.46 0t87.46 0c0.359 0.035 0.776 0.055 1.198 0.055 5.811 0 10.741-3.772 12.475-9.002l0.027-0.093c9.84-23.64 20-47.16 29.8-70.84z" />
<glyph unicode="&#xe93c;" d="M154.76 606.22q355.48 0 711 0 0-267.26 0-534.5c0-71.36-49.54-135.7-100.76-135.7q-261.24 0-522.46 0c-37.86 0-87.8 52.7-87.8 131.040q0.060 269.58 0.020 539.16zM331.88 523.28c-10.96 0.6-20.44-9.46-19.82-20.26q0.14-198 0-396.16c-0.18-9.42 6.84-17.62 14.76-21.82 13.080-1 26.28 0 39.4-0.46 15.34-2 25.16 15.72 22.82 29.26q-0.14 194.66 0 389.36c0.34 9.68-7.58 20-17.74 20-13.060 0.66-26.26 0.38-39.4 0.080zM488.34 523.28c-10.72 0.54-20-9.4-19.48-20q0.14-198.3 0-396.66c-0.2-9.2 6.7-17.060 14.24-21.44 11.46-1.42 23.14-0.14 34.72-0.62 5.12 0.32 10.74-0.9 15.54 1.4 6.34 4.96 12.54 12 12.34 20.52q0.18 198.38 0 396.74c0.44 10-8 20.28-18.46 20-12.86 0.52-25.9 0.48-38.88 0zM646.72 523.28c-0.282 0.015-0.612 0.023-0.945 0.023-10.825 0-19.6-8.775-19.6-19.6 0-0.149 0.002-0.297 0.005-0.445v0.022q0.14-198.3 0-396.62c0.34-11.040 10.16-23.48 22-22q16.4 0.14 32.82 0c12-1.58 21.56 11.080 22 22q0.14 198.34 0 396.72c0.3 9.44-7.32 19.56-17.26 19.68-12.82 0.94-25.94 0.48-39 0.26z" />
<glyph unicode="&#xe93d;" d="M389.1 503.18c0.34 9.68-7.58 20-17.74 20-13.12 0.76-26.32 0.48-39.46 0.18-10.96 0.6-20.44-9.46-19.82-20.26q0.14-198 0-396.16c-0.18-9.42 6.84-17.62 14.76-21.82 13.080-1 26.28 0 39.4-0.46 15.34-2 25.16 15.72 22.82 29.26q-0.080 194.58 0.040 389.26z" />
<glyph unicode="&#xe93e;" d="M527.38 523.18c-13 0.56-26 0.52-39.020 0-10.72 0.54-20-9.4-19.48-20q0.14-198.3 0-396.66c-0.22-9.2 6.7-17.060 14.24-21.44 11.46-1.42 23.14-0.14 34.72-0.62 5.12 0.32 10.74-0.9 15.54 1.4 6.34 4.96 12.54 12 12.34 20.52q0.18 198.38 0 396.74c0.58 10.14-7.96 20.42-18.34 20.060z" />
<glyph unicode="&#xe93f;" d="M686 523.020c-13.060 0.9-26.18 0.52-39.24 0.3-0.282 0.015-0.612 0.023-0.945 0.023-10.825 0-19.6-8.775-19.6-19.6 0-0.149 0.002-0.297 0.005-0.445v0.022q0.14-198.3 0-396.62c0.34-11.040 10.16-23.48 22-22q16.4 0.14 32.82 0c12-1.58 21.56 11.080 22 22q0.14 198.34 0 396.72c0.5 9.36-7.040 19.48-17.040 19.6z" />
<glyph unicode="&#xe940;" d="M728.78 763.020q-20.5 58.7-40.78 117.54c-10.66 28-24.24 52-46.96 70.92-10 9-31.3 8-44 8.5h-170.1c-12.76-0.44-34 0.5-44-8.5-22.78-18.86-36.36-43.020-46.94-70.92q-20.4-58.78-40.78-117.54-108.72 0-217.44 0v-76.84q217.12 0 434.2 0t434.2 0v76.78q-108.68 0.14-217.4 0.060zM512 763.020h-130.96c9.8 23.68 20 47.2 29.8 70.84 1.76 5.322 6.691 9.095 12.502 9.095 0.422 0 0.839-0.020 1.251-0.059l-0.053 0.004q43.72 0 87.46 0t87.46 0c0.359 0.035 0.776 0.055 1.198 0.055 5.811 0 10.741-3.772 12.475-9.002l0.027-0.093c9.84-23.64 20-47.16 29.8-70.84z" />
<glyph unicode="&#xe941;" glyph-name="DoubleArrowLeft" d="M436.26-36.8c57.6 51.7 20 114.38 17.3 118.5l-248.18 365.78 0.34 0.52-0.34 0.52 248.18 365.78c2.78 4.14 40.3 66.8-17.3 118.5-57 51.2-110.26 21.2-136.74-16.42l-282.4-416.82c-5.095-7.358-9.437-15.809-12.61-24.81-2.909-8.342-4.474-17.097-4.51-26.213 0-0.197 0-0.357 0-0.537s0-0.34 0-0.52c0.037-9.133 1.601-17.888 4.45-26.040 3.236-9.177 7.578-17.613 12.903-25.317l282.166-416.463c26.48-37.66 79.74-67.66 136.74-16.46zM992.14-36.8c57.6 51.7 20 114.38 17.3 118.5l-248.18 365.78 0.34 0.52-0.34 0.52 248.18 365.78c2.78 4.14 40.3 66.8-17.3 118.5-57.020 51.2-110.14 21.2-136.74-16.42l-282.4-416.82c-5.095-7.358-9.437-15.809-12.61-24.81-2.914-8.355-4.478-17.124-4.51-26.255 0-0.195 0-0.355 0-0.535s0-0.34 0-0.52c0.041-9.12 1.605-17.86 4.45-26 3.237-9.177 7.578-17.613 12.903-25.317l282.166-416.503c26.6-37.62 79.72-67.62 136.74-16.42z" />
<glyph unicode="&#xe942;" glyph-name="DoubleArrowRight" d="M587.74-36.8c-57.6 51.7-20 114.38-17.3 118.5l248.18 365.78-0.34 0.52 0.34 0.52-248.18 365.78c-2.78 4.14-40.3 66.8 17.3 118.5 57 51.2 110.26 21.2 136.74-16.42l282.4-416.82c5.095-7.358 9.437-15.809 12.61-24.81 2.909-8.342 4.474-17.097 4.51-26.213 0-0.197 0-0.357 0-0.537s0-0.34 0-0.52c-0.037-9.133-1.601-17.888-4.45-26.040-3.236-9.177-7.578-17.613-12.903-25.317l-282.166-416.503c-26.48-37.62-79.74-67.62-136.74-16.42zM31.86-36.8c-57.6 51.7-20 114.38-17.3 118.5l248.18 365.78-0.34 0.52 0.34 0.52-248.18 365.78c-2.78 4.14-40.3 66.8 17.3 118.5 57.020 51.2 110.14 21.2 136.74-16.42l282.4-416.82c5.095-7.358 9.437-15.809 12.61-24.81 2.914-8.355 4.478-17.124 4.51-26.255 0-0.195 0-0.355 0-0.535s0-0.34 0-0.52c-0.041-9.12-1.605-17.86-4.45-26-3.237-9.177-7.578-17.613-12.903-25.317l-282.166-416.503c-26.6-37.62-79.72-67.62-136.74-16.42z" />
<glyph unicode="&#xe943;" glyph-name="eraser-copy-18" d="M436.26-36.8c57.6 51.7 20 114.38 17.3 118.5l-248.18 365.78 0.34 0.52-0.34 0.52 248.18 365.78c2.78 4.14 40.3 66.8-17.3 118.5-57 51.2-110.26 21.2-136.74-16.42l-282.4-416.82c-5.095-7.358-9.437-15.809-12.61-24.81-2.909-8.342-4.474-17.097-4.51-26.213 0-0.197 0-0.357 0-0.537s0-0.34 0-0.52c0.037-9.133 1.601-17.888 4.45-26.040 3.236-9.177 7.578-17.613 12.903-25.317l282.166-416.463c26.48-37.66 79.74-67.66 136.74-16.46zM992.14-36.8c57.6 51.7 20 114.38 17.3 118.5l-248.18 365.78 0.34 0.52-0.34 0.52 248.18 365.78c2.78 4.14 40.3 66.8-17.3 118.5-57.020 51.2-110.14 21.2-136.74-16.42l-282.4-416.82c-5.095-7.358-9.437-15.809-12.61-24.81-2.914-8.355-4.478-17.124-4.51-26.255 0-0.195 0-0.355 0-0.535s0-0.34 0-0.52c0.041-9.12 1.605-17.86 4.45-26 3.237-9.177 7.578-17.613 12.903-25.317l282.166-416.503c26.6-37.62 79.72-67.62 136.74-16.42z" />
<glyph unicode="&#xe944;" glyph-name="ExpandPhotostreamIcon" d="M27.2 523.74c51.7-57.6 114.38-20 118.5-17.3l365.78 248.18 0.52-0.34 0.52 0.34 365.78-248.18c4.14-2.78 66.8-40.3 118.5 17.3 51.2 57 21.2 110.26-16.42 136.74l-416.82 282.4c-7.358 5.095-15.809 9.437-24.81 12.61-8.342 2.909-17.097 4.474-26.213 4.51h-1.057c-9.133-0.037-17.888-1.601-26.040-4.45-9.177-3.236-17.613-7.578-25.317-12.903l-416.503-282.166c-37.62-26.48-67.62-79.74-16.42-136.74zM27.2-32.14c51.7-57.6 114.38-20 118.5-17.3l365.78 248.18 0.52-0.34 0.52 0.34 365.78-248.18c4.14-2.78 66.8-40.3 118.5 17.3 51.2 57.020 21.2 110.14-16.42 136.74l-416.82 282.4c-7.358 5.095-15.809 9.437-24.81 12.61-8.355 2.914-17.124 4.478-26.255 4.51h-1.055c-9.12-0.041-17.86-1.605-26-4.45-9.177-3.237-17.613-7.578-25.317-12.903l-416.503-282.166c-37.62-26.6-67.62-79.72-16.42-136.74z" />
<glyph unicode="&#xe945;" d="M39.52 640.16h944.96c21.819 0 39.509-17.682 39.52-39.499v-305.321c0-21.826-17.694-39.52-39.52-39.52h-944.96c-21.826 0-39.52 17.694-39.52 39.52v305.32c0.011 21.818 17.701 39.5 39.52 39.5z" />
<glyph unicode="&#xe946;" d="M187.26 517.24v-24h-13.26s-12.2 1.7-12.2-9.82v-19.42h25.4l-3.040-26h-22.3v-73.14h-29.12v73.48h-19.64v25.66h20.66v22c-0.176 1.098-0.277 2.364-0.277 3.654 0 7.317 3.242 13.876 8.367 18.32 6.653 5.708 15.328 9.167 24.811 9.167 0.098 0 0.196 0 0.294-0.001h20.305zM257.7 463.64v-13.2c-7.44 9.82-18 16-29.46 16-22.68 0-40.98-20-40.98-52.48s18.28-52.48 40.98-52.48c11.52 0 22.34 6 29.8 16.26l-0.34-12.86h28.1v98.86h-28.1zM256 404.14c0-10.493-8.507-19-19-19s-19 8.507-19 19v18.96c0 10.493 8.507 19 19 19s19-8.507 19-19v-18.96zM516 364.14v13.2c7.44-9.82 18-16 29.46-16 22.68 0 40.98 20 40.98 52.48s-18.28 52.48-40.98 52.48c-11.52 0-22.34-6-29.8-16.26l0.34 65.52-29.4-3.4v-147.64l29.46-0.34zM517.76 423.78c0 10.493 8.507 19 19 19s19-8.507 19-19v-18.96c0-10.493-8.507-19-19-19s-19 8.507-19 19v18.96zM349.46 385.52s-22.68-1.36-22.68 28.1v1.7c0 29.12 22.68 28.1 22.68 28.1 15.24 0.34 20.66-5.080 20.66-5.080l7.12 21.34c-12.2 9.14-49.1 10.5-65.7-4.74-14.22-13.2-14.22-34.54-14.22-40.3-0.34-5.42-0.34-27.080 14.22-40.3 16.6-15.24 53.5-13.88 65.7-4.74l-7.12 21.34c0-0.34-5.42-5.76-20.66-5.42z" />
<glyph unicode="&#xe947;" d="M474.42 403.48s11.86 62-44.7 62.3-48.42-55.78-48.42-55.78c1.36-34.2 16.94-44 44-47.4 3.325-0.444 7.169-0.697 11.073-0.697 13.163 0 25.654 2.88 36.876 8.043l-6.549 19.774s-21.68-6.78-38.94-5.080c-17.26 1.36-16 19.3-16 19.3h62.64zM411.1 423.48s-1.36 22 18.28 22 18.28-22 18.28-22h-36.58zM645.080 465.14c-36.92 0-49.1-22.34-49.1-51.8 0-31.5 16-51.8 49.1-51.8 27.080 0 49.1 18.28 49.1 51.8 0 28.78-14.22 51.8-49.1 51.8zM664 404.82c-0.373-10.506-8.794-18.927-19.265-19.299-10.596 0.239-19.095 8.738-19.334 19.276v18.983c0.373 10.506 8.794 18.927 19.265 19.299 10.596-0.239 19.095-8.738 19.334-19.276v-18.983zM753.74 465.1c-36.92 0-49.1-22.34-49.1-51.8 0-31.5 16-51.8 49.1-51.8 27.080 0 49.1 18.28 49.1 51.8 0 28.78-14.22 51.8-49.1 51.8zM772.7 404.82c-0.373-10.506-8.794-18.927-19.265-19.299-10.596 0.239-19.095 8.738-19.334 19.276v18.983c0.373 10.506 8.794 18.927 19.265 19.299 10.596-0.239 19.095-8.738 19.334-19.276v-18.983zM906.12 364.52l-32.12 49.78 30.8 49.7h-31.48l-30.14-44.7v96.94l-29.46-3.040v-148.66h29.46v50.44l32.5-50.46z" />
<glyph unicode="&#xe948;" glyph-name="FillContainerIcon" d="M204.46 808.72c51 0.56 102.46-0.5 153.46 0.48 0-17.12-0.16-33.44-0.16-50.74-18.6-0.1-52.22-0.12-52.22-0.12q-0.16-104 0-208c222.7-0.2 669.76 0 669.76 0 0.24 17.3 0 34.6 0 51.88q24.26 0 48.6 0v-154.4q-24.32 0-48.6 0c-0.28 17.3 0.44 34.62-0.12 52h-669.74q-0.1-181.22 0-362.52s35.24 0 52.16 0c0-16.74 0-33.64 0-50.4h-153.14c-0.12 22.66 0 36.4 0 50.4 18 0 32.94 0 50.56 0l0.1 1.64c0 12.7-0.12 360.88-0.12 360.88q-102.34 0.24-204.66 0l-1.66-0.1c0-17.52 0-34.58 0-51.88q-24.28 0-48.58 0v154.4q24.28 0 48.6 0c0-17.5 0.12-34.28 0.12-52h1.64c68.22 0 136.46-0.16 204.68 0v208.2c-17.12 0-33.32 0-50.6 0-0.080 17.56-0.060 31.28-0.080 50.28z" />
<glyph unicode="&#xe949;" glyph-name="FitToContainerIcon" d="M364.56 809.2c52.86 0 96.82-0.36 146.94-0.5 0-18.24 0-32.54 0-49.5h-48.82c0-68.76-0.22-139.28 0-208h1.16c97.58 0 196.44-0.1 294 0 0 24-0.16 34.4 0 51.22 18.56 0 31.54 0 47.54 0 0-51.26 0.18-102.52-0.1-153.78-15.8-0.28-30.64 0-47.4 0-0.12 16.54 0 36 0 51.24-98 0-197.24 0.24-295.2-0.12-0.18-120.48-0.12-242.2 0-362.66 15.060 0 30.7 0 48.7 0 0-16.68 0-33.36 0-50h-146.32c-0.12 22 0 30.12-0.32 50 17.18 0.16 33.14 0.16 49.060 0.16 0.12 25.44 0 319.86 0 361.56v1.2c-48.76 0.16-98.16 0.12-146.92 0v-51.62c-16.58-0.14-26.9 0-48.2 0-0.22 51.24 0 102.6 0 153.84 16.78 0 25.9 0 48.16 0v-51.22c48.76 0 98.18-0.18 146.94 0 0.28 19.16 0 38.3 0 57.46q0 32.52 0 65.060 0 26.9 0 53.8c0 10 0 21.52 0 31.72-18 0-30.64 0-48.94 0-0.040 16.66-0.020 32.66-0.28 50.14z" />
<glyph unicode="&#xe94a;" d="M548.94 448c0-131.179 106.341-237.52 237.52-237.52s237.52 106.341 237.52 237.52c0 131.165-106.319 237.497-237.478 237.52-0.008 0-0.015 0-0.022 0-131.183 0-237.529-106.339-237.54-237.519z" />
<glyph unicode="&#xe94b;" d="M0 448c0-131.179 106.341-237.52 237.52-237.52s237.52 106.341 237.52 237.52c0 131.179-106.341 237.52-237.52 237.52-131.174-0.011-237.509-106.346-237.52-237.519z" />
<glyph unicode="&#xe94c;" glyph-name="Frame0" d="M0 953.18h1024v-1010.34h-1024v1010.34z" />
<glyph unicode="&#xe94d;" glyph-name="Frame1" d="M215.040 753.5h808.96v199.68h-1024v-1010.36h215.040v810.68z" />
<glyph unicode="&#xe94e;" glyph-name="Frame2" d="M612.7 346.46h411.3v606.72h-1024v-1010.36h612.7v403.64z" />
<glyph unicode="&#xe94f;" glyph-name="Frame3" d="M888.32 75.1h135.68v878.080h-1024v-1010.36h888.32v132.28z" />
<glyph unicode="&#xe950;" glyph-name="Frame4" d="M1024 438v515.18h-1024v-1010.36h534.32c16.78 264.040 226.44 475.52 489.68 495.18z" />
<glyph unicode="&#xe951;" d="M0 960v-1024c36.68 36.3 72.64 73.26 109.2 109.66 66.4 66.2 132.22 133 198.7 199.1 38.2 39.14 77.24 77.46 115.82 116.26q49.4 50.12 99.34 99.82c36 35.8 71.48 72.28 107.6 108 48.92 48.64 97.16 98 146 146.54 31.82 31.46 62.92 63.62 94.68 95.14 50 49.52 99.080 99.84 149 149.4zM277.1 426c-47.8 52.8-96 105.26-144 158 23.46 25.36 47.28 50.38 70.86 75.64 24.5-26 48.68-52.2 73.5-77.84 44.38 48.68 89.44 96.8 134 145.28 30.48 33.28 61.64 66 91.7 99.6 10-8.44 18.54-18.64 28-27.82 15.32-15.1 30.26-30.58 45.3-46q-149.82-163.28-299.36-326.86z" />
<glyph unicode="&#xe952;" d="M531.28 798.76c-9.42 9.18-17.86 19.38-28 27.82-30-33.64-61.22-66.34-91.7-99.6-44.64-48.46-89.7-96.58-134-145.28-24.84 25.62-49 51.9-73.5 77.84-23.56-25.26-47.4-50.28-70.86-75.64 48-52.68 96.1-105.16 144-158q150 163.2 299.48 326.86c-15.16 15.42-30.1 30.9-45.42 46z" />
<glyph unicode="&#xe953;" glyph-name="InfoIcon" d="M621.34 101.34v538.66h-325.34v-165.34h101.34v-373.32h-101.34v-165.34h432v165.34h-106.66zM633.62 838.38c0-67.169-54.451-121.62-121.62-121.62s-121.62 54.451-121.62 121.62c0 67.169 54.451 121.62 121.62 121.62s121.62-54.451 121.62-121.62z" />
<glyph unicode="&#xe954;" glyph-name="italic" d="M580.96-51.76c-10.686-3.488-23.638-6.567-36.921-8.649-14.232-2.338-28.934-3.574-43.922-3.591q-68.657 0-102.617 34.32t-34 92c0.192 14.276 1.421 28.106 3.616 41.613q3.164 21.467 10.664 55.467l101.24 481.76h112.8l-101.82-484.32q-6.12-28.54-8.5-44.16c-1.367-7.868-2.227-17.023-2.378-26.35q-0.002-28.030 15.278-42.61t48.58-14.6c0.657-0.008 1.433-0.012 2.21-0.012 10.127 0 20.084 0.731 29.82 2.144 8.279 1.295 16.636 3.428 24.648 6.286zM660.46 889.34c0.007-0.387 0.012-0.844 0.012-1.302 0-19.851-7.909-37.855-20.747-51.034-12.44-13.383-30.164-21.74-49.839-21.74-0.508 0-1.016 0.006-1.521 0.017-0.128-0.003-0.368-0.005-0.608-0.005-20.067 0-38.223 8.185-51.311 21.398-13.577 12.872-22.022 31.031-22.022 51.161 0 0.529 0.006 1.056 0.017 1.583q-0.001 31.162 21.999 50.882c13.371 12.221 31.249 19.708 50.876 19.708 0.395 0 0.79-0.003 1.184-0.009 0.365 0.010 0.866 0.015 1.368 0.015 19.253 0 36.724-7.631 49.553-20.034q21.040-19.981 21.040-50.641z" />
<glyph unicode="&#xe955;" glyph-name="LayoutsIcon" d="M0 935.72h1024v-975.44h-1024zM57.2 880.84q0-431.24 0-862.48h905.54q0 431.22 0 862.44-452.74 0.14-905.54 0.040zM127.72 813.8h256v-731.6h-256q-0.020 365.8 0 731.6zM447.56 508.98c0 101.62 0 203.24 0 304.86q223.88-0.16 447.78 0 0-152.38 0-304.78-223.86-0.12-447.78-0.080zM447.56 448q224 0 447.86 0 0-182.88 0-365.76-224 0-447.86 0 0 182.86 0 365.76z" />
<glyph unicode="&#xe956;" glyph-name="leftAlign" d="M0 792h1024v-48h-1024v48zM143.98 632h736.040v-48h-736.040v48zM0 472h1024v-48h-1024v48zM112.040 312h800.020v-48h-800.020v48zM0 152h1024v-48h-1024v48z" />
<glyph unicode="&#xe957;" d="M404.1 929.36l-404.1-188.44v-774.28l404.1 215.82h619.9v746.9h-619.9z" />
<glyph unicode="&#xe958;" d="M224.6 514.8c-0.023 0-0.050 0-0.077 0-15.018 0-28.664-5.872-38.768-15.444l0.026 82.984-48.32-22.68v-232.4h48.32v10.5c10.161-8.908 23.56-14.343 38.23-14.343 0.208 0 0.415 0.001 0.622 0.003 45.448 0 71.328 38.48 71.328 93.42 0.040 68.58-32.18 97.96-71.36 97.96zM218.28 368.8c-14 0-25.18 5.6-32.52 15.76v69.44c7 9.1 14.66 15.42 29.74 15.42 18.88 0 31.48-15.76 31.48-53.58 0.020-30.84-10.16-46.94-28.7-46.94z" />
<glyph unicode="&#xe959;" d="M335.82 327.26h48.3v255.080l-48.3-22.7v-232.38z" />
<glyph unicode="&#xe95a;" d="M542 410.52c0-31.84-11.56-41.64-31.5-41.64s-31.12 9.8-31.12 42.72v99.36h-48.36v-103.6c0-51.76 21-84 67.88-84 19.24 0 34.62 7.34 43.040 16v-12.24h48.26v183.84h-48.2z" />
<glyph unicode="&#xe95b;" d="M685.38 498.7v12.24h-48.28v-183.7h48.28v99.4c0 31.84 12.24 39.88 31.12 39.88 10.82 0 20.26-4.9 28-11.9l12.6 47.26c-6.32 6.64-18.16 12.92-34 12.92-0.19 0.003-0.415 0.004-0.64 0.004-14.619 0-27.794-6.183-37.053-16.076z" />
<glyph unicode="&#xe95c;" d="M874 514.8c-0.024 0-0.053 0-0.082 0-15.023 0-28.674-5.871-38.784-15.444l0.026 82.984-48.36-22.76v-232.32h48.3v10.5c10.145-8.909 23.531-14.344 38.186-14.344 0.251 0 0.502 0.002 0.752 0.005 45.422 0 71.322 38.48 71.322 93.42-0.040 68.58-32.22 97.96-71.36 97.96zM867.68 368.8c-14 0-25.2 5.6-32.54 15.76v69.44c7 9.1 14.7 15.42 29.72 15.42 18.92 0 31.5-15.76 31.5-53.58-0.020-30.84-10.18-46.94-28.72-46.94z" />
<glyph unicode="&#xe95d;" glyph-name="ArrowNext" d="M542.42 873.4c138-186.2 310.32-310 481.58-423.14-176-102.26-352.12-231.2-484.44-427.66 18.44 104.98 52.44 203.2 70.6 308.42-238.18 0.28-361.54-0.18-608.96 0.62 0.020 83.52 0.020 164.22-1.2 250.36 220 1.020 409-5.5 612.44 1.26-23.46 95.68-50.64 192.74-70.020 290.14z" />
<glyph unicode="&#xe95e;" d="M969.36 448c0-252.593-204.767-457.36-457.36-457.36s-457.36 204.767-457.36 457.36c0 252.593 204.767 457.36 457.36 457.36s457.36-204.767 457.36-457.36z" />
<glyph unicode="&#xe95f;" glyph-name="PageBackgroundIcon" d="M1017.6 539.2c-6.811 25.939-16.562 48.686-29.138 69.536q-19.342 33.004-39.222 64.324c-33.754 54.462-76.537 99.968-126.738 135.738q-78.322 57.922-166.502 80.702-88.28 25.64-185.12 17.080t-190.88-54.1q-94-42.72-156.64-114-65.5-71.2-96.84-153.78c-16.801-42.697-26.54-92.146-26.54-143.871 0-9.475 0.327-18.874 0.97-28.186q2.79-87.023 48.35-169.623t99.68-139.54q51.26-56.96 116.76-85.44c41.78-17.1 96.24-32.38 147.62-30.62 235.3 8 297.56 137.1 306.9 192.76 6.92 41.16-8.38 81.5-22.42 110.36-8.72 18-28.92 66.3-31.24 85.32-2 15.8-0.86 32.3 7.72 45.76 8 12.46 20.3 23.020 33.86 27 32.1 9.44 59.42-6.46 71.66-11.66q24-10.16 49.8-23.060c24.197-11.98 54.318-24.495 85.264-35.244q51.436-16.016 77.076 18.224t31.3 71.12c0.423 5.236 0.665 11.336 0.665 17.491 0 19.059-2.313 37.578-6.674 55.29zM200.12 639.2c23.32 40.4 88.86 46.24 146.36 13.040s85.22-92.88 61.88-133.28-88.86-46.24-146.36-13.040-85.22 92.82-61.88 133.22zM442.98 244c-27-52.22-107.42-64.3-179.6-26.96s-108.8 110-81.78 162.16 107.42 64.3 179.6 26.96 108.8-109.94 81.78-162.16zM581.84 633.18c-8.24-4.72-24.3-17.42-59.8-14.24-11.5 1.040-22.78 4.74-34.18 8.54-11.936 6.004-22.211 12.655-31.683 20.266-8.687 6.863-16.264 15.35-22.199 24.959-2.869 4.639-5.484 9.603-7.752 14.755-1.866 4.46-6.446 16.22-4.306 28.66s6.66 22.92 17.6 31.060c6.913 5.271 15.006 9.432 23.772 12.026 8.468 2.22 17.584 3.418 26.979 3.418 16.453 0 32.047-3.673 46.009-10.243 10.495-4.555 20.107-10.206 28.918-16.86 7.212-5.881 13.797-12.783 19.425-20.433 6.949-9.683 11.898-20.815 14.305-32.864 5.551-22.464-7.529-43.564-17.069-49.044zM786.84 628c-12.86-25.76-53.14-31.76-90-13.38s-56.22 54.16-43.36 80 53.14 31.76 90 13.38 56.22-54.18 43.36-80z" />
<glyph unicode="&#xe960;" glyph-name="PageNumberDivider" horiz-adv-x="140" d="M33.76 960h72.48v-75.3q-36.26 0-72.5 0zM33.76 722.66q36.26 0 72.5 0v-74.66q-36.26 0-72.5 0zM33.76 489.32q36.26 0 72.5 0v-82.64q-36.26 0-72.5 0zM33.76 252.62q36.26 0 72.5 0v-83.28h-72.5zM33.76 15.3h72.48v-79.3h-72.48z" />
<glyph unicode="&#xe961;" glyph-name="Px500Graphic" d="M61.8 660.3h267.6c0-23.080 0-46.18 0-69.26q-98.86 0-197.7 0c-6.58-32.1-12.84-64.28-19.14-96.46 13.74 10.34 28.12 20.72 44.96 25.42 40.6 12 86.48 9.74 124.48-9.54 25.098-12.476 44.952-32.337 57.092-56.713 11.288 22.533 26.328 44.693 47.968 59.273 26.636 19.124 59.899 30.582 95.838 30.582 0.303 0 0.606-0.001 0.908-0.002 48.414 3.36 96.194-15.6 134.194-44.76 21.252-17.216 40.298-34.995 58.036-54.010 15.344 15.85 31.284 31.19 47.724 45.93 34.92 29.24 78.24 50.32 124.24 53.1 2.271 0.069 4.943 0.108 7.623 0.108 20.539 0 40.539-2.306 59.757-6.672 36.56-10.396 72.2-35.136 90.44-71.216 11.76-21.46 17.1-45.8 18.22-70.12v-4.88c-0.94-36.7-13.66-73.48-38-101.32-19.593-21.414-45.035-37.173-73.795-44.761-37.065-9.219-75.625-8.999-111.065 2.341-21.040 7.4-42 16-60 29.34-24.12 15.2-44.14 35.62-64.78 55.060-11.74-10.28-23.46-20.6-34.8-31.3-34.9-32.66-79.34-56.54-127.36-61.34-20.34-0.78-40.94-1.060-60.98 3.2-47.48 8.88-92.16 39.66-112 84.48-20.52-41.68-60.98-72-105.52-83.66-15.692-4.711-33.723-7.423-52.388-7.423-1.713 0-3.421 0.023-5.123 0.068-37.989-0.405-76.989 6.335-111.009 24.495-24.68 14.26-46.88 34.76-58 61.54-4.979 11.425-8.28 24.677-9.201 38.58l-0.019 7.52c32.18 0 64.32 0 96.5 0 2.48-29.48 26.16-54.82 54.94-60.58 16.7-2.98 34.26-3.66 50.7 1.18 28.18 8.62 50 34.1 54.74 63.1 3 14 0.44 28.34-3.46 41.86-6.9 20.18-23.82 35.72-43.080 44.1-18.18 6.92-38.26 6.32-57.3 4.12-20.46-2.78-37.8-15.68-50.46-31.48-29.28-0.14-58.58 0-87.86 0 15.78 76.64 31 153.46 47.080 230.1zM452.7 451.88c-16.593-11.251-28.559-28.253-33.078-48.089-3.022-20.631 0.258-43.091 14.718-58.291 9.333-11.119 22.363-18.867 37.178-21.35 6.822-1.333 14.249-2.066 21.847-2.066 19.31 0 37.514 4.74 53.51 13.119 27.365 12.317 51.365 32.177 72.625 54.137-28.8 26-58.8 52.52-95.8 66-22.94 7.96-49.3 8.14-71-3.46zM828.7 456.72c-37.68-12.7-66.82-40.92-95.3-67.4 18-17.78 36.82-35.38 59.4-47.18 26.6-16.44 59.28-24.66 90.24-17.66 14.409 2.851 26.743 10.28 35.732 20.68 26.488 30.54 18.708 83.6-15.932 104.68-21.96 13.82-49.94 13.74-74.2 6.88z" />
<glyph unicode="&#xe962;" glyph-name="RedoIcon" d="M790.4 533.1l78.76 160.26 154.84-548.66-494.34 135.8 144 76s-82 153.040-178.14 203.14c-56.14 32.6-125.16 44-210.26 22.3q-125-35.26-285.26-257.94 144 309.6 285.2 380.22t255.32 35.32c149.86-52 249.88-206.42 249.88-206.42zM869.16 693.38v0z" />
<glyph unicode="&#xe963;" glyph-name="ResetStyleIcon" d="M873.6 371.8c-11-20.6-21.8-41.2-32.6-61.8h81.8c10.6 20.6 21.8 41 32.4 61.8-27.2 0-54.4-0.2-81.6 0zM801.2 237.6c-10.4-20.8-21.6-41.2-32.2-61.8 27.2 0 54.6 0 81.8 0 10.6 20.6 21.8 41 32.4 61.8-27.4 0-54.6 0.2-82 0zM693.4 45.2h81.8c13.2 20.6 26.4 41.2 39.4 61.8-28.2 0-56.6 0-85 0-12.2-20.4-24.2-41.2-36.2-61.8zM942.4 505.8c-11-20.6-21.8-41.2-32.6-62 27.2 0 54.6 0 81.8 0 10.6 20.8 21.8 41.2 32.4 61.8-27.2 0.2-54.4 0-81.6 0.2zM857.2 509.2c0 4.6 1.2 9.2 3.2 13.2 0 4.4 0 8.8 0 13.2s0 8.8 0 13.2v234.4c0 15.4-2.2 28.6-6.6 39.6-3.8 12.4-10.6 23.6-19.6 33-8.4 8.6-18.4 15.4-29.4 19.8s-24 6.6-39.2 6.6h-399.2c-63 0-81.8-43.6-98-72.6l-252-429.2c-4.6-4.6-7.8-10.4-9.8-16.6-1.8-5.6-4-11.2-6.6-16.6v-221.2c0-57.6 14.2-68.2 23-79 8.8-8.8 18.8-16.6 29.4-23.2 12.2-6.4 25.6-9.8 39.2-10h445c54.8 0 74.4 29.4 91.6 66l222.4 412.8c2.6 5.4 4.8 10.8 6.6 16.6zM481 99.6h-389.4c-8.4 1-10.2 6.6-9.8 18.2v193h399.2v-211.2zM500.6 396.8h-376.2l222.4 383c0 0 8.8 19.6 19.6 19.8h373l-238.8-402.8zM775.4 548.6c0-2.2 0-2.2 0-3.2 0-0.8 0-1.8 0-3.4 0-2.2 0-3.2 0-3.2v-3.4l-209.4-392.8v198.2l209.4 356.6v-148.8z" />
<glyph unicode="&#xe964;" glyph-name="rightAlign" d="M0 792h1024v-48h-1024v48zM287.96 632h736.040v-48h-736.040v48zM0 472h1024v-48h-1024v48zM223.98 312h800.020v-48h-800.020v48zM512 152h512v-48h-512v48z" />
<glyph unicode="&#xe965;" glyph-name="RotateIcon" d="M604.84-55.8c33.051 6.423 62.314 15.865 89.921 28.326 27.922 11.322 53.971 25.061 78.431 41.031 15.91 11.593 31.305 23.947 46.012 37.056 7.577 6.747 37.537 37.507 37.537 37.507l18.44 20-139.18 133.72s-39.080-41.12-50.52-51.2c-10.76-8.632-22.824-17.201-35.376-25.063q-17.144-9.297-31.604-16.477c-14.853-6.777-32.215-12.435-50.297-16.111-17.979-3.763-36.837-5.792-56.16-5.849-0.373-0.002-0.764-0.003-1.155-0.003-17.987 0-35.509 1.99-52.359 5.762-18.073 3.646-35.435 9.304-51.841 16.707-12.643 5.679-24.122 11.6-35.244 18.068-2.065 1.245-16.905 11.445-20.465 14.305-10.967 8.881-20.786 17.729-30.121 27.061-24.601 24.534-44.785 53.485-59.266 85.563-12.681 32.613-19.68 68.252-19.853 105.503 0 0.075 0 0.079 0 0.083 0 36.364 7.020 71.088 19.779 102.891 14.054 33.174 34.319 63.097 59.353 88.271 12.489 12.482 25.853 24.116 39.984 34.79q7.824 4.997 14.964 9.017c4.76 2.68 23.64 11.78 30.56 14.5 8.44 3.3 17.54 6.66 21.14 7.66q15.78 4.4 32.6 7.76c15.258 3.473 32.78 5.463 50.768 5.463 0.391 0 0.782-0.001 1.173-0.003 13.43-0.007 26.681-1.003 39.632-2.919q6.028-0.901 13.108-2.381c7.3-1.54 30.4-8.38 34.96-9.76 7.5-2.26 45.12-18.64 54.22-26l-180.22-172 502.44-16.38v518.9l-182.94-191.14q-17.86 13-36.7 25.020c-8.56 5.46-49.6 27.3-61.74 32.6-10.68 4.66-57.32 20.28-69.34 23.4-12.56 3.26-61.36 12.12-73.48 13.060q-20 1.5-40 1.5c-0.306 0.001-0.668 0.001-1.030 0.001-31.5 0-62.304-2.985-92.142-8.686-31.142-7.517-60.309-16.888-88.437-28.286-26.135-10.897-52.209-25.563-76.154-42.979-25.626-16.586-48.867-35.486-69.909-56.581q-68.328-68.288-101.048-152.928c-22.438-51.567-35.492-111.639-35.492-174.76s13.054-123.192 36.609-177.662q31.603-81.758 99.923-150.018c21.456-21.41 44.642-41.106 69.324-58.854 24.344-16.020 50.394-29.758 77.744-40.977 28.179-12.565 57.441-22.007 87.937-28.011 29.47-5.686 60.419-8.7 92.071-8.7 0.213 0 0.425 0 0.638 0 32.79 0.020 64.904 3.003 96.071 8.695z" />
<glyph unicode="&#xe966;" glyph-name="ShuffleIcon" d="M850.38 421.34v-144.92c0-7.3 0.48-18.62-13.68-35.54-8.38-10-25.52-13.68-32.82-13.68h-593.34v147.66l-210.54-210.54 210.54-207.8v131.24h623.46c42.4 0.38 69.14-1.1 106.72 26.62 8.373 7.277 15.979 14.844 23.050 22.892 13.71 17.648 26.49 43.308 28.77 106.268v320l-112.1-112.1zM173.62 474.66v144.92c0 7.3-0.48 18.62 13.68 35.54 8.38 10 25.52 13.68 32.82 13.68h593.34v-147.66l210.54 210.54-210.54 207.82v-131.26h-623.46c-42.4-0.38-69.14 1.1-106.72-26.62-8.373-7.277-15.978-14.844-23.049-22.892-13.711-17.648-26.491-43.308-28.771-106.268v-320l112.1 112.1z" />
<glyph unicode="&#xe967;" d="M975.64 558.34c2.43 0.689 5.222 1.086 8.106 1.086 6.078 0 11.745-1.761 16.519-4.8 5.253-3.443 8.756-9.436 8.756-16.248 0-0.316-0.008-0.63-0.022-0.942-0.657-6.093-4.182-11.287-9.19-14.228-5.951-3.424-12.98-5.415-20.474-5.415-0.265 0-0.53 0.002-0.794 0.007-6.3-0.001-13.16 1.759-17.38 6.759-2.555 3.168-4.101 7.243-4.101 11.679 0 2.523 0.5 4.929 1.407 7.125 2.896 7.397 9.221 13.023 17.006 14.941z" />
<glyph unicode="&#xe968;" d="M872.16 554.92c2.737 0.793 5.88 1.249 9.13 1.249s6.393-0.456 9.37-1.307c6.4-1.561 12.96-5.681 15.56-12.281 0.696-1.806 1.099-3.896 1.099-6.080 0-4.62-1.804-8.818-4.747-11.928-5.492-6.112-13.872-8.732-21.872-9.192-6.46-0.42-13.5 0.4-18.72 4.56-3.787 3.112-6.184 7.796-6.184 13.040 0 0.875 0.067 1.735 0.196 2.574 1.268 9.061 7.582 16.472 16 19.317z" />
<glyph unicode="&#xe969;" d="M995.62 474.4c7.9 0.48 16.86-0.3 22.82-6.12 5.4-5.34 6.18-13.6 5.18-20.76-1.68-12-6.94-22.98-12.92-33.28-11.135-18.329-24.494-33.98-39.976-47.219-14.124-11.921-29.764-22.021-47.244-27.261-6.143-1.991-13.212-3.139-20.548-3.139-8.414 0-16.476 1.51-23.928 4.274-14.604 5.405-26.764 17.185-34.744 30.945-9.059 15.638-14.405 34.405-14.405 54.42 0 0.359 0.002 0.717 0.005 1.075 0.2 9.945 1.6 20.465 6.64 29.365 3 5.34 8.34 10 14.74 10 30 0.86 60.12 1.22 90.14 2.94 18.2 1 36.22 3.1 54.24 4.76zM958.9 450c-34-2.22-68-4.3-101.88-5.64-3.46 0.3-5.14-3.22-6.26-5.88-2.055-5.955-3.242-12.817-3.242-19.957 0-3.311 0.255-6.563 0.747-9.737 1.735-13.927 7.955-28.227 19.455-37.367 11.74-9.42 27.52-12.42 42.28-11.42 18 1.78 34.2 11.42 47.76 22.92 13.392 11.388 24.486 25.003 32.812 40.339 3.408 7.061 6.368 13.881 5.888 21.041-0.206 3.511-2.964 6.318-6.435 6.598-10.465 0.362-20.825-0.378-31.125-0.898z" />
<glyph unicode="&#xe96a;" d="M39.6 535.66c2.806 0.334 6.056 0.525 9.351 0.525 12.423 0 24.213-2.713 34.809-7.579 2.36-1.286 5.84-2.546 7.48-5.566-1.238-3.662-2.685-6.808-4.414-9.768-1.866-3.392-3.206-7.352-5.866-10.492-9.12 4.88-18.8 9.48-29.32 9.86-6.34 0.28-13.38-0.82-18-5.5-2.616-2.839-4.22-6.646-4.22-10.827 0-3.804 1.327-7.297 3.544-10.043 3.709-3.808 8.14-6.945 13.066-9.18 11.71-5.87 23.99-10.69 33.41-19.67 16.52-14.88 17.76-42 5.28-59.82-7.272-9.738-18.231-16.376-30.77-17.84-15.17-1.68-30.41 1.26-44.39 6.56-3.46 1.68-7.56 2.68-9.56 6 1.42 5.060 3.46 10 5.060 14.94 0.74 1.82 1.1 4 2.92 5.18 1.675-0.385 3.149-0.935 4.525-1.65 9.634-4.869 21.105-7.808 33.248-7.95 6.047 0 12.467 2.38 15.667 7.7 5.28 9 4 22.26-5.14 28.36-14.080 9.78-31.78 13.5-44.74 25.1-5.615 5.238-9.371 12.405-10.208 20.44-1.452 12.28 0.468 25.56 8.168 35.32 7.18 9.34 18.66 14.38 30.1 15.9z" />
<glyph unicode="&#xe96b;" d="M457 531.54c1.7 1.48 4.18 0.86 6.24 1.040 6.98-0.16 14 0.22 20.94-0.18 2-0.12 2-2.56 2.76-4 6.54-20.66 13.38-41.22 19.78-62 1.603-5.197 3.133-11.724 4.264-18.387 2.416 12.707 7.456 25.667 11.776 38.747 4.88 14.32 9.58 28.7 14.56 42.98 0.247 1.508 1.541 2.645 3.101 2.645 0.141 0 0.279-0.009 0.415-0.027 7.824 0.002 15.664 0.142 23.504 0.002 3.18 0 3.16-3.84 3.38-6 2.12-45.8 4-91.58 6.14-137.38 0-2.1 0.5-6-2.62-6-6.72-0.4-13.46 0-20.2-0.16-2 0-5.54-0.1-5.4 2.84-1.14 36.88-1.8 73.78-2.54 110.66-2.78-12-4.74-24.12-8.38-35.84-4.44-14-8.76-28.12-13.22-42.16-0.72-3.54-5.1-2.26-7.66-2.54-4.6 0.4-9.56-0.86-13.88 0.82-1.255 2.901-2.44 6.406-3.353 10.020-6.947 23.48-14.427 46.38-18.247 70.12-0.343-3.934-0.538-8.512-0.538-13.135 0-1.225 0.014-2.447 0.041-3.666-0.403-30.239-1.683-60.639-2.443-91.059-0.32-2 0.34-5.080-2-5.78-6-0.6-12-0.14-17.88-0.28-1.68 0.24-4.32-0.34-4.98 1.74-0.144 1.498-0.226 3.24-0.226 5s0.082 3.502 0.242 5.22q2.823 65.62 5.683 131.46c-0.009 0.194-0.014 0.42-0.014 0.648 0 1.664 0.276 3.264 0.785 4.755z" />
<glyph unicode="&#xe96c;" d="M103.7 489.66c5.72 1.4 11.18 4.58 17.12 4.78 4.38-3.52 4.5-10 6.16-14.94 8.26 7.8 18.5 14.42 30.18 14.94 10.5 1.2 22-4.54 25.64-14.86 7.8 7.42 17.32 13.68 28.3 14.68 8.66 1.12 18.92-0.28 24.44-7.84 6.9-9.54 6.3-22 6.34-33.18-0.2-23.32 0.36-46.68-0.28-70-4.064-0.247-8.816-0.388-13.6-0.388s-9.536 0.141-14.25 0.419c-0.11 24.729 0.65 49.549 0.25 74.329-0.3 4-0.74 8.58-3.56 11.8-2.34 2.66-6.24 2.52-9.42 1.86-5.86-1.060-10.82-4.62-15.26-8.4-0.28-26.52 0.3-53.060-0.3-79.56-4.080-0.287-8.841-0.451-13.64-0.451s-9.56 0.164-14.277 0.486c0.157 20.245 0.637 40.545 0.437 60.845-0.18 7 0.62 14.18-1.36 21-0.76 3.496-3.683 6.127-7.269 6.438-7.611 0.282-14.331-3.998-19.791-8.838-0.22-26.5 0.34-53.040-0.28-79.54-4.068-0.261-8.822-0.409-13.61-0.409s-9.542 0.149-14.256 0.441c0.066 20.248 0.646 40.548 0.386 60.828-0.2 13.54 0.78 27.54-4 40.5-1.28 3.68 3.6 4.14 5.9 5.060z" />
<glyph unicode="&#xe96d;" d="M374 491.7c13.56 5.5 30.54 3.38 41.020-7.32 1.84 3.64 3.36 8 7.020 10.12 3.38 0 6.44-1.86 9.6-2.88 4-1.72 8.42-2.54 12-4.98 0.5-1.6-0.6-3.18-1.040-4.7-3.038-6.803-4.817-14.741-4.84-23.092 0-10.868 0-21.748 0-32.628 0-16.88 1.020-33.76 1.080-50.64 0-10-2.4-20.62-9.58-28-7.5-7.8-18.68-10.5-29.16-10.9-0.359-0.004-0.783-0.006-1.207-0.006-12.79 0-25.126 1.947-36.727 5.56-3.126 1.106-7.466 2.166-10.526 5.206-0.1 5.4 2.76 10.4 4 15.62 0.74 2 1.18 6 4.18 4.8 8.34-3.2 16.7-6.7 25.68-7.7 6.62-0.66 13.7-1.38 20 1.36 3.56 1.872 6.019 5.416 6.338 9.56 0.275 2.944 0.431 6.319 0.431 9.73 0 4.132-0.228 8.211-0.673 12.225-7.158-5.651-16.146-8.74-25.855-8.74-3.172 0-6.267 0.33-9.252 0.956-7.68 1.791-14.339 6.462-18.719 12.823-6.429 9.286-8.829 20.586-9.629 31.546-0.88 14.32 0.24 29.24 6.38 42.42 3.908 8.783 10.743 15.676 19.24 19.562zM380.96 464.5c-4.6-7.36-5.2-16.36-5.44-24.82s0.26-17.38 4-25.2c2.090-4.558 6.409-7.77 11.523-8.256 7.417-0.584 15.657 1.716 20.437 7.596q0.26 25.76 0 51.54c-4.24 3.647-9.712 5.971-15.717 6.277-0.543 0.055-1.1 0.085-1.664 0.085-5.505 0-10.342-2.862-13.102-7.18z" />
<glyph unicode="&#xe96e;" d="M692.62 482.54c13.18 15.32 39.5 16.26 53.7 1.84 1.439 3.657 3.471 6.788 6.009 9.429 1.591 1.571 3.831 0.211 5.631-0.289 5.36-2.18 10.98-3.78 16.2-6.26 2.3-1.040 0.3-3.54 0-5.18-3.112-6.972-4.924-15.108-4.924-23.668 0-0.25 0.002-0.5 0.005-0.75 0-17.582-0.22-35.222 0.4-52.842 0.22-10.48 0.82-20.98 0.62-31.48-0.3-9.88-3.34-20.34-10.92-27.12-8.5-7.66-20.48-9.66-31.58-9.58-12.734 0.392-24.822 2.557-36.218 6.258-2.422 0.982-6.222 1.942-8.582 4.802 0.56 6.34 3.4 12.28 5.1 18.38 0.52 2.82 3.56 2 5.38 1.020 12.16-5.32 25.64-8.88 38.98-6.98 4.876 0.481 8.85 3.862 10.199 8.376 1.921 7.924 0.761 16.084 0.401 24.084-7.18-5.161-16.149-8.253-25.84-8.253-3.604 0-7.108 0.428-10.464 1.235-9.113 2.654-16.647 9.2-20.631 17.736-6.265 12.823-7.265 27.283-6.605 41.103s3.96 27.6 13.14 38.14zM719.58 470.54c-7.8-3.020-10.74-11.88-11.88-19.46-0.595-3.809-0.935-8.201-0.935-12.673 0-6.637 0.749-13.099 2.166-19.307 1.349-5.22 5.029-11.22 11.249-12.6 1.445-0.296 3.106-0.465 4.807-0.465 6.915 0 13.177 2.799 17.714 7.325 0.46 17.22 0 34.48 0.2 51.72-6.24 5.54-15.26 8.22-23.3 5.52z" />
<glyph unicode="&#xe96f;" d="M256.2 490.36c7.14 1.36 14.24 3.080 21.44 4.18 2-0.84 0.98-3.62 1.38-5.32q0-34.34 0-68.7c0-4.92 0.22-10.32 3.22-14.48 2.002-2.4 4.995-3.917 8.341-3.917 0.211 0 0.42 0.006 0.628 0.018 7.31 0.221 14.013 2.773 19.409 6.936-0.178 25.942-0.218 51.942-0.078 77.782-0.22 2.36 2.36 2.94 4.12 3.32 7.62 1.56 15.22 3.16 22.88 4.54 0.402-1.653 0.648-3.56 0.68-5.518 0-19.882 0-39.782 0-59.642 0-10.92-0.32-22 1.7-32.78 0.52-3.36 2.6-6.44 2.36-10-2.8-2.44-6.82-2.74-10.18-4.12-4.24-1.14-8.32-3.44-12.78-3.44-4.28 2.58-4.62 8.42-6.24 12.74-8.579-7.929-20.093-12.793-32.743-12.793-2.618 0-5.187 0.208-7.692 0.609-6.335 1.058-11.951 4.648-15.676 9.715-4.768 6.748-5.788 15.188-5.728 23.148 0 24.74-0.12 49.46 0.1 74.2-0.22 2.78 2.98 3.040 4.86 3.52z" />
<glyph unicode="&#xe970;" d="M585.16 489.66c8.1 2 16.38 3.34 24.54 5.12 0.558-1.304 0.894-2.819 0.92-4.41 0-24.010 0-48.010 0-72.010 0.12-5.64 1.2-12.84 7.12-15.3 8.38-2.72 17.080 1.22 24.16 5.56 0.4 26.1 0 52.22 0.24 78.34-0.2 2.46 2.62 2.86 4.4 3.3 7.58 1.48 15.1 3.26 22.76 4.38 0.38-2.936 0.596-6.331 0.596-9.777 0-1.232-0.028-2.457-0.082-3.676q0.006-28.527 0.006-57.227c0-9.38 0-18.9 2-28.1 0.58-3.020 2.48-5.88 2.1-9.020-1.6-1.72-4.14-2-6.24-2.82-5.16-1.48-10.1-3.68-15.36-4.74-1.8-0.42-3.14 1.14-3.88 2.54-1.441 2.91-2.695 6.314-3.584 9.862-8.662-7.567-20.181-12.427-32.835-12.427-2.648 0-5.247 0.213-7.779 0.622-6.023 1.039-11.403 4.357-15.123 9.051-4.659 6.152-6.039 14.052-6.159 21.532 0 24.78 0 49.56 0 74.32-0.1 1.86-0.16 4.5 2.2 4.88z" />
<glyph unicode="&#xe971;" glyph-name="StyleIcon" d="M804.8 875.6c11-4.6 21-11.2 29.4-19.8 9-9.4 15.8-20.6 19.6-33 4.4-11 6.6-24.2 6.6-39.6v-234.4c0-4.4 0-8.8 0-13.2s0-8.8 0-13.2c-2.2-4-3.2-8.6-3.2-13.2-1.8-5.6-4-11.2-6.6-16.6l-222.4-412.8c-17.2-36.6-36.8-66-91.6-66h-445c-13.6 0.2-27.2 3.6-39.2 10-10.8 6.4-20.6 14.2-29.4 23.2-8.8 10.8-23 21.4-23 79v221.2c2.6 5.4 4.8 10.8 6.6 16.6 2 6.2 5.4 11.8 9.8 16.6l252 429.2c16.2 29 35 72.6 98 72.6h399.2c15.2 0 28.2-2.2 39.2-6.6zM765.6 882.2v0zM124.4 396.8h376.2l238.8 402.8h-373c-10.8-0.4-19.6-19.8-19.6-19.8l-222.4-383zM346.8 779.8v0zM91.6 99.6h389.2v211.4h-399v-193c-0.4-11.6 1.4-17.4 9.8-18.4zM81.8 126v0zM775.4 538.8c0 0 0 1.2 0 3.2 0 1.4 0 2.6 0 3.2 0 1.2 0 1.2 0 3.2v148.6l-209.4-356.4v-198.2l209.4 393v3.4zM775.4 535.6v0z" />
<glyph unicode="&#xe972;" glyph-name="ToolTipPlusIcon" d="M383.84 953.9h256v-379.080q192 0 384.16 0v-252.6c-128-0.28-256.1 0-384.16-0.12q0-190 0-380h-256v379.9h-383.84v252.82h383.84z" />
<glyph unicode="&#xe973;" glyph-name="ToolTipSwapIcon" d="M474.22 870h55.88c45.172-2.604 87.449-11.356 127.199-25.449 31.001-13.891 64.421-30.871 95.081-52.231 70.085-47.913 124.783-113.629 158.194-190.715 38.546 8.295 75.946 19.695 113.366 31.135-37.48-87.82-75.4-175.5-112.72-263.4-82.28 51.14-164 103.3-246 154.8 40.46 12.38 81 24.54 121.52 36.8-23.56 43.36-54.36 83.16-93.26 113.82-25.78 20-54.88 35.44-85.14 47.52-46.66 15.26-96.54 18.52-145.24 14-28.88-2.8-56.62-11.72-83.66-21.7-28.4-10.6-53.9-27.64-76.76-47.28-27.020-23.9-52.16-50.42-70.76-81.48-35.52 23.6-69.7 49.28-105.040 73.22 59.12 99.9 160.52 172.56 272.52 201.46 21.394 4.4 47.045 7.781 73.17 9.417zM109.38 526.96q124.16-76.38 248.36-152.62c-40.88-13.12-82-25.3-122.98-38.22 22-38.9 48.52-76 83.040-104.78 25.071-20.449 53.797-37.845 84.787-50.933 41.213-13.927 82.073-23.547 123.333-22.007 46 3.48 91.7 14.42 133.3 34.56 29.54 13.88 55.38 34.46 78 57.64 20 18 36.7 39.48 51.1 62.2q53.78-36.64 107.14-73.88c-50.68-78.28-124-142.16-210.16-178.46-49.12-22.46-103.3-30.78-156.82-34.34-52.9-1.44-105.76 8.42-155.52 26-57.080 20.9-109.38 53.84-155.2 93.62-45.76 42.6-83.38 94.26-108.040 151.76-36.68-10.66-72.8-23.36-109.72-33.080v5.060l1.36-2.28c35.14 86.92 71.88 173.24 108.020 259.76z" />
<glyph unicode="&#xe974;" glyph-name="underline" d="M731.3 960h146v-474.62c0-181.48-163.46-328.6-365.1-328.6s-365.080 147.1-365.080 328.6v474.62h146v-474.62c0-45.82 20.82-89.8 58.6-123.8 42-37.9 99.080-58.76 160.46-58.76s118.38 20.86 160.46 58.76c37.78 34 58.6 78 58.6 123.8zM147.12 83.76h730.2v-146h-730.2z" />
<glyph unicode="&#xe975;" glyph-name="UndoIcon" horiz-adv-x="1012" d="M221.22 533.1s100 154.4 249.88 206.42q114 35.32 255.32-35.32t285.2-380.2q-160.26 222.72-285.2 258c-85.1 21.72-154.12 10.28-210.26-22.3-96.16-50.12-178.16-203.14-178.16-203.14l144-76-494.38-135.86 154.82 548.66 78.76-160.26zM142.44 693.36v0z" />
<glyph unicode="&#xe976;" glyph-name="ViewAllPagesIcon" d="M197.36 489.12q0 101.38 0 202.76h-197.36v-202.7q98.66-0.2 197.36-0.060zM472.9 489.12q0 101.38 0 202.76h-196.66q0-101.38 0-202.76 98.34-0.040 196.66 0zM748.46 691.88h-196.68q0-101.38 0-202.76 98.34 0 196.68 0zM827.28 691.88q0-101.38 0-202.76 98.34 0 196.68 0v202.76zM0 408v-203.88h197.3q0.2 102 0 204.12c-65.74-0.24-131.52 0.44-197.3-0.24zM276.26 408.28c0-68-0.3-136.12 0.18-204.16h196.32c0.38 68 0 136 0.16 204-65.52 0.22-131.1 0.060-196.66 0.16zM748.44 408.22h-196.6q-0.12-102 0-204.12h196.36c0.56 68.060 0.1 136.12 0.24 204.12zM827.88 204.12h196.12v204.14q-98.34 0-196.68 0c0.32-68.020-0.82-136.12 0.56-204.14z" />
<glyph unicode="&#xe977;" glyph-name="ViewSpreadIcon" d="M0 129.48h488.18v637.040h-488.18zM537.34 766.52q0-318.5 0-637.020h486.66v637.020z" />
<glyph unicode="&#xe978;" d="M1004.6 215.12l-397.3 593.16c-20.842 30.775-55.635 50.734-95.090 50.734s-74.248-19.959-94.833-50.332l-397.957-593.522c-12.143-17.896-19.386-39.972-19.386-63.74 0-63.221 51.246-114.472 114.465-114.48h795.001c63.217 0.012 114.459 51.262 114.459 114.48 0 23.751-7.233 45.813-19.616 64.103zM972.6 117.76c-12.265-22.642-35.844-37.76-62.955-37.76-0.051 0-0.102 0-0.153 0h-794.992c-0.006 0-0.012 0-0.019 0-39.477 0-71.48 32.003-71.48 71.48 0 14.85 4.528 28.642 12.279 40.071l397.54 592.829c13.013 19.221 34.74 31.688 59.38 31.688s46.367-12.467 59.219-31.437l397.461-593.431c7.589-11.165 12.117-24.944 12.117-39.781 0-12.324-3.124-23.918-8.624-34.034z" />
<glyph unicode="&#xe979;" d="M968.88 191.2l-397.28 593.16c-13.013 19.221-34.74 31.688-59.38 31.688s-46.367-12.467-59.219-31.437l-397.861-593.391c-7.558-11.161-12.065-24.924-12.065-39.74 0-39.458 31.971-71.449 71.422-71.48h795.003c0.004 0 0.008 0 0.012 0 39.477 0 71.48 32.003 71.48 71.48 0 14.833-4.518 28.61-12.253 40.031zM909.48 116.92h-794.98c-19.052 0.002-34.496 15.447-34.496 34.5 0 7.159 2.181 13.809 5.914 19.321l397.622 593.039c6.282 9.269 16.764 15.28 28.65 15.28s22.368-6.011 28.573-15.159l397.397-593.281c3.656-5.391 5.836-12.041 5.836-19.2 0-19.053-15.444-34.498-34.496-34.5z" />
<glyph unicode="&#xe97a;" d="M512.2 116.92h397.3c19.052 0.002 34.496 15.447 34.496 34.5 0 7.159-2.181 13.809-5.914 19.321l-397.222 593.039c-6.282 9.269-16.764 15.28-28.65 15.28s-22.368-6.011-28.573-15.159l-397.777-593.261c-3.656-5.391-5.836-12.041-5.836-19.2 0-19.053 15.444-34.498 34.496-34.5z" />
<glyph unicode="&#xe97b;" d="M438.2 636q63.42 0 126.82 0c-0.46-6.26-0.8-12.54-1.18-18.82-5.84-94.4-11.38-188.8-17.34-283.18q-36 0-72.12 0c-6.46 0-12.9 0-19.36 0-5.84 100.66-11.020 201.36-16.82 302z" />
<glyph unicode="&#xe97c;" d="M482.98 283.34c5.624 1.228 12.085 1.932 18.71 1.932s13.086-0.703 19.311-2.040c14.499-3.892 29.019-12.512 37.279-26.172 7.38-11.66 11.28-26.22 7.12-39.76s-12.56-26-24.76-33.22c-11.17-6.838-24.691-10.888-39.158-10.888-12.491 0-24.277 3.019-34.667 8.367-14.714 7.801-26.494 22.521-29.574 39.521-2.6 13.56 1.7 27.68 9.64 38.72 8.64 11.9 22.040 19.72 36.1 23.54z" />
<glyph unicode="&#xe97d;" d="M563.84 617.2c7.2 0.18 14.4 0.16 21.6 0q-9.16-150.84-18.38-301.64c-30.46-0.66-61-0.24-91.48-0.22-0.74 6.2-0.84 12.44-1.2 18.66q36 0 72.12 0c5.94 94.4 11.5 188.8 17.34 283.2z" />
<glyph unicode="&#xe97e;" d="M558.28 257.020c12.56-5.52 21.060-17.64 26-30 1.995-4.961 3.152-10.713 3.152-16.736 0-8.995-2.582-17.387-7.044-24.475-5.169-9.559-12.99-17.348-22.474-22.445-10.556-5.671-22.751-8.919-35.705-8.919-12.51 0-24.312 3.029-34.714 8.393-7.575 4.441-16.035 9.921-20.255 18.541 9.965-5.149 21.751-8.168 34.242-8.168 14.467 0 27.988 4.050 39.491 11.077 11.867 7.091 20.267 19.651 24.427 33.031s0.26 28.040-7.12 39.7z" />
<glyph unicode="&#xe97f;" d="M512-64c-282.737 0.044-511.923 229.258-511.923 512 0 141.366 57.292 269.35 149.924 362.001 93.146 95.83 223.274 155.291 367.291 155.291 282.77 0 512-229.23 512-512 0-144.016-59.46-274.144-155.17-367.174-92.271-92.774-219.845-150.119-360.814-150.119-0.46 0-0.919 0.001-1.379 0.002zM512 905.3c-252.16 0-457.3-205.14-457.3-457.3s205.14-457.3 457.3-457.3 457.3 205.14 457.3 457.3-205.14 457.3-457.3 457.3z" />
<glyph unicode="&#xe980;" d="M574.58 278.6v250.28c0 16.016-12.984 29-29 29h-128.2c-16.016 0-29-12.984-29-29v-36.62c0-16.016 12.984-29 29-29v0c16.016 0 29-12.984 29-29v-155.66c0-16.016-12.984-29-29-29v0c-16.016 0-29-12.984-29-29v-36.6c0-16.016 12.984-29 29-29h189.24c16.016 0 29 12.984 29 29v36.6c0 16.016-12.984 29-29 29h-3.060c-16.008 0.011-28.98 12.991-28.98 29z" />
<glyph unicode="&#xe981;" d="M581.6 671.4c0-38.439-31.161-69.6-69.6-69.6s-69.6 31.161-69.6 69.6c0 38.439 31.161 69.6 69.6 69.6s69.6-31.161 69.6-69.6z" />
<glyph unicode="&#xe982;" glyph-name="wingLeft" horiz-adv-x="272" d="M272 960c-155.58-67.060-268.74-270.92-268.74-512s113.16-444.94 268.74-512z" />
<glyph unicode="&#xe983;" glyph-name="wingRight" horiz-adv-x="272" d="M0 960c155.58-67.060 268.74-270.92 268.74-512s-113.16-444.94-268.74-512z" />
</font>
</defs>
</svg>
